<svg xmlns="http://www.w3.org/2000/svg">
<defs>
<font id="GretaArabic-Bold" horiz-adv-x="0" >
  <font-face 
    font-family="Greta Arabic"
    font-weight="700"
    font-stretch="normal"
    units-per-em="1000"
    panose-1="2 0 0 0 0 0 0 0 0 0"
    ascent="710"
    descent="-290"
    x-height="459"
    cap-height="583"
    bbox="-131 -629 1309 1442"
    underline-thickness="50"
    underline-position="-150"
    unicode-range="U+001D-FEFC"
  />
<missing-glyph horiz-adv-x="1200" 
d="M141 848h918q59 0 106 -50q20 -26 26 -45q9 -25 9 -52v-905q0 -76 -62 -122q-37 -26 -86 -26h-905q-77 0 -124 66q-23 39 -23 75v918q0 60 51 108q43 33 90 33zM14 694v-892q0 -64 39 -101q40 -38 91 -38h912q58 0 100 48q29 37 29 81v912q0 59 -50 101q-34 29 -89 29
h-892q-92 0 -130 -82q-10 -23 -10 -58zM291 654h75q20 0 49 -68q135 -277 137 -283h1v259q0 58 58 79q24 8 46 8h82l4 -1q39 0 79 -16q73 -36 104 -116q22 -61 22 -131v-11q0 -87 -35 -157q-39 -71 -107 -94q-28 -11 -89 -11h-62h-363q-4 3 -40 44h368q76 0 92 6q24 3 58 31
q29 26 35 46q18 49 18 138q0 105 -23 156q-25 45 -81 64q-20 6 -40 6h-18q-8 -16 -8 -37v-331q0 -31 -24 -45q-10 -4 -20 -4h-81q-20 0 -47 63q-137 279 -140 284v0v-347h-90v417q0 39 28 49q6 2 12 2zM210 -55q0 -4 -1 -8l-14 -80h-16l14 81q1 4 0 6q0 8 -4 13t-13 5
t-17.5 -5t-16 -14t-13.5 -22.5t-9 -31.5l-6 -32h-16l21 116h13l-5 -35v0q4 6 8.5 13t11 12t14.5 8.5t18 3.5q6 0 12 -2t10 -5.5t6.5 -9.5t2.5 -13zM315 -30l-52 -67q-8 -9 -14 -16.5t-13 -15.5l1 -1h65l-2 -13h-90l1 3l52 66q6 8 13.5 17t13.5 17h-1h-56l2 13h81zM410 -143
h-14l5 35v0q-8 -17 -21 -27t-29 -10q-7 0 -13.5 2.5t-11 7t-7.5 11.5t-3 15q0 19 7.5 34t19 26t26.5 17t31 6q19 0 30 -2zM399 -40q-13 0 -25 -5t-21 -14.5t-14.5 -21.5t-5.5 -27q0 -11 5.5 -17t15.5 -6q7 0 15 4t16 12.5t13.5 21t8.5 28.5l4 24q-4 1 -12 1zM509 -39
q-9 0 -17.5 -6t-16.5 -16t-14 -24t-9 -30l-5 -28h-16l20 116h14l-6 -41v0q3 7 7.5 14.5t11 13.5t14.5 10t17 4l4 -13h-4zM609 -143h-14l6 35h-1q-7 -17 -21 -27t-30 -10q-8 0 -14 2.5t-11 7.5t-8 12.5t-3 16.5q0 18 7 32.5t18.5 25t26.5 16.5t31 6q11 0 17 -1l12 66h16z

<glyph glyph-name="uniFB01" unicode="fi" horiz-adv-x="638" 
d="M29 0v48l67 26v307h-81v60l81 19v28q0 97 72 160t179 63q72 0 142 -29l-19 -121h-27l-152 76q-47 -31 -47 -102v-76h184l67 10h63v-391l69 -29v-49h-274v48l57 26v307h-166v-303l68 -29v-49h-283z" />
    <glyph glyph-name="uniFB02" unicode="fl" horiz-adv-x="638" 
d="M353 0v48l57 24v508l-119 57q-47 -31 -47 -103v-75h103v-78h-103v-303l68 -29v-49h-283v48l67 26v307h-81v60l81 19v37q0 86 71.5 149.5t182.5 63.5q49 0 109 -17l35 10h64v-625l69 -29v-49h-274z" />
    <glyph glyph-name="uniFB03" unicode="ffi" horiz-adv-x="956" 
d="M412 488q0 49 18 88q-63 44 -131 62q-55 -37 -55 -104v-75h168v29zM29 0v48l67 26v307h-81v60l81 19v24q0 89 72.5 157.5t193.5 68.5q71 0 147 -43q66 44 154 44q72 0 142 -29l-18 -121h-28l-152 76q-47 -31 -47 -102v-76h184l67 10h63v-391l69 -29v-49h-274v48l57 26
v307h-166v-303l68 -29v-49h-283v48l67 26v307h-168v-303l68 -29v-49h-283z" />
    <glyph glyph-name="uniFB04" unicode="ffl" horiz-adv-x="954" 
d="M244 534v-75h167v38q0 43 18 80q-61 43 -130 61q-55 -37 -55 -104zM344 0v48l67 26v307h-167v-303l68 -29v-49h-283v48l67 26v307h-81v60l81 19v24q0 89 72.5 157.5t193.5 68.5q70 0 148 -44q67 44 155 44q54 0 109 -17l34 10h65v-625l68 -29v-49h-273v48l57 24v508
l-119 57q-47 -31 -47 -103v-75h103v-78h-103v-303l68 -29v-49h-283z" />
    <glyph glyph-name="uniFCCC" unicode="&#xfedf;&#xfee4;" horiz-adv-x="331" arabic-form="initial" 
d="M249 -63l-72 44q-22 12 -45.5 15.5t-93.5 3.5h-38l-16 3v147l16 3h9q87 0 136 -33q-68 108 -69 137q0 2 -9 265l-27 75l130 124l27 -18v-58l57 -116l-57 -60v-268q23 -21 56.5 -49.5t56.5 -47.5l22 -18l1 -8z" />
    <glyph glyph-name="uniFEF5" unicode="&#xfedf;&#xfe82;" horiz-adv-x="589" arabic-form="isolated" 
d="M285 673q-53 -18 -138 -18q-50 0 -96 11l-33 -56l-27 11q13 61 23 82q3 6 33.5 40.5t36.5 34.5t39 -1.5t53 -1.5q88 0 153 9l8 -13zM293 0q-138 0 -182 7l-5 9l30 151q75 39 167 116q-89 62 -152 101l-45 -21l-82 62l33 169l26 10q11 -8 48.5 -36t54 -40.5t49.5 -38
t53.5 -42.5t45.5 -39t45 -41l2 15v126l-35 92l123 121l39 -22v-62l54 -112l-59 -60q-6 -100 -64 -161q76 -85 76 -131q0 -24 -35 -86.5t-49 -69.5q-41 -17 -138 -17zM204 142h115q106 0 128 7q-21 41 -83 90q-73 -54 -160 -97z" />
    <glyph glyph-name="uniFEF6" unicode="&#xfee0;&#xfe82;" horiz-adv-x="616" arabic-form="final" 
d="M285 658q-54 -17 -139 -17q-51 0 -95 11l-34 -56l-27 11q13 61 23 82q3 6 34 40.5t37 34.5t38.5 -1.5t52.5 -1.5q89 0 154 9l7 -13zM632 3l-16 -3q-67 0 -115 41t-66 114q-43 -96 -47 -98q-13 -17 -72.5 -37t-104.5 -20q-21 0 -68 23t-83 47l-37 23l9 44q157 0 261 22
q-14 56 -47.5 112t-70.5 91l-48 -17l-78 65l55 180h26q91 -84 148.5 -157t74.5 -151l-30 -117q62 17 93 35l-14 440l98 81h35v-463q0 -71 6 -84q9 -19 53 -21h22l16 -3v-147z" />
    <glyph glyph-name="uniFEF7" unicode="&#xfedf;&#xfe84;" horiz-adv-x="589" arabic-form="isolated" 
d="M212 672q-10 -5 -62 -18t-64 -13q-6 0 -28.5 17.5t-42.5 35.5l-20 17l6 27q52 0 63 2v1q-18 10 -18 42q0 41 28 82.5t71 41.5q29 0 47 -27.5t22 -55.5l3 -27l-23 -6q-16 16 -37 16q-32 0 -74 -22q15 -34 63 -34q41 0 96 21l5 -7zM293 0q-137 0 -181 7l-5 9l29 151
q70 36 168 116q-95 66 -153 101l-45 -21l-82 62l33 169l27 10q9 -7 41.5 -31t46 -34t42 -32.5t46 -36.5t41 -33t42.5 -36t36 -34l2 15v126l-35 92l123 121l40 -22v-62l53 -112l-59 -60q-6 -100 -64 -161q76 -85 76 -131q0 -24 -35 -86.5t-49 -69.5q-41 -17 -138 -17z
M204 142h115q106 0 128 7q-22 43 -82 90q-79 -58 -161 -97z" />
    <glyph glyph-name="uniFEF8" unicode="&#xfee0;&#xfe84;" horiz-adv-x="616" arabic-form="final" 
d="M205 668q-9 -5 -62 -18t-64 -13q-6 0 -28.5 17.5t-42.5 35.5l-20 17l6 27q52 0 63 2v1q-18 10 -18 42q0 41 28 82.5t71 41.5q29 0 47 -27.5t21 -55.5l4 -27l-23 -6q-16 16 -37 16q-32 0 -74 -22q15 -34 63 -34q41 0 96 21l5 -7zM616 0q-67 0 -115 41t-66 114
q-43 -96 -47 -98q-13 -17 -72.5 -37t-104.5 -20q-21 0 -68 23t-83 47l-37 23l9 44q157 0 261 22q-14 56 -47.5 112t-70.5 91l-48 -17l-78 65l55 180h26q91 -84 148.5 -157t74.5 -151l-30 -117q62 17 93 35l-14 440l98 81h35v-463q0 -71 6 -84q9 -19 53 -21h22l16 -3v-147z
" />
    <glyph glyph-name="uniFEF9" unicode="&#xfedf;&#xfe88;" horiz-adv-x="589" arabic-form="isolated" 
d="M293 0q-137 0 -181 7l-5 9l29 151q70 36 168 116q-95 66 -153 101l-45 -21l-82 62l33 169l27 10q9 -7 41.5 -31t46 -34t42 -32.5t46 -36.5t41 -33t42.5 -36t36 -34l2 15v126l-35 92l123 121l40 -22v-62l53 -112l-59 -60q-6 -100 -64 -161q76 -85 76 -131q0 -24 -35 -86.5
t-49 -69.5q-41 -17 -138 -17zM204 142h115q106 0 128 7q-22 43 -82 90q-79 -58 -161 -97zM266 -282q-10 -5 -62 -18t-64 -13q-6 0 -28.5 17.5t-42.5 35.5l-20 17l6 27q52 0 63 2v1q-18 10 -18 42q0 41 28 82.5t71 41.5q29 0 47 -27.5t22 -55.5l3 -27l-23 -6q-16 16 -37 16
q-32 0 -74 -22q15 -34 63 -34q41 0 96 21l5 -7z" />
    <glyph glyph-name="uniFEFA" unicode="&#xfee0;&#xfe88;" horiz-adv-x="616" arabic-form="final" 
d="M632 3l-16 -3q-67 0 -115 41t-66 114q-43 -96 -47 -98q-13 -17 -72.5 -37t-104.5 -20q-21 0 -68 23t-83 47l-37 23l9 44q157 0 261 22q-14 56 -47.5 112t-70.5 91l-48 -17l-78 65l55 180h26q91 -84 148.5 -157t74.5 -151l-30 -117q62 17 93 35l-14 440l98 81h35v-463
q0 -71 6 -84q9 -19 53 -21h22l16 -3v-147zM371 -280q-9 -5 -62 -18t-64 -13q-6 0 -28.5 17.5t-42.5 35.5l-20 17l6 27q52 0 63 2v1q-18 10 -18 42q0 41 28 82.5t71 41.5q29 0 47 -27.5t21 -55.5l4 -27l-23 -6q-16 16 -37 16q-32 0 -74 -22q15 -34 63 -34q41 0 96 21l5 -7z
" />
    <glyph glyph-name="uniFEFB" unicode="&#xfedf;&#xfe8e;" horiz-adv-x="589" arabic-form="isolated" 
d="M291 0q-137 0 -181 7l-5 9l29 151q70 36 168 116q-95 66 -153 101l-45 -21l-82 62l33 169l27 10q9 -7 41.5 -31t46 -34t42 -32.5t46 -36.5t41 -33t42.5 -36t36 -34l2 15v126l-35 92l123 121l40 -22v-62l53 -112l-59 -60q-6 -100 -64 -161q76 -85 76 -131q0 -24 -35 -86.5
t-49 -69.5q-41 -17 -138 -17zM202 142h115q106 0 128 7q-22 43 -82 90q-79 -58 -161 -97z" />
    <glyph glyph-name="uniFEFC" unicode="&#xfee0;&#xfe8e;" horiz-adv-x="616" arabic-form="final" 
d="M632 3l-16 -3q-67 0 -115 41t-66 114q-43 -96 -47 -98q-13 -17 -72.5 -37t-104.5 -20q-21 0 -68 23t-83 47l-37 23l9 44q157 0 261 22q-14 56 -47.5 112t-70.5 91l-48 -17l-78 65l55 180h26q91 -84 148.5 -157t74.5 -151l-30 -117q62 17 93 35l-14 440l98 81h35v-463
q0 -71 6 -84q9 -19 53 -21h22l16 -3v-147z" />
    <glyph glyph-name="aBeh.medi_aNun.fina" unicode="&#xfe92;&#xfee6;" horiz-adv-x="859" 
d="M300 351q-22 16 -42 36.5t-30 33.5l-9 13q40 49 81 83q58 -47 83 -83q-14 -21 -35 -41.5t-34 -30.5zM237 -213q-63 0 -108 16.5t-68.5 46t-33.5 61t-10 69.5q0 54 21 114t42 93l22 33l36 -18q-32 -78 -32 -128q0 -132 162 -132q90 0 182 34q-14 54 -36 122.5t-37 110.5
l-15 42l109 114h35l2.5 -22.5t3 -29t2.5 -20.5q3 -14 6 -19.5t14 -11t32 -5.5q84 0 128 50l65 77h27v-131v-28q-1 -53 6.5 -62.5t51.5 -9.5h9l16 -3v-147l-16 -3h-9q-67 0 -107.5 39t-51.5 105q-4 23 -6 61q-43 -61 -64 -78q-25 -19 -54 -19l-23 1q3 -45 3 -82
q0 -23 -40.5 -94.5t-53.5 -83.5q-24 -24 -86.5 -43t-123.5 -19zM700 -208q-22 16 -42.5 36.5t-29.5 33.5l-10 13q41 49 82 83q57 -48 82 -83q-14 -21 -34.5 -41.5t-33.5 -31.5z" />
    <glyph glyph-name="aBeh.medi_aReh.fina" unicode="&#xfe92;&#xfeae;" horiz-adv-x="653" 
d="M493 -208q-22 16 -42.5 37t-30.5 33l-9 13q41 49 82 83q57 -48 82 -83q-14 -21 -34.5 -41.5t-34.5 -31.5zM137 -213q-21 0 -99.5 49.5t-93.5 65.5l19 44q72 -12 97 -12q63 0 117.5 44.5t90.5 107.5l-109 194l90 118h26l29 -96q8 -20 18 -25.5t43 -5.5q85 0 128 49l66 77
h26v-144v-28q-1 -53 6.5 -62.5t52.5 -9.5h9l16 -3v-147l-16 -3h-9q-67 0 -108 39t-52 105q-3 15 -7 73q-18 -27 -26 -37.5t-24 -28.5t-32 -25t-35 -7h-26q-2 -79 -6 -104q-5 -38 -29.5 -89t-69.5 -95t-92 -44z" />
    <glyph glyph-name="aDad.init_aAlifMaksura.fina" unicode="&#xfebf;&#xfef0;" horiz-adv-x="1264" 
d="M1016 532q-22 16 -42.5 37t-29.5 33l-10 13q41 49 82 84q57 -48 83 -84q-15 -21 -35.5 -41.5t-33.5 -31.5zM904 153h18q156 3 244 35q-25 43 -71 75.5t-90 32.5q-50 0 -114 -37t-122 -100q25 -6 101 -6h34zM261 -240q-122 0 -176.5 56t-54.5 136q0 54 22 116.5t44 97.5
l21 36l36 -19q-34 -77 -34 -127q0 -142 164 -142q75 0 153 13.5t121 31.5q-16 26 -112 47q-93 21 -128 45q-29 20 -41 47q-11 26 -12 88.5t7 74.5q29 64 118.5 106t169.5 42q53 0 73.5 -24t42.5 -102q21 -79 47 -102q28 51 62 97t75 87.5t88.5 66t93.5 24.5q52 0 98.5 -42
t70 -92t23.5 -85q0 -31 -29 -91t-53 -86q-19 -20 -97 -40t-164 -20h-34q-59 0 -104.5 15t-73 37.5t-47.5 59.5t-29.5 70.5t-18.5 81.5q-176 -2 -265 -66q10 -11 28.5 -19.5t34 -12.5t47 -11t47.5 -11q71 -18 108.5 -57.5t37.5 -92.5q0 -19 -23 -82t-29 -68
q-34 -27 -117.5 -55.5t-190.5 -28.5z" />
    <glyph glyph-name="aDad.init_aYeh.fina" unicode="&#xfebf;&#xfef2;" horiz-adv-x="1264" 
d="M1016 533q-22 16 -42 36.5t-30 32.5l-9 13q41 50 81 84q58 -48 83 -84q-14 -20 -35 -40.5t-34 -30.5zM904 153h18q156 3 244 35q-25 43 -71 75.5t-90 32.5q-50 0 -114 -37t-122 -100q25 -6 101 -6h34zM261 -240q-122 0 -176.5 56t-54.5 136q0 54 22 116.5t44 97.5l21 36
l36 -19q-34 -77 -34 -127q0 -142 164 -142q75 0 153 13.5t121 31.5q-16 26 -112 47q-93 21 -128 45q-29 20 -41 47q-11 26 -12 88.5t7 74.5q29 64 118.5 106t169.5 42q53 0 73.5 -24t42.5 -102q21 -79 47 -102q28 51 62 97t75 87.5t88.5 66t93.5 24.5q52 0 98.5 -42t70 -92
t23.5 -85q0 -31 -29 -91t-53 -86q-19 -20 -97 -40t-164 -20h-34q-59 0 -104.5 15t-73 37.5t-47.5 59.5t-29.5 70.5t-18.5 81.5q-176 -2 -265 -66q10 -11 28.5 -19.5t34 -12.5t47 -11t47.5 -11q71 -18 108.5 -57.5t37.5 -92.5q0 -19 -23 -82t-29 -68q-34 -27 -117.5 -55.5
t-190.5 -28.5zM451 -386q-14 -20 -34.5 -40t-34.5 -30l-13 -11q-31 23 -68 65q-14 -17 -31.5 -33t-27.5 -24l-11 -8q-22 16 -42 36.5t-29 32.5l-9 12q40 49 80 83q43 -35 70 -68q36 41 68 68q58 -47 82 -83z" />
    <glyph glyph-name="aDad.init_aYehHamza.fina" unicode="&#xfebf;&#xfe8a;" horiz-adv-x="1264" 
d="M1017 532q-22 16 -42.5 37t-30.5 33l-9 13q41 49 82 84q57 -48 83 -84q-15 -21 -35.5 -41.5t-34.5 -31.5zM222 310q-10 -5 -62 -18t-64 -13q-6 0 -28.5 17.5t-42.5 35.5l-20 17l6 27q52 0 63 2v1q-18 10 -18 42q0 41 28 82.5t71 41.5q29 0 47 -27.5t22 -55.5l3 -27
l-23 -6q-16 16 -37 16q-32 0 -74 -22q15 -34 63 -34q41 0 96 21l5 -7zM871 153h52q156 3 244 35q-24 43 -71 75.5t-90 32.5q-50 0 -114 -37t-122 -100q25 -6 101 -6zM262 -240q-122 0 -176.5 56t-54.5 136q0 54 21.5 116.5t43.5 97.5l22 36l36 -19q-34 -77 -34 -127
q0 -142 163 -142q75 0 153 13.5t122 31.5q-16 27 -113 47q-91 21 -125 43q-31 21 -43 49q-11 26 -12 88.5t7 74.5q29 64 118.5 106t169.5 42q53 0 73.5 -24t41.5 -102q23 -79 48 -102q28 51 62 97t75 87.5t88.5 66t93.5 24.5q52 0 98.5 -42t70 -92t23.5 -85
q0 -31 -29.5 -90.5t-52.5 -86.5q-19 -20 -97 -40t-164 -20h-34q-59 0 -104.5 15t-73 37.5t-47.5 59.5t-29.5 70.5t-18.5 81.5q-177 -2 -265 -66q10 -11 28.5 -19.5t33.5 -12.5t47 -11t48 -11q71 -18 108.5 -57.5t37.5 -92.5q0 -19 -23 -82t-29 -68q-34 -27 -117.5 -55.5
t-190.5 -28.5z" />
    <glyph glyph-name="aDad.medi_aAlifMaksura.fina" unicode="&#xfec0;&#xfef0;" horiz-adv-x="1289" 
d="M1016 532q-22 16 -42.5 37t-29.5 33l-10 13q41 49 82 84q57 -48 83 -84q-15 -21 -35.5 -41.5t-33.5 -31.5zM900 153h18q156 3 244 35q-24 43 -71 75.5t-90 32.5q-50 0 -114 -37t-122 -100q25 -6 101 -6h34zM257 -240q-122 0 -176.5 56t-54.5 136q0 54 22 116.5t44 97.5
l21 36l36 -19q-34 -77 -34 -127q0 -142 163 -142q75 0 153 13.5t122 31.5q-16 27 -113 47q-91 21 -125 43q-31 21 -43 49q-11 26 -12 88.5t7 74.5q29 64 118.5 106t169.5 42q53 0 73.5 -24t41.5 -102q23 -79 48 -102q28 51 62 97t75 87.5t88.5 66t93.5 24.5q52 0 98.5 -42
t70 -92t23.5 -85q0 -30 -26 -84h86l16 -3v-147l-16 -3h-49q-28 0 -49.5 12.5t-47.5 44.5q-25 -20 -100 -38.5t-157 -18.5h-34q-59 0 -104.5 15t-73 37.5t-47.5 59.5t-29.5 70.5t-18.5 81.5q-177 -2 -265 -66q10 -11 28.5 -19.5t33.5 -12.5t47 -11t48 -11q71 -18 108.5 -57.5
t37.5 -92.5q0 -19 -23 -82t-29 -68q-34 -27 -117.5 -55.5t-190.5 -28.5z" />
    <glyph glyph-name="aDad.medi_aYeh.fina" unicode="&#xfec0;&#xfef2;" horiz-adv-x="1289" 
d="M1016 533q-22 16 -42.5 36.5t-29.5 32.5l-10 13q41 50 82 84q57 -48 82 -84q-14 -20 -34.5 -40.5t-33.5 -30.5zM900 153h18q156 3 244 35q-24 43 -71 75.5t-90 32.5q-50 0 -114 -37t-122 -100q25 -6 101 -6h34zM257 -240q-122 0 -176.5 56t-54.5 136q0 54 22 116.5
t44 97.5l21 36l36 -19q-34 -77 -34 -127q0 -142 163 -142q75 0 153 13.5t122 31.5q-16 27 -113 47q-91 21 -125 43q-31 21 -43 49q-11 26 -12 88.5t7 74.5q29 64 118.5 106t169.5 42q53 0 73.5 -24t41.5 -102q23 -79 48 -102q28 51 62 97t75 87.5t88.5 66t93.5 24.5
q52 0 98.5 -42t70 -92t23.5 -85q0 -30 -26 -84h86l16 -3v-147l-16 -3h-49q-28 0 -49.5 12.5t-47.5 44.5q-25 -20 -100 -38.5t-157 -18.5h-34q-59 0 -104.5 15t-73 37.5t-47.5 59.5t-29.5 70.5t-18.5 81.5q-177 -2 -265 -66q10 -11 28.5 -19.5t33.5 -12.5t47 -11t48 -11
q71 -18 108.5 -57.5t37.5 -92.5q0 -19 -23 -82t-29 -68q-34 -27 -117.5 -55.5t-190.5 -28.5zM450 -386q-14 -20 -34 -40t-34 -30l-13 -11q-32 23 -69 65q-14 -17 -31 -33t-27 -24l-11 -8q-22 16 -42.5 36.5t-29.5 32.5l-9 12q40 49 81 83q42 -35 70 -68q40 45 68 68
q57 -47 81 -83z" />
    <glyph glyph-name="aDad.medi_aYehHamza.fina" unicode="&#xfec0;&#xfe8a;" horiz-adv-x="1289" 
d="M1017 533q-22 16 -42 36.5t-29 32.5l-10 13q40 50 81 84q57 -48 83 -84q-14 -20 -35 -40.5t-35 -30.5zM222 310q-10 -5 -62 -18t-64 -13q-6 0 -28.5 17.5t-42.5 35.5l-20 17l6 27q52 0 63 2v1q-18 10 -18 42q0 41 28 82.5t71 41.5q29 0 47 -27.5t22 -55.5l3 -27l-23 -6
q-16 16 -37 16q-32 0 -74 -22q15 -34 63 -34q41 0 96 21l5 -7zM900 153h18q156 3 244 35q-24 43 -71 75.5t-90 32.5q-50 0 -114 -37t-122 -100q25 -6 101 -6h34zM257 -240q-122 0 -176.5 56t-54.5 136q0 54 22 116.5t44 97.5l21 36l36 -19q-34 -77 -34 -127q0 -142 163 -142
q75 0 153 13.5t122 31.5q-16 27 -113 47q-91 21 -125 43q-31 21 -43 49q-11 26 -12 88.5t7 74.5q29 64 118.5 106t169.5 42q53 0 73.5 -24t41.5 -102q23 -79 48 -102q28 51 62 97t75 87.5t88.5 66t93.5 24.5q52 0 98.5 -42t70 -92t23.5 -85q0 -30 -26 -84h86l16 -3v-147
l-16 -3h-49q-28 0 -49.5 12.5t-47.5 44.5q-25 -20 -100 -38.5t-157 -18.5h-34q-59 0 -104.5 15t-73 37.5t-47.5 59.5t-29.5 70.5t-18.5 81.5q-177 -2 -265 -66q10 -11 28.5 -19.5t33.5 -12.5t47 -11t48 -11q71 -18 108.5 -57.5t37.5 -92.5q0 -19 -23 -82t-29 -68
q-34 -27 -117.5 -55.5t-190.5 -28.5z" />
    <glyph glyph-name="aFeh.init_aYeh.fina" unicode="&#xfed3;&#xfef2;" horiz-adv-x="770" 
d="M572 626q-22 16 -42 36.5t-30 33.5l-9 12q40 50 81 84q58 -48 83 -84q-14 -21 -35 -41.5t-34 -30.5zM538 326q51 0 90 10q-17 42 -41 67t-52 25q-27 0 -53 -25.5t-41 -64.5q36 -12 97 -12zM254 -250q-51 0 -91 12t-65.5 31.5t-42 46t-23.5 53.5t-7 56q0 54 21.5 114.5
t43.5 94.5l22 34l36 -18q-34 -71 -34 -122q0 -138 162 -138q77 0 154 16.5t122 39.5q-25 30 -106 30h-56l-4 10l41 130l9 5h74q89 0 143 6q5 18 5 34q0 50 -11 91l-24 -60q-8 -5 -38.5 -11.5t-57.5 -6.5q-13 0 -24 1t-20 4t-15.5 5t-12.5 6l-9 6t-8 6l-4 3q-10 9 -26.5 65
t-14.5 70q3 24 15.5 57.5t33 69t54 59.5t71.5 24q48 0 87 -49t60 -125.5t21 -161.5q0 -39 -7 -61q-10 -32 -45 -92t-42 -61q-8 -5 -33 -11v-10q0 -21 -23 -88.5t-30 -72.5q-22 -17 -54.5 -34.5t-103 -37.5t-143.5 -20zM449 -389q-14 -20 -34.5 -40.5t-34.5 -30.5l-13 -11
q-42 32 -68 66q-14 -17 -31.5 -33.5t-27.5 -24.5l-11 -8q-22 16 -42 36.5t-29 32.5l-9 13q39 49 80 83q43 -35 70 -68q32 36 68 68q58 -47 82 -83z" />
    <glyph glyph-name="aKaf.init_aAlifMaksura.fina" unicode="&#xfedb;&#xfef0;" horiz-adv-x="935" 
d="M253 -250q-121 0 -175.5 56.5t-54.5 136.5q0 54 21.5 116t43.5 97l22 36l36 -18q-34 -77 -34 -127q0 -133 162 -133q73 0 147 15t122 37q-41 34 -124 34h-47l-4 10l41 137l7 6h200q128 0 190 6q-53 62 -186 135l-15 -18l-102 62q-7 6 21.5 89.5t41.5 89.5l336 195l19 -20
l-31 -135l-243 -114q235 -125 235 -243q0 -16 -38 -90t-51 -84q-32 -25 -187 -28q-3 -24 -25 -87.5t-28 -68.5q-22 -17 -54.5 -34.5t-102.5 -37.5t-143 -20z" />
    <glyph glyph-name="aKaf.init_aYeh.fina" unicode="&#xfedb;&#xfef2;" horiz-adv-x="935" 
d="M254 -250q-121 0 -175.5 56.5t-54.5 136.5q0 54 22 116t44 97l21 36l36 -18q-34 -77 -34 -127q0 -133 162 -133q73 0 147 15t122 37q-41 34 -124 34h-47l-4 10l41 137l7 6h200q128 0 190 6q-53 62 -186 135l-15 -18l-102 62q-7 6 21.5 89.5t41.5 89.5l336 195l19 -20
l-31 -135l-243 -114q235 -125 235 -243q0 -16 -38 -90t-51 -84q-32 -25 -187 -28q-3 -24 -25 -87.5t-28 -68.5q-22 -17 -54.5 -34.5t-102.5 -37.5t-143 -20zM447 -389q-14 -20 -34.5 -40.5t-34.5 -30.5l-13 -11q-37 28 -68 66q-14 -17 -31.5 -33.5t-27.5 -24.5l-11 -8
q-22 16 -42 36.5t-29 32.5l-9 13q40 48 80 83q43 -35 70 -68q32 36 68 68q58 -47 82 -83z" />
    <glyph glyph-name="aKaf.init_aYehHamza.fina" unicode="&#xfedb;&#xfe8a;" horiz-adv-x="935" 
d="M220 301q-10 -5 -62 -18t-64 -13q-6 0 -28.5 17.5t-42.5 34.5l-20 18l6 27q52 0 63 2v1q-18 10 -18 42q0 41 28 82.5t71 41.5q29 0 47 -27.5t22 -54.5l3 -28l-23 -6q-16 16 -37 16q-32 0 -74 -22q15 -34 63 -34q41 0 96 21l5 -7zM254 -250q-121 0 -175.5 56.5
t-54.5 136.5q0 54 22 116t44 97l21 36l36 -18q-34 -77 -34 -127q0 -133 162 -133q73 0 147 15t122 37q-41 34 -124 34h-47l-4 10l41 137l7 6h200q128 0 190 6q-53 62 -186 135l-15 -18l-102 62q-7 6 21.5 89.5t41.5 89.5l336 195l19 -20l-31 -135l-243 -114
q235 -125 235 -243q0 -16 -38 -90t-51 -84q-32 -25 -187 -28q-3 -24 -25 -87.5t-28 -68.5q-22 -17 -54.5 -34.5t-102.5 -37.5t-143 -20z" />
    <glyph glyph-name="aKaf.medi_aAlifMaksura.fina" unicode="&#xfedc;&#xfef0;" horiz-adv-x="989" 
d="M254 -250q-120 0 -174.5 56.5t-54.5 136.5q0 54 21.5 116t43.5 97l22 36l36 -18q-34 -77 -34 -127q0 -133 162 -133q73 0 147 15t121 37q-40 34 -123 34h-49l-4 10l41 137l8 6h176q68 0 84 5q-6 38 -47 108q-43 72 -55 97q-4 7 27 83.5t38 78.5l323 187l16 -13l-28 -131
l-255 -121l32 -52t42 -69t18 -31q56 -94 90.5 -118t110.5 -24l16 -3v-147l-16 -3h-22q-80 0 -125.5 32.5t-98.5 126.5q-69 -137 -86 -143q-18 -9 -49 -15q-1 -21 -24 -87.5t-29 -71.5q-24 -17 -55.5 -34.5t-102 -37.5t-143.5 -20z" />
    <glyph glyph-name="aKaf.medi_aYeh.fina" unicode="&#xfedc;&#xfef2;" horiz-adv-x="989" 
d="M254 -250q-120 0 -174.5 56.5t-54.5 136.5q0 54 21.5 116t43.5 97l22 36l36 -18q-34 -77 -34 -127q0 -133 162 -133q73 0 147 15t121 37q-40 34 -123 34h-49l-4 10l41 137l8 6h176q68 0 84 5q-6 38 -47 108q-43 72 -55 97q-4 7 27 83.5t38 78.5l323 187l16 -13l-28 -131
l-255 -121l32 -52t42 -69t18 -31q56 -94 90.5 -118t110.5 -24l16 -3v-147l-16 -3h-22q-80 0 -125.5 32.5t-98.5 126.5q-69 -137 -86 -143q-18 -9 -49 -15q-1 -21 -24 -87.5t-29 -71.5q-24 -17 -55.5 -34.5t-102 -37.5t-143.5 -20zM449 -389q-14 -20 -34.5 -40.5t-34.5 -30.5
l-13 -11q-37 28 -68 66q-14 -17 -31.5 -33.5t-27.5 -24.5l-11 -8q-22 16 -42 36.5t-29 32.5l-9 13q40 48 80 83q43 -35 70 -68q32 36 68 68q58 -47 82 -83z" />
    <glyph glyph-name="aKaf.medi_aYehHamza.fina" unicode="&#xfedc;&#xfe8a;" horiz-adv-x="989" 
d="M222 301q-10 -5 -62 -18t-64 -13q-6 0 -28.5 17.5t-42.5 34.5l-20 18l6 27q52 0 63 2v1q-18 10 -18 42q0 41 28 82.5t71 41.5q29 0 47 -27.5t22 -54.5l3 -28l-23 -6q-16 16 -37 16q-32 0 -74 -22q15 -34 63 -34q41 0 96 21l5 -7zM254 -250q-120 0 -174.5 56.5
t-54.5 136.5q0 54 21.5 116t43.5 97l22 36l36 -18q-34 -77 -34 -127q0 -133 162 -133q73 0 147 15t121 37q-40 34 -123 34h-49l-4 10l41 137l8 6h176q68 0 84 5q-6 38 -47 108q-43 72 -55 97q-4 7 27 83.5t38 78.5l323 187l16 -13l-28 -131l-255 -121l32 -52t42 -69t18 -31
q56 -94 90.5 -118t110.5 -24l16 -3v-147l-16 -3h-22q-80 0 -125.5 32.5t-98.5 126.5q-69 -137 -86 -143q-18 -9 -49 -15q-1 -21 -24 -87.5t-29 -71.5q-24 -17 -55.5 -34.5t-102 -37.5t-143.5 -20z" />
    <glyph glyph-name="aLam.init_aAlifMaksura.fina" unicode="&#xfedf;&#xfef0;" horiz-adv-x="830" 
d="M256 -250q-121 0 -175 56.5t-54 136.5q0 54 21.5 116t43.5 97l21 36l36 -18q-33 -77 -33 -127q0 -133 162 -133q73 0 147 15t121 37q-40 34 -123 34h-50l-4 10l41 137l8 6h92q82 0 115 5l-8 351l-34 94l126 118l36 -18v-58l58 -116l-58 -60v-225q0 -30 -46 -93.5
t-93 -112.5q3 -18 3 -35q0 -21 -23 -88.5t-30 -72.5q-22 -17 -54.5 -34.5t-102.5 -37.5t-143 -20z" />
    <glyph glyph-name="aLam.init_aAlifWasla.fina" unicode="&#xfedf;&#xfb51;" horiz-adv-x="589" 
d="M195 751q63 0 91 6q-27 41 -60 41q-37 0 -84 -44q28 -3 53 -3zM277 678q-10 -6 -40 -13t-63 -7q-68 0 -116 17l-36 -44l-21 10q16 67 20 77q3 5 27 27t30 22q16 -4 23 -6q79 127 140 127q34 0 60.5 -39.5t26.5 -74.5q0 -12 -21.5 -51.5t-29.5 -44.5zM293 0q-138 0 -182 7
l-5 9l30 151q75 39 167 116q-89 62 -152 101l-45 -21l-82 62l33 169l26 10q11 -8 48.5 -36t54 -40.5t49.5 -38t53.5 -42.5t45.5 -39t45 -41l2 15v126l-35 92l123 121l39 -22v-62l54 -112l-59 -60q-6 -100 -64 -161q76 -85 76 -131q0 -24 -35 -86.5t-49 -69.5
q-41 -17 -138 -17zM204 142h115q106 0 128 7q-21 41 -83 90q-73 -54 -160 -97z" />
    <glyph glyph-name="aLam.init_aYeh.fina" unicode="&#xfedf;&#xfef2;" horiz-adv-x="830" 
d="M261 -250q-121 0 -175.5 56.5t-54.5 136.5q0 54 21.5 116t43.5 97l22 36l36 -18q-33 -77 -33 -127q0 -133 161 -133q73 0 147.5 15t121.5 37q-40 34 -123 34h-50l-4 10l41 137l8 6h92q83 0 115 5l-9 351l-33 94l126 118l36 -18v-58l58 -116l-58 -60v-225q0 -30 -46 -93.5
t-93 -112.5q3 -18 3 -35q0 -21 -23 -88.5t-30 -72.5q-22 -17 -54.5 -34.5t-102.5 -37.5t-143 -20zM451 -389q-14 -20 -34.5 -40.5t-34.5 -30.5l-13 -11q-37 28 -68 66q-14 -17 -31.5 -33.5t-27.5 -24.5l-11 -8q-22 16 -42 36.5t-29 32.5l-9 13q40 48 80 83q43 -35 70 -68
q32 36 68 68q58 -47 82 -83z" />
    <glyph glyph-name="aLam.init_aYehHamza.fina" unicode="&#xfedf;&#xfe8a;" horiz-adv-x="830" 
d="M222 301q-10 -5 -62 -18t-64 -13q-6 0 -28.5 17.5t-42.5 34.5l-20 18l6 27q52 0 63 2v1q-18 10 -18 42q0 41 28 82.5t71 41.5q29 0 47 -27.5t22 -54.5l3 -28l-23 -6q-16 16 -37 16q-32 0 -74 -22q15 -34 63 -34q41 0 96 21l5 -7zM263 -250q-121 0 -175.5 56.5
t-54.5 136.5q0 54 21.5 116t43.5 97l22 36l36 -18q-34 -77 -34 -127q0 -133 162 -133q73 0 147 15t122 37q-40 34 -124 34h-50l-4 10l41 137l9 6h92q83 0 115 5l-9 351l-33 94l126 118l36 -18v-58l57 -116l-57 -60v-225q0 -30 -46.5 -94t-93.5 -112q4 -16 4 -35
q0 -21 -23 -88.5t-30 -72.5q-22 -17 -54.5 -34.5t-102.5 -37.5t-143 -20z" />
    <glyph glyph-name="aLam.medi_aAlifMaksura.fina" unicode="&#xfee0;&#xfef0;" horiz-adv-x="838" 
d="M253 -250q-120 0 -174.5 56.5t-54.5 136.5q0 54 22 116t44 97l21 36l36 -18q-34 -77 -34 -127q0 -133 162 -133q73 0 147 15t121 37q-40 34 -123 34h-47l-4 10l40 137l9 6h104q57 0 99 7l-28 466l129 95h26v-463q0 -76 12.5 -90.5t77.5 -14.5l16 -3v-147l-16 -3
q-61 0 -107 38t-63 109q-51 -91 -71 -118q10 -15 10 -26q0 -21 -23 -88.5t-30 -72.5q-24 -17 -55.5 -34.5t-102 -37.5t-143.5 -20z" />
    <glyph glyph-name="aLam.medi_aAlifWasla.fina" unicode="&#xfee0;&#xfb51;" horiz-adv-x="616" 
d="M190 737q57 0 91 6q-26 41 -60 41q-37 0 -83 -43q24 -4 52 -4zM272 665q-10 -6 -40 -13t-63 -7q-67 0 -116 17l-36 -44l-21 9q16 68 20 78q3 4 27 26t30 22q4 -1 12 -2.5t12 -2.5q78 127 139 127q34 0 60.5 -40t26.5 -75q0 -12 -21.5 -51t-29.5 -44zM632 3l-16 -3
q-67 0 -115 41t-66 114q-43 -96 -47 -98q-13 -17 -72.5 -37t-104.5 -20q-21 0 -68 23t-83 47l-37 23l9 44q157 0 261 22q-14 56 -47.5 112t-70.5 91l-48 -17l-78 65l55 180h26q91 -84 148.5 -157t74.5 -151l-30 -117q62 17 93 35l-14 440l98 81h35v-463q0 -71 6 -84
q9 -19 53 -21h22l16 -3v-147z" />
    <glyph glyph-name="aLam.medi_aYeh.fina" unicode="&#xfee0;&#xfef2;" horiz-adv-x="838" 
d="M253 -250q-120 0 -174.5 56.5t-54.5 136.5q0 54 22 116t44 97l21 36l36 -18q-34 -77 -34 -127q0 -133 162 -133q73 0 147 15t121 37q-40 34 -123 34h-47l-4 10l40 137l9 6h104q57 0 99 7l-28 466l129 95h26v-463q0 -76 12.5 -90.5t77.5 -14.5l16 -3v-147l-16 -3
q-61 0 -107 38t-63 109q-51 -91 -71 -118q10 -15 10 -26q0 -21 -23 -88.5t-30 -72.5q-24 -17 -55.5 -34.5t-102 -37.5t-143.5 -20zM448 -389q-14 -20 -34.5 -40.5t-33.5 -30.5l-14 -11q-37 28 -68 66q-14 -17 -31.5 -33.5t-28.5 -24.5l-10 -8q-22 16 -42 36.5t-29 32.5
l-9 13q40 48 80 83q43 -35 70 -68q32 36 68 68q58 -47 82 -83z" />
    <glyph glyph-name="aLam.medi_aYehHamza.fina" unicode="&#xfee0;&#xfe8a;" horiz-adv-x="838" 
d="M221 299q-9 -5 -62 -18t-64 -13q-6 0 -28.5 17.5t-42.5 34.5l-20 18l6 27q52 0 63 2v1q-18 10 -18 42q0 41 28 82.5t71 41.5q29 0 47 -27.5t21 -54.5l4 -28l-23 -6q-16 16 -37 16q-32 0 -74 -22q15 -34 63 -34q41 0 96 21l5 -7zM253 -250q-120 0 -174.5 56.5t-54.5 136.5
q0 54 22 116t44 97l21 36l36 -18q-34 -77 -34 -127q0 -133 162 -133q73 0 147 15t121 37q-40 34 -123 34h-47l-4 10l40 137l9 6h104q57 0 99 7l-28 466l129 95h26v-463q0 -76 12.5 -90.5t77.5 -14.5l16 -3v-147l-16 -3q-61 0 -107 38t-63 109q-51 -91 -71 -118
q10 -15 10 -26q0 -21 -23 -88.5t-30 -72.5q-24 -17 -55.5 -34.5t-102 -37.5t-143.5 -20z" />
    <glyph glyph-name="aNun.init_aAlifMaksura.fina" unicode="&#xfee7;&#xfef0;" horiz-adv-x="841" 
d="M722 549q-22 16 -42.5 36.5t-29.5 33.5l-10 13q41 49 82 84q57 -48 83 -84q-15 -21 -35.5 -41.5t-33.5 -30.5zM260 -250q-120 0 -174.5 56.5t-54.5 136.5q0 54 21.5 116t43.5 97l22 36l36 -18q-34 -77 -34 -127q0 -133 162 -133q73 0 147 15t122 37q-41 34 -124 34h-29
l-4 10l41 137l9 6h110q101 0 139 6l-56 207l87 94h35l51 -145l-2 -24l-29 -30q5 -47 5 -59q0 -24 -49 -100.5t-69 -85.5q-14 -7 -52 -12v-1q0 -21 -23 -88.5t-30 -72.5q-22 -17 -54.5 -34.5t-103 -37.5t-143.5 -20z" />
    <glyph glyph-name="aNun.init_aYeh.fina" unicode="&#xfee7;&#xfef2;" horiz-adv-x="841" 
d="M722 550q-22 16 -42 36.5t-30 33.5l-9 12q40 50 81 84q58 -48 83 -84q-14 -20 -35 -40.5t-34 -31.5zM260 -250q-120 0 -174.5 56.5t-54.5 136.5q0 54 21.5 116t43.5 97l22 36l36 -18q-34 -77 -34 -127q0 -133 162 -133q73 0 147 15t122 37q-41 34 -124 34h-29l-4 10
l41 137l9 6h110q101 0 139 6l-56 207l87 94h35l51 -145l-2 -24l-29 -30q5 -47 5 -59q0 -24 -49 -100.5t-69 -85.5q-14 -7 -52 -12v-1q0 -21 -23 -88.5t-30 -72.5q-22 -17 -54.5 -34.5t-103 -37.5t-143.5 -20zM450 -389q-14 -20 -34 -40.5t-34 -30.5l-13 -11q-32 24 -69 66
q-14 -17 -31 -33.5t-27 -24.5l-11 -8q-22 16 -42.5 36.5t-29.5 32.5l-9 13q40 49 81 83q42 -35 70 -68q36 41 68 68q57 -47 81 -83z" />
    <glyph glyph-name="aNun.init_aYehHamza.fina" unicode="&#xfee7;&#xfe8a;" horiz-adv-x="841" 
d="M722 549q-22 16 -42.5 36.5t-29.5 33.5l-10 13q41 49 82 84q57 -48 83 -84q-15 -21 -35.5 -41.5t-33.5 -30.5zM260 301q-10 -5 -62 -18t-64 -13q-6 0 -28.5 17.5t-42.5 34.5l-20 18l6 27q52 0 63 2v1q-18 10 -18 42q0 41 28 82.5t71 41.5q29 0 47 -27.5t22 -54.5l3 -28
l-23 -6q-16 16 -37 16q-32 0 -74 -22q15 -34 63 -34q41 0 96 21l5 -7zM261 -250q-121 0 -175.5 56.5t-54.5 136.5q0 54 21.5 116t43.5 97l22 36l36 -18q-34 -77 -34 -127q0 -133 162 -133q73 0 147 15t122 37q-41 34 -124 34h-29l-3 10l40 137l9 6h110q101 0 139 6l-56 207
l87 94h35l51 -145l-2 -24l-29 -30q5 -47 5 -59q0 -24 -49 -100.5t-69 -85.5q-14 -7 -52 -12v-1q0 -21 -23 -88.5t-30 -72.5q-22 -17 -54.5 -34.5t-102.5 -37.5t-143 -20z" />
    <glyph glyph-name="aNun.medi_aNun.fina" unicode="&#xfee8;&#xfee6;" horiz-adv-x="859" 
d="M744 498q-22 16 -42.5 37t-29.5 33l-10 13q41 49 82 84q57 -48 83 -84q-15 -21 -35.5 -41.5t-33.5 -31.5zM300 351q-22 16 -42.5 36.5t-29.5 33.5l-10 13q41 49 82 84q57 -48 83 -84q-15 -21 -35.5 -41.5t-33.5 -30.5zM237 -213q-63 0 -108 16.5t-68.5 46t-33.5 61
t-10 69.5q0 54 21 114t42 93l22 33l36 -18q-32 -78 -32 -128q0 -132 162 -132q90 0 182 34q-14 54 -36 122.5t-37 110.5l-15 42l109 114h35l2.5 -22.5t3 -29t2.5 -20.5q3 -14 6 -19.5t14 -11t32 -5.5q84 0 128 50l65 77h27v-131v-28q-1 -53 6.5 -62.5t51.5 -9.5h9l16 -3
v-147l-16 -3h-9q-67 0 -107.5 39t-51.5 105q-4 23 -6 61q-43 -61 -64 -78q-25 -19 -54 -19l-23 1q3 -45 3 -82q0 -23 -40.5 -94.5t-53.5 -83.5q-24 -24 -86.5 -43t-123.5 -19z" />
    <glyph glyph-name="aNun.medi_aReh.fina" unicode="&#xfee8;&#xfeae;" horiz-adv-x="653" 
d="M538 519q-22 16 -42.5 36.5t-29.5 32.5l-10 13q41 50 82 84q57 -48 82 -84q-14 -20 -34.5 -40.5t-33.5 -30.5zM137 -213q-21 0 -99.5 49.5t-93.5 65.5l19 44q72 -12 97 -12q63 0 117.5 44.5t90.5 107.5l-109 194l90 118h26l29 -96q8 -20 18 -25.5t43 -5.5q85 0 128 49
l66 77h26v-144v-28q-1 -53 6.5 -62.5t52.5 -9.5h9l16 -3v-147l-16 -3h-9q-67 0 -108 39t-52 105q-3 15 -7 73q-18 -27 -26 -37.5t-24 -28.5t-32 -25t-35 -7h-26q-2 -79 -6 -104q-5 -38 -29.5 -89t-69.5 -95t-92 -44z" />
    <glyph glyph-name="aSad.init_aAlifMaksura.fina" unicode="&#xfebb;&#xfef0;" horiz-adv-x="1264" 
d="M900 153h18q156 3 244 35q-24 43 -71 75.5t-90 32.5q-50 0 -114 -37t-122 -100q25 -6 101 -6h34zM257 -240q-122 0 -176.5 56t-54.5 136q0 54 22 116.5t44 97.5l21 36l36 -19q-34 -77 -34 -127q0 -142 163 -142q75 0 153 13.5t122 31.5q-16 27 -113 47q-91 21 -125 43
q-31 21 -43 49q-11 26 -12 88.5t7 74.5q29 64 118.5 106t169.5 42q53 0 73.5 -24t41.5 -102q23 -79 48 -102q28 51 62 97t75 87.5t88.5 66t93.5 24.5q52 0 98.5 -42t70 -92t23.5 -85q0 -31 -29.5 -90.5t-52.5 -86.5q-19 -20 -97 -40t-164 -20h-34q-59 0 -104.5 15t-73 37.5
t-47.5 59.5t-29.5 70.5t-18.5 81.5q-177 -2 -265 -66q10 -11 28.5 -19.5t33.5 -12.5t47 -11t48 -11q71 -18 108.5 -57.5t37.5 -92.5q0 -19 -23 -82t-29 -68q-34 -27 -117.5 -55.5t-190.5 -28.5z" />
    <glyph glyph-name="aSad.init_aYeh.fina" unicode="&#xfebb;&#xfef2;" horiz-adv-x="1264" 
d="M904 153h18q156 3 244 35q-25 43 -71 75.5t-90 32.5q-50 0 -114 -37t-122 -100q25 -6 101 -6h34zM261 -240q-122 0 -176.5 56t-54.5 136q0 54 22 116.5t44 97.5l21 36l36 -19q-34 -77 -34 -127q0 -142 164 -142q75 0 153 13.5t121 31.5q-16 26 -112 47q-93 21 -128 45
q-29 20 -41 47q-11 26 -12 88.5t7 74.5q29 64 118.5 106t169.5 42q53 0 73.5 -24t42.5 -102q21 -79 47 -102q28 51 62 97t75 87.5t88.5 66t93.5 24.5q52 0 98.5 -42t70 -92t23.5 -85q0 -31 -29 -91t-53 -86q-19 -20 -97 -40t-164 -20h-34q-59 0 -104.5 15t-73 37.5
t-47.5 59.5t-29.5 70.5t-18.5 81.5q-176 -2 -265 -66q10 -11 28.5 -19.5t34 -12.5t47 -11t47.5 -11q71 -18 108.5 -57.5t37.5 -92.5q0 -19 -23 -82t-29 -68q-34 -27 -117.5 -55.5t-190.5 -28.5zM451 -386q-14 -20 -34.5 -40.5t-34.5 -31.5l-13 -10q-37 28 -68 66
q-14 -17 -31.5 -33.5t-27.5 -24.5l-11 -8q-22 16 -42 36.5t-29 33.5l-9 12q40 48 80 83q43 -35 70 -68q32 36 68 68q58 -47 82 -83z" />
    <glyph glyph-name="aSad.init_aYehHamza.fina" unicode="&#xfebb;&#xfe8a;" horiz-adv-x="1264" 
d="M222 310q-10 -5 -62 -18t-64 -13q-6 0 -28.5 17.5t-42.5 35.5l-20 17l6 27q52 0 63 2v1q-18 10 -18 42q0 41 28 82.5t71 41.5q29 0 47 -27.5t22 -55.5l3 -27l-23 -6q-16 16 -37 16q-32 0 -74 -22q15 -34 63 -34q41 0 96 21l5 -7zM871 153h52q156 3 244 35
q-24 43 -71 75.5t-90 32.5q-50 0 -114 -37t-122 -100q25 -6 101 -6zM262 -240q-122 0 -176.5 56t-54.5 136q0 54 21.5 116.5t43.5 97.5l22 36l36 -19q-34 -77 -34 -127q0 -142 163 -142q75 0 153 13.5t122 31.5q-16 27 -113 47q-91 21 -125 43q-31 21 -43 49
q-11 26 -12 88.5t7 74.5q29 64 118.5 106t169.5 42q53 0 73.5 -24t41.5 -102q23 -79 48 -102q28 51 62 97t75 87.5t88.5 66t93.5 24.5q52 0 98.5 -42t70 -92t23.5 -85q0 -31 -29.5 -90.5t-52.5 -86.5q-19 -20 -97 -40t-164 -20h-34q-59 0 -104.5 15t-73 37.5t-47.5 59.5
t-29.5 70.5t-18.5 81.5q-177 -2 -265 -66q10 -11 28.5 -19.5t33.5 -12.5t47 -11t48 -11q71 -18 108.5 -57.5t37.5 -92.5q0 -19 -23 -82t-29 -68q-34 -27 -117.5 -55.5t-190.5 -28.5z" />
    <glyph glyph-name="aSad.medi_aAlifMaksura.fina" unicode="&#xfebc;&#xfef0;" horiz-adv-x="1289" 
d="M900 153h18q156 3 244 35q-24 43 -71 75.5t-90 32.5q-50 0 -114 -37t-122 -100q25 -6 101 -6h34zM257 -240q-122 0 -176.5 56t-54.5 136q0 54 22 116.5t44 97.5l21 36l36 -19q-34 -77 -34 -127q0 -142 163 -142q75 0 153 13.5t122 31.5q-16 27 -113 47q-91 21 -125 43
q-31 21 -43 49q-11 26 -12 88.5t7 74.5q29 64 118.5 106t169.5 42q53 0 73.5 -24t41.5 -102q23 -79 48 -102q28 51 62 97t75 87.5t88.5 66t93.5 24.5q52 0 98.5 -42t70 -92t23.5 -85q0 -30 -26 -84h86l16 -3v-147l-16 -3h-49q-28 0 -49.5 12.5t-47.5 44.5
q-25 -20 -100 -38.5t-157 -18.5h-34q-59 0 -104.5 15t-73 37.5t-47.5 59.5t-29.5 70.5t-18.5 81.5q-177 -2 -265 -66q10 -11 28.5 -19.5t33.5 -12.5t47 -11t48 -11q71 -18 108.5 -57.5t37.5 -92.5q0 -19 -23 -82t-29 -68q-34 -27 -117.5 -55.5t-190.5 -28.5z" />
    <glyph glyph-name="aSad.medi_aYeh.fina" unicode="&#xfebc;&#xfef2;" horiz-adv-x="1289" 
d="M900 153h18q156 3 244 35q-24 43 -71 75.5t-90 32.5q-50 0 -114 -37t-122 -100q25 -6 101 -6h34zM257 -240q-122 0 -176.5 56t-54.5 136q0 54 22 116.5t44 97.5l21 36l36 -19q-34 -77 -34 -127q0 -142 163 -142q75 0 153 13.5t122 31.5q-16 27 -113 47q-91 21 -125 43
q-31 21 -43 49q-11 26 -12 88.5t7 74.5q29 64 118.5 106t169.5 42q53 0 73.5 -24t41.5 -102q23 -79 48 -102q28 51 62 97t75 87.5t88.5 66t93.5 24.5q52 0 98.5 -42t70 -92t23.5 -85q0 -30 -26 -84h86l16 -3v-147l-16 -3h-49q-28 0 -49.5 12.5t-47.5 44.5
q-25 -20 -100 -38.5t-157 -18.5h-34q-59 0 -104.5 15t-73 37.5t-47.5 59.5t-29.5 70.5t-18.5 81.5q-177 -2 -265 -66q10 -11 28.5 -19.5t33.5 -12.5t47 -11t48 -11q71 -18 108.5 -57.5t37.5 -92.5q0 -19 -23 -82t-29 -68q-34 -27 -117.5 -55.5t-190.5 -28.5zM450 -386
q-14 -20 -34 -40t-34 -30l-13 -11q-32 23 -69 65q-14 -17 -31 -33t-27 -24l-11 -8q-22 16 -42.5 36.5t-29.5 32.5l-9 12q40 49 81 83q42 -35 70 -68q40 45 68 68q57 -47 81 -83z" />
    <glyph glyph-name="aSad.medi_aYehHamza.fina" unicode="&#xfebc;&#xfe8a;" horiz-adv-x="1289" 
d="M222 310q-10 -5 -62 -18t-64 -13q-6 0 -28.5 17.5t-42.5 35.5l-20 17l6 27q52 0 63 2v1q-18 10 -18 42q0 41 28 82.5t71 41.5q29 0 47 -27.5t22 -55.5l3 -27l-23 -6q-16 16 -37 16q-32 0 -74 -22q15 -34 63 -34q41 0 96 21l5 -7zM900 153h18q156 3 244 35
q-24 43 -71 75.5t-90 32.5q-50 0 -114 -37t-122 -100q25 -6 101 -6h34zM257 -240q-122 0 -176.5 56t-54.5 136q0 54 22 116.5t44 97.5l21 36l36 -19q-34 -77 -34 -127q0 -142 163 -142q75 0 153 13.5t122 31.5q-16 27 -113 47q-91 21 -125 43q-31 21 -43 49q-11 26 -12 88.5
t7 74.5q29 64 118.5 106t169.5 42q53 0 73.5 -24t41.5 -102q23 -79 48 -102q28 51 62 97t75 87.5t88.5 66t93.5 24.5q52 0 98.5 -42t70 -92t23.5 -85q0 -30 -26 -84h86l16 -3v-147l-16 -3h-49q-28 0 -49.5 12.5t-47.5 44.5q-25 -20 -100 -38.5t-157 -18.5h-34
q-59 0 -104.5 15t-73 37.5t-47.5 59.5t-29.5 70.5t-18.5 81.5q-177 -2 -265 -66q10 -11 28.5 -19.5t33.5 -12.5t47 -11t48 -11q71 -18 108.5 -57.5t37.5 -92.5q0 -19 -23 -82t-29 -68q-34 -27 -117.5 -55.5t-190.5 -28.5z" />
    <glyph glyph-name="aShin.init_aAlifMaksura.fina" unicode="&#xfeb7;&#xfef0;" horiz-adv-x="1266" 
d="M923 555q-20 15 -38.5 34.5t-26.5 31.5l-9 12q37 44 74 76q54 -43 77 -76q-13 -20 -32.5 -39.5t-31.5 -29.5zM988 423q-30 22 -64 61q-13 -16 -30 -31t-27 -23l-10 -7q-20 15 -38.5 34t-26.5 30l-9 11q37 47 74 79l67 -67q36 36 64 67q54 -45 76 -79q-13 -18 -32 -37
t-32 -29zM263 -240q-122 0 -176.5 56t-54.5 136q0 54 22 116.5t44 97.5l21 36l36 -19q-34 -77 -34 -127q0 -23 5.5 -43.5t20.5 -45t50.5 -39t87.5 -14.5q75 0 153 13.5t121 31.5q-16 27 -112 47q-92 21 -126 44q-31 20 -43 48q-11 26 -11.5 88t6.5 75q29 63 127 105.5
t180 42.5q51 0 74 -25.5t41 -100.5q19 -79 42 -104.5t66 -25.5q22 0 33 1l51 148l72 46l27 -13q-3 -45 -19 -159q75 -44 161 -63l-41 217l105 84h34q8 -209 8 -254q0 -25 -59 -100.5t-83 -75.5q-27 0 -87 26.5t-116 70.5q-23 -49 -50 -65t-70 -16q-31 0 -55.5 14.5t-41 37
t-30.5 59.5t-22 71t-17 82q-191 -2 -282 -66q10 -11 28 -19.5t33 -12.5t47 -11t48 -11q71 -18 108.5 -57.5t37.5 -92.5q0 -19 -23 -82t-29 -68q-34 -27 -117.5 -55.5t-190.5 -28.5z" />
    <glyph glyph-name="aShin.init_aYeh.fina" unicode="&#xfeb7;&#xfef2;" horiz-adv-x="1266" 
d="M923 555q-20 15 -38.5 34.5t-26.5 31.5l-9 12q37 44 74 76q54 -43 77 -76q-13 -20 -32.5 -39.5t-31.5 -29.5zM988 423q-30 22 -64 61q-13 -16 -30 -31t-27 -23l-10 -7q-20 15 -38.5 34t-26.5 30l-9 11q37 47 74 79l67 -67q36 36 64 67q54 -45 76 -79q-13 -18 -32 -37
t-32 -29zM263 -240q-122 0 -176.5 56t-54.5 136q0 54 22 116.5t44 97.5l21 36l36 -19q-34 -77 -34 -127q0 -23 5.5 -43.5t20.5 -45t50.5 -39t87.5 -14.5q75 0 153 13.5t121 31.5q-16 27 -112 47q-92 21 -126 44q-31 20 -43 48q-11 26 -11.5 88t6.5 75q29 63 127 105.5
t180 42.5q51 0 74 -25.5t41 -100.5q19 -79 42 -104.5t66 -25.5q22 0 33 1l51 148l72 46l27 -13q-3 -45 -19 -159q75 -44 161 -63l-41 217l105 84h34q8 -209 8 -254q0 -25 -59 -100.5t-83 -75.5q-27 0 -87 26.5t-116 70.5q-23 -49 -50 -65t-70 -16q-31 0 -55.5 14.5t-41 37
t-30.5 59.5t-22 71t-17 82q-191 -2 -282 -66q10 -11 28 -19.5t33 -12.5t47 -11t48 -11q71 -18 108.5 -57.5t37.5 -92.5q0 -19 -23 -82t-29 -68q-34 -27 -117.5 -55.5t-190.5 -28.5zM452 -386q-14 -20 -34.5 -40.5t-33.5 -31.5l-14 -10q-37 28 -68 66q-14 -17 -31.5 -33.5
t-28.5 -24.5l-10 -8q-22 16 -42 36.5t-29 33.5l-9 12q40 48 80 83q43 -35 70 -68q32 36 68 68q58 -47 82 -83z" />
    <glyph glyph-name="aShin.init_aYehHamza.fina" unicode="&#xfeb7;&#xfe8a;" horiz-adv-x="1266" 
d="M924 555q-20 15 -38.5 34.5t-27.5 31.5l-8 12q37 43 74 76q53 -43 77 -76q-13 -20 -32.5 -39.5t-32.5 -29.5zM1065 498q-13 -18 -32 -37t-31 -29l-13 -9q-40 29 -64 61q-13 -16 -30 -31t-27 -23l-10 -7q-20 15 -38.5 34t-27.5 30l-8 11q37 47 74 79l67 -67q35 36 64 67
q54 -45 76 -79zM223 310q-9 -5 -62 -18t-64 -13q-6 0 -28.5 17.5t-42.5 35.5l-20 17l7 27q51 0 62 2v1q-18 10 -18 43q0 41 28.5 82t71.5 41q28 0 46 -27.5t21 -55.5l4 -27l-23 -6q-16 16 -37 16q-32 0 -74 -22q16 -34 64 -34q40 0 95 21l5 -7zM264 -240q-122 0 -176.5 56
t-54.5 136q0 54 21.5 116.5t43.5 97.5l22 36l36 -19q-34 -77 -34 -127q0 -142 163 -142q75 0 153 13.5t122 31.5q-16 27 -113 47q-91 21 -125 43q-31 21 -43 49q-11 26 -12 88.5t7 74.5q29 63 126.5 105.5t179.5 42.5q51 0 74.5 -25.5t41.5 -100.5q20 -79 42.5 -104.5
t65.5 -25.5q22 0 32 1l52 148l72 46l26 -13q-2 -27 -18 -159q75 -44 161 -63l-41 217l104 84h35q8 -209 8 -254q0 -25 -59.5 -100.5t-83.5 -75.5q-26 0 -86 26.5t-117 70.5q-23 -49 -49.5 -65t-69.5 -16q-38 0 -66.5 20t-47.5 61t-30 81t-22 102q-191 -2 -283 -66
q10 -11 28.5 -19.5t34 -12.5t47 -11t47.5 -11q71 -18 108.5 -57.5t37.5 -92.5q0 -19 -23 -82t-29 -68q-34 -27 -117.5 -55.5t-190.5 -28.5z" />
    <glyph glyph-name="aShin.medi_aAlifMaksura.fina" unicode="&#xfeb8;&#xfef0;" horiz-adv-x="1293" 
d="M922 556q-20 15 -38.5 34.5t-27.5 31.5l-8 12q37 44 74 76q54 -43 77 -76q-13 -20 -32.5 -39.5t-32.5 -28.5zM987 424q-30 22 -64 61q-13 -16 -30 -31t-27 -22l-10 -8q-20 15 -38.5 34t-27.5 30l-8 11q37 47 74 79l67 -67q35 35 64 67q54 -45 76 -79q-13 -18 -32 -37
t-31 -28zM257 -240q-122 0 -176.5 56t-54.5 136q0 54 22 116.5t44 97.5l21 36l36 -19q-34 -77 -34 -127q0 -142 164 -142q75 0 153 13.5t121 31.5q-16 26 -112 47q-93 21 -128 45q-29 20 -41 47q-11 26 -12 88.5t7 74.5q29 63 126.5 105.5t179.5 42.5q51 0 74.5 -25.5
t41.5 -100.5q20 -79 42.5 -104.5t65.5 -25.5q22 0 32 1l52 148l72 46l26 -13q-3 -52 -20 -176q26 -6 80 -6q32 0 66 4l-22 145l103 80h34v-180q0 -32 9 -40.5t50 -8.5h14l16 -3v-147l-16 -3h-14q-48 0 -80 19.5t-58 72.5q-24 -55 -52 -73.5t-73 -18.5q-30 0 -48.5 4t-42 24
t-40.5 58q-23 -52 -50.5 -69t-71.5 -17q-31 0 -55.5 14.5t-41 37t-30.5 59.5t-22 71t-17 82q-191 -2 -283 -66q10 -11 28.5 -19.5t34 -12.5t47 -11t47.5 -11q71 -18 108.5 -57.5t37.5 -92.5q0 -19 -23 -82t-29 -68q-34 -27 -117.5 -55.5t-190.5 -28.5z" />
    <glyph glyph-name="aShin.medi_aYeh.fina" unicode="&#xfeb8;&#xfef2;" horiz-adv-x="1293" 
d="M922 556q-20 15 -38.5 34.5t-27.5 31.5l-8 11q37 44 74 76q54 -42 77 -76q-13 -19 -32.5 -38.5t-32.5 -28.5zM1063 499q-13 -18 -32 -37t-31 -28l-13 -10q-32 23 -64 60q-13 -15 -30 -30t-27 -22l-10 -8q-20 15 -38.5 34t-27.5 30l-8 11q37 47 74 79q48 -49 67 -67
q35 35 64 67q54 -45 76 -79zM257 -240q-122 0 -176.5 56t-54.5 136q0 54 22 116.5t44 97.5l21 36l36 -19q-34 -77 -34 -127q0 -142 164 -142q75 0 153 13.5t121 31.5q-16 26 -112 47q-93 21 -128 45q-29 20 -41 47q-11 26 -12 88.5t7 74.5q29 63 126.5 105.5t179.5 42.5
q51 0 74.5 -25.5t41.5 -100.5q20 -79 42.5 -104.5t65.5 -25.5q22 0 32 1l52 148l72 46l26 -13q-3 -52 -20 -176q26 -6 80 -6q32 0 66 4l-22 145l103 80h34v-180q0 -32 9 -40.5t50 -8.5h14l16 -3v-147l-16 -3h-14q-48 0 -80 19.5t-58 72.5q-24 -55 -52 -73.5t-73 -18.5
q-30 0 -48.5 4t-42 24t-40.5 58q-23 -52 -50.5 -69t-71.5 -17q-31 0 -55.5 14.5t-41 37t-30.5 59.5t-22 71t-17 82q-191 -2 -283 -66q10 -11 28.5 -19.5t34 -12.5t47 -11t47.5 -11q71 -18 108.5 -57.5t37.5 -92.5q0 -19 -23 -82t-29 -68q-34 -27 -117.5 -55.5t-190.5 -28.5z
M452 -386q-14 -20 -34.5 -40t-33.5 -30l-14 -11q-32 23 -69 65q-14 -17 -31 -33t-28 -24l-10 -8q-22 16 -42.5 36.5t-29.5 32.5l-9 12q40 49 81 83q42 -35 70 -68q40 45 68 68q57 -47 82 -83z" />
    <glyph glyph-name="aShin.medi_aYehHamza.fina" unicode="&#xfeb8;&#xfe8a;" horiz-adv-x="1293" 
d="M923 555q-20 15 -38.5 34.5t-26.5 31.5l-9 12q37 44 74 76q54 -43 77 -76q-13 -20 -32.5 -39.5t-31.5 -29.5zM988 423q-30 22 -64 61q-13 -16 -30 -31t-27 -23l-10 -7q-20 15 -38.5 34t-26.5 30l-9 11q37 47 74 79l67 -67q36 36 64 67q54 -45 76 -79q-13 -18 -32 -37
t-32 -29zM222 310q-10 -5 -62 -18t-64 -13q-6 0 -28.5 17.5t-42.5 35.5l-20 17l6 27q52 0 63 2v1q-18 10 -18 42q0 41 28 82.5t71 41.5q29 0 47 -27.5t22 -55.5l3 -27l-23 -6q-16 16 -37 16q-32 0 -74 -22q15 -34 63 -34q41 0 96 21l5 -7zM257 -240q-122 0 -176.5 56
t-54.5 136q0 54 22 116.5t44 97.5l21 36l36 -19q-34 -77 -34 -127q0 -142 164 -142q75 0 153 13.5t121 31.5q-16 26 -112 47q-93 21 -128 45q-29 20 -41 47q-11 26 -12 88.5t7 74.5q29 63 126.5 105.5t179.5 42.5q51 0 74.5 -25.5t41.5 -100.5q20 -79 42.5 -104.5
t65.5 -25.5q22 0 32 1l52 148l72 46l26 -13q-3 -52 -20 -176q26 -6 80 -6q32 0 66 4l-22 145l103 80h34v-180q0 -32 9 -40.5t50 -8.5h14l16 -3v-147l-16 -3h-14q-48 0 -80 19.5t-58 72.5q-24 -55 -52 -73.5t-73 -18.5q-30 0 -48.5 4t-42 24t-40.5 58q-23 -52 -50.5 -69
t-71.5 -17q-31 0 -55.5 14.5t-41 37t-30.5 59.5t-22 71t-17 82q-191 -2 -283 -66q10 -11 28.5 -19.5t34 -12.5t47 -11t47.5 -11q71 -18 108.5 -57.5t37.5 -92.5q0 -19 -23 -82t-29 -68q-34 -27 -117.5 -55.5t-190.5 -28.5z" />
    <glyph glyph-name="aSin.init_aAlifMaksura.fina" unicode="&#xfeb3;&#xfef0;" horiz-adv-x="1266" 
d="M258 -240q-122 0 -176.5 56t-54.5 136q0 54 21.5 116.5t43.5 97.5l22 36l36 -19q-34 -77 -34 -127q0 -142 164 -142q75 0 153 13.5t121 31.5q-16 26 -112 47q-93 21 -128 45q-29 20 -41 47q-11 26 -12 88.5t7 74.5q29 63 126.5 105.5t179.5 42.5q51 0 74.5 -25.5
t41.5 -100.5q20 -79 42.5 -104.5t65.5 -25.5q22 0 32 1l52 148l72 46l26 -13q-1 -40 -18 -159q75 -44 161 -63l-41 217l104 84h35q8 -209 8 -254q0 -25 -59.5 -100.5t-83.5 -75.5q-26 0 -86 26.5t-117 70.5q-22 -49 -48.5 -65t-70.5 -16q-31 0 -55.5 14.5t-41 37t-30.5 59.5
t-22 71t-17 82q-191 -2 -283 -66q10 -11 28.5 -19.5t34 -12.5t47 -11t47.5 -11q71 -18 108.5 -57.5t37.5 -92.5q0 -19 -23 -82t-29 -68q-34 -27 -117.5 -55.5t-190.5 -28.5z" />
    <glyph glyph-name="aSin.init_aYeh.fina" unicode="&#xfeb3;&#xfef2;" horiz-adv-x="1266" 
d="M263 -240q-122 0 -176.5 56t-54.5 136q0 54 22 116.5t44 97.5l21 36l36 -19q-34 -77 -34 -127q0 -23 5.5 -43.5t20.5 -45t50.5 -39t87.5 -14.5q75 0 153 13.5t121 31.5q-16 27 -112 47q-92 21 -126 44q-31 20 -43 48q-11 26 -11.5 88t6.5 75q29 63 127 105.5t180 42.5
q51 0 74 -25.5t41 -100.5q19 -79 42 -104.5t66 -25.5q22 0 33 1l51 148l72 46l27 -13q-3 -45 -19 -159q75 -44 161 -63l-41 217l105 84h34q8 -209 8 -254q0 -25 -59 -100.5t-83 -75.5q-27 0 -87 26.5t-116 70.5q-23 -49 -50 -65t-70 -16q-31 0 -55.5 14.5t-41 37t-30.5 59.5
t-22 71t-17 82q-191 -2 -282 -66q10 -11 28 -19.5t33 -12.5t47 -11t48 -11q71 -18 108.5 -57.5t37.5 -92.5q0 -19 -23 -82t-29 -68q-34 -27 -117.5 -55.5t-190.5 -28.5zM452 -386q-14 -20 -34.5 -40.5t-33.5 -31.5l-14 -10q-37 28 -68 66q-14 -17 -31.5 -33.5t-28.5 -24.5
l-10 -8q-22 16 -42 36.5t-29 33.5l-9 12q40 48 80 83q43 -35 70 -68q32 36 68 68q58 -47 82 -83z" />
    <glyph glyph-name="aSin.init_aYehHamza.fina" unicode="&#xfeb3;&#xfe8a;" horiz-adv-x="1266" 
d="M223 310q-9 -5 -62 -18t-64 -13q-6 0 -28.5 17.5t-42.5 35.5l-20 17l6 27q52 0 63 2v1q-18 10 -18 42q0 41 28 82.5t71 41.5q29 0 47 -27.5t21 -55.5l4 -27l-23 -6q-16 16 -37 16q-32 0 -74 -22q15 -34 63 -34q41 0 96 21l5 -7zM264 -240q-122 0 -176.5 56t-54.5 136
q0 54 21.5 116.5t43.5 97.5l22 36l36 -19q-34 -77 -34 -127q0 -142 163 -142q75 0 153 13.5t122 31.5q-16 27 -113 47q-91 21 -125 43q-31 21 -43 49q-11 26 -12 88.5t7 74.5q29 63 126.5 105.5t179.5 42.5q51 0 74.5 -25.5t41.5 -100.5q20 -79 42.5 -104.5t65.5 -25.5
q22 0 32 1l52 148l72 46l26 -13q-2 -27 -18 -159q75 -44 161 -63l-41 217l104 84h35q8 -209 8 -254q0 -25 -59.5 -100.5t-83.5 -75.5q-26 0 -86 26.5t-117 70.5q-23 -49 -49.5 -65t-69.5 -16q-38 0 -66.5 20t-47.5 61t-30 81t-22 102q-191 -2 -283 -66q10 -11 28.5 -19.5
t34 -12.5t47 -11t47.5 -11q71 -18 108.5 -57.5t37.5 -92.5q0 -19 -23 -82t-29 -68q-34 -27 -117.5 -55.5t-190.5 -28.5z" />
    <glyph glyph-name="aSin.medi_aAlifMaksura.fina" unicode="&#xfeb4;&#xfef0;" horiz-adv-x="1293" 
d="M257 -240q-122 0 -176.5 56t-54.5 136q0 54 22 116.5t44 97.5l21 36l36 -19q-34 -77 -34 -127q0 -142 164 -142q75 0 153 13.5t121 31.5q-16 26 -112 47q-93 21 -128 45q-29 20 -41 47q-11 26 -12 88.5t7 74.5q29 63 126.5 105.5t179.5 42.5q51 0 74.5 -25.5t41.5 -100.5
q20 -79 42.5 -104.5t65.5 -25.5q22 0 32 1l52 148l72 46l26 -13q-3 -52 -20 -176q26 -6 80 -6q32 0 66 4l-22 145l103 80h34v-180q0 -32 9 -40.5t50 -8.5h14l16 -3v-147l-16 -3h-14q-48 0 -80 19.5t-58 72.5q-24 -55 -52 -73.5t-73 -18.5q-30 0 -48.5 4t-42 24t-40.5 58
q-23 -52 -50.5 -69t-71.5 -17q-31 0 -55.5 14.5t-41 37t-30.5 59.5t-22 71t-17 82q-191 -2 -283 -66q10 -11 28.5 -19.5t34 -12.5t47 -11t47.5 -11q71 -18 108.5 -57.5t37.5 -92.5q0 -19 -23 -82t-29 -68q-34 -27 -117.5 -55.5t-190.5 -28.5z" />
    <glyph glyph-name="aSin.medi_aYeh.fina" unicode="&#xfeb4;&#xfef2;" horiz-adv-x="1293" 
d="M257 -240q-122 0 -176.5 56t-54.5 136q0 54 22 116.5t44 97.5l21 36l36 -19q-34 -77 -34 -127q0 -142 164 -142q75 0 153 13.5t121 31.5q-16 26 -112 47q-93 21 -128 45q-29 20 -41 47q-11 26 -12 88.5t7 74.5q29 63 126.5 105.5t179.5 42.5q51 0 74.5 -25.5t41.5 -100.5
q20 -79 42.5 -104.5t65.5 -25.5q22 0 32 1l52 148l72 46l26 -13q-3 -52 -20 -176q26 -6 80 -6q32 0 66 4l-22 145l103 80h34v-180q0 -32 9 -40.5t50 -8.5h14l16 -3v-147l-16 -3h-14q-48 0 -80 19.5t-58 72.5q-24 -55 -52 -73.5t-73 -18.5q-30 0 -48.5 4t-42 24t-40.5 58
q-23 -52 -50.5 -69t-71.5 -17q-31 0 -55.5 14.5t-41 37t-30.5 59.5t-22 71t-17 82q-191 -2 -283 -66q10 -11 28.5 -19.5t34 -12.5t47 -11t47.5 -11q71 -18 108.5 -57.5t37.5 -92.5q0 -19 -23 -82t-29 -68q-34 -27 -117.5 -55.5t-190.5 -28.5zM451 -386q-14 -20 -34.5 -40.5
t-34.5 -31.5l-13 -10q-37 28 -68 66q-14 -17 -31.5 -33.5t-27.5 -24.5l-11 -8q-22 16 -42 36.5t-29 33.5l-9 12q40 48 80 83q43 -35 70 -68q32 36 68 68q58 -47 82 -83z" />
    <glyph glyph-name="aSin.medi_aYehHamza.fina" unicode="&#xfeb4;&#xfe8a;" horiz-adv-x="1293" 
d="M222 310q-10 -5 -62 -18t-64 -13q-6 0 -28.5 17.5t-42.5 35.5l-20 17l7 27q51 0 62 2v1q-18 10 -18 43q0 41 28.5 82t71.5 41q28 0 46 -27.5t22 -55.5l3 -27l-23 -6q-16 16 -37 16q-32 0 -74 -22q16 -34 64 -34q41 0 96 21l5 -7zM257 -240q-122 0 -176.5 56t-54.5 136
q0 54 22 116.5t44 97.5l21 36l36 -19q-34 -77 -34 -127q0 -142 164 -142q75 0 153 13.5t121 31.5q-16 26 -112 47q-93 21 -128 45q-29 20 -41 47q-11 26 -12 88.5t7 74.5q29 63 126.5 105.5t179.5 42.5q51 0 74.5 -25.5t41.5 -100.5q20 -79 42.5 -104.5t65.5 -25.5
q22 0 32 1l52 148l72 46l26 -13q-3 -52 -20 -176q26 -6 80 -6q32 0 66 4l-22 145l103 80h34v-180q0 -32 9 -40.5t50 -8.5h14l16 -3v-147l-16 -3h-14q-48 0 -80 19.5t-58 72.5q-24 -55 -52 -73.5t-73 -18.5q-30 0 -48.5 4t-42 24t-40.5 58q-23 -52 -50.5 -69t-71.5 -17
q-31 0 -55.5 14.5t-41 37t-30.5 59.5t-22 71t-17 82q-191 -2 -283 -66q10 -11 28.5 -19.5t34 -12.5t47 -11t47.5 -11q71 -18 108.5 -57.5t37.5 -92.5q0 -19 -23 -82t-29 -68q-34 -27 -117.5 -55.5t-190.5 -28.5z" />
    <glyph glyph-name="aTeh.init_aAlifMaksura.fina" unicode="&#xfe97;&#xfef0;" horiz-adv-x="841" 
d="M870 631q-14 -20 -34.5 -40.5t-33.5 -30.5l-14 -11q-37 28 -68 66q-14 -17 -31 -33.5t-27 -24.5l-11 -8q-22 16 -42.5 36.5t-29.5 32.5l-9 13q40 48 81 83q42 -35 70 -68q35 40 67 68q58 -47 82 -83zM260 -250q-120 0 -174.5 56.5t-54.5 136.5q0 54 21.5 116t43.5 97
l22 36l36 -18q-34 -77 -34 -127q0 -133 162 -133q73 0 147 15t122 37q-41 34 -124 34h-29l-4 10l41 137l9 6h110q101 0 139 6l-56 207l87 94h35l51 -145l-2 -24l-29 -30q5 -47 5 -59q0 -24 -49 -100.5t-69 -85.5q-14 -7 -52 -12v-1q0 -21 -23 -88.5t-30 -72.5
q-22 -17 -54.5 -34.5t-103 -37.5t-143.5 -20z" />
    <glyph glyph-name="aTeh.init_aYeh.fina" unicode="&#xfe97;&#xfef2;" horiz-adv-x="841" 
d="M870 631q-14 -20 -34.5 -40.5t-33.5 -30.5l-14 -11q-37 28 -68 66q-14 -17 -31.5 -33.5t-28.5 -24.5l-10 -8q-22 16 -42 36.5t-29 32.5l-9 13q40 48 80 83q43 -35 70 -68q32 36 68 68q58 -47 82 -83zM260 -250q-120 0 -174.5 56.5t-54.5 136.5q0 54 21.5 116t43.5 97
l22 36l36 -18q-34 -77 -34 -127q0 -133 162 -133q73 0 147 15t122 37q-41 34 -124 34h-29l-4 10l41 137l9 6h110q101 0 139 6l-56 207l87 94h35l51 -145l-2 -24l-29 -30q5 -47 5 -59q0 -24 -49 -100.5t-69 -85.5q-14 -7 -52 -12v-1q0 -21 -23 -88.5t-30 -72.5
q-22 -17 -54.5 -34.5t-103 -37.5t-143.5 -20zM450 -389q-14 -20 -34.5 -40.5t-33.5 -30.5l-14 -11q-37 28 -68 66q-14 -17 -31.5 -33.5t-28.5 -24.5l-10 -8q-22 16 -42 36.5t-29 32.5l-9 13q40 48 80 83q43 -35 70 -68q32 36 68 68q58 -47 82 -83z" />
    <glyph glyph-name="aTeh.init_aYehHamza.fina" unicode="&#xfe97;&#xfe8a;" horiz-adv-x="841" 
d="M870 631q-14 -20 -34.5 -40.5t-33.5 -30.5l-14 -11q-37 28 -68 66q-14 -17 -31.5 -33.5t-28.5 -24.5l-10 -8q-22 16 -42 36.5t-29 32.5l-9 13q40 48 80 83q43 -35 70 -68q32 36 68 68q58 -47 82 -83zM260 301q-10 -5 -62 -18t-64 -13q-6 0 -28.5 17.5t-42.5 34.5l-20 18
l6 27q52 0 63 2v1q-18 10 -18 42q0 41 28 82.5t71 41.5q29 0 47 -27.5t22 -54.5l3 -28l-23 -6q-16 16 -37 16q-32 0 -74 -22q15 -34 63 -34q41 0 96 21l5 -7zM261 -250q-121 0 -175.5 56.5t-54.5 136.5q0 54 21.5 116t43.5 97l22 36l36 -18q-33 -77 -33 -127
q0 -133 162 -133q73 0 147 15t121 37q-40 34 -123 34h-29l-4 10l41 137l8 6h111q99 0 139 6l-57 207l88 94h35l50 -145l-2 -24l-29 -30q6 -40 5 -59q0 -24 -48.5 -100.5t-69.5 -85.5q-14 -7 -52 -12v-1q0 -21 -23 -88.5t-30 -72.5q-22 -17 -54.5 -34.5t-102.5 -37.5
t-143 -20z" />
    <glyph glyph-name="aTeh.medi_aNun.fina" unicode="&#xfe98;&#xfee6;" horiz-adv-x="859" 
d="M893 578q-14 -20 -34.5 -40.5t-34.5 -31.5l-13 -10q-37 28 -68 66q-14 -17 -31.5 -33.5t-27.5 -24.5l-11 -8q-22 16 -42 36.5t-29 33.5l-9 12q40 48 80 83q43 -35 70 -68q32 36 68 68q58 -47 82 -83zM300 351q-22 16 -42.5 36.5t-29.5 33.5l-10 13q41 49 82 84
q57 -48 83 -84q-15 -21 -35.5 -41.5t-33.5 -30.5zM237 -213q-63 0 -108 16.5t-68.5 46t-33.5 61t-10 69.5q0 54 21 114t42 93l22 33l36 -18q-32 -78 -32 -128q0 -132 162 -132q90 0 182 34q-14 54 -36 122.5t-37 110.5l-15 42l109 114h35l2.5 -22.5t3 -29t2.5 -20.5
q3 -14 6 -19.5t14 -11t32 -5.5q84 0 128 50l65 77h27v-131v-28q-1 -53 6.5 -62.5t51.5 -9.5h9l16 -3v-147l-16 -3h-9q-67 0 -107.5 39t-51.5 105q-4 23 -6 61q-43 -61 -64 -78q-25 -19 -54 -19l-23 1q3 -45 3 -82q0 -23 -40.5 -94.5t-53.5 -83.5q-24 -24 -86.5 -43
t-123.5 -19z" />
    <glyph glyph-name="aTeh.medi_aReh.fina" unicode="&#xfe98;&#xfeae;" horiz-adv-x="653" 
d="M686 598q-14 -20 -34.5 -40.5t-33.5 -31.5l-14 -10q-37 28 -68 66q-14 -17 -31.5 -33.5t-28.5 -24.5l-10 -8q-22 16 -42 36.5t-29 33.5l-9 12q40 48 80 83q43 -35 70 -68q32 36 68 68q58 -47 82 -83zM137 -213q-21 0 -99.5 49.5t-93.5 65.5l19 44q72 -12 97 -12
q63 0 117.5 44.5t90.5 107.5l-109 194l90 118h26l29 -96q8 -20 18 -25.5t43 -5.5q85 0 128 49l66 77h26v-144v-28q-1 -53 6.5 -62.5t52.5 -9.5h9l16 -3v-147l-16 -3h-9q-67 0 -108 39t-52 105q-3 15 -7 73q-18 -27 -26 -37.5t-24 -28.5t-32 -25t-35 -7h-26q-2 -79 -6 -104
q-5 -38 -29.5 -89t-69.5 -95t-92 -44z" />
    <glyph glyph-name="aTheh.init_aAlifMaksura.fina" unicode="&#xfe9b;&#xfef0;" horiz-adv-x="841" 
d="M712 675q-20 15 -38.5 34.5t-27.5 31.5l-8 12q37 44 74 76q54 -43 77 -76q-13 -20 -32.5 -39.5t-32.5 -29.5zM777 543q-30 22 -64 61q-13 -16 -30 -31t-27 -23l-10 -7q-20 15 -38.5 34t-27.5 30l-8 11q37 47 74 79l67 -67q35 36 64 67q54 -45 76 -79q-13 -18 -32 -37
t-31 -29zM260 -250q-121 0 -175.5 56.5t-54.5 136.5q0 54 22 116t44 97l21 36l36 -18q-33 -77 -33 -127q0 -133 162 -133q73 0 147 15t121 37q-40 34 -123 34h-29l-4 10l41 137l8 6h111q99 0 139 6l-57 207l88 94h35l50 -145l-2 -24l-29 -30q6 -40 5 -59q0 -24 -48.5 -100.5
t-69.5 -85.5q-13 -7 -52 -12v-1q0 -21 -23 -88.5t-30 -72.5q-22 -17 -54.5 -34.5t-102.5 -37.5t-143 -20z" />
    <glyph glyph-name="aTheh.init_aYeh.fina" unicode="&#xfe9b;&#xfef2;" horiz-adv-x="841" 
d="M712 675q-20 15 -38.5 34.5t-27.5 31.5l-8 12q37 44 74 76q54 -43 77 -76q-13 -20 -32.5 -39.5t-32.5 -29.5zM777 543q-30 22 -64 61q-13 -16 -30 -31t-27 -23l-10 -7q-20 15 -38.5 34t-27.5 30l-8 11q37 47 74 79l67 -67q35 36 64 67q54 -45 76 -79q-13 -18 -32 -37
t-31 -29zM260 -250q-120 0 -174.5 56.5t-54.5 136.5q0 54 21.5 116t43.5 97l22 36l36 -18q-34 -77 -34 -127q0 -133 162 -133q73 0 147 15t122 37q-41 34 -124 34h-29l-4 10l41 137l9 6h110q101 0 139 6l-56 207l87 94h35l51 -145l-2 -24l-29 -30q5 -47 5 -59
q0 -24 -49 -100.5t-69 -85.5q-14 -7 -52 -12v-1q0 -21 -23 -88.5t-30 -72.5q-22 -17 -54.5 -34.5t-103 -37.5t-143.5 -20zM450 -389q-14 -20 -34 -40.5t-34 -30.5l-13 -11q-32 24 -69 66q-14 -17 -31 -33.5t-27 -24.5l-11 -8q-22 16 -42.5 36.5t-29.5 32.5l-9 13
q40 49 81 83q42 -35 70 -68q36 41 68 68q57 -47 81 -83z" />
    <glyph glyph-name="aTheh.init_aYehHamza.fina" unicode="&#xfe9b;&#xfe8a;" horiz-adv-x="843" 
d="M714 688q-20 15 -38.5 34.5t-27.5 31.5l-8 12q37 44 74 76q54 -43 77 -76q-13 -20 -32.5 -39.5t-32.5 -28.5zM779 556q-30 22 -64 61q-13 -16 -30 -31t-27 -22l-10 -8q-20 15 -38.5 34t-27.5 30l-8 11q37 47 74 79l67 -67q35 35 64 67q54 -45 76 -79q-13 -18 -32 -37
t-31 -28zM260 301q-10 -5 -62 -18t-64 -13q-6 0 -28.5 17.5t-42.5 34.5l-20 18l6 27q52 0 63 2v1q-18 10 -18 42q0 41 28 82.5t71 41.5q29 0 47 -27.5t22 -54.5l3 -28l-23 -6q-16 16 -37 16q-32 0 -74 -22q15 -34 63 -34q41 0 96 21l5 -7zM261 -250q-121 0 -175.5 56.5
t-54.5 136.5q0 54 21.5 116t43.5 97l22 36l36 -18q-34 -77 -34 -127q0 -133 162 -133q73 0 147 15t122 37q-41 34 -124 34h-29l-3 10l40 137l9 6h111q100 0 138 6l-56 207l87 94h35l51 -145l-2 -24l-29 -30q5 -47 5 -59q0 -24 -48.5 -100.5t-69.5 -85.5q-14 -7 -52 -12v-1
q0 -21 -23 -88.5t-30 -72.5q-22 -17 -54.5 -34.5t-102.5 -37.5t-143 -20z" />
    <glyph glyph-name="aTheh.medi_aNun.fina" unicode="&#xfe9c;&#xfee6;" horiz-adv-x="859" 
d="M739 642q-20 15 -38.5 34.5t-26.5 31.5l-9 12q37 44 74 76q54 -43 77 -76q-13 -20 -32.5 -39.5t-31.5 -28.5zM804 510q-30 22 -64 61q-13 -16 -30 -31t-27 -22l-10 -8q-20 15 -38.5 34t-26.5 30l-9 11q37 47 74 79l67 -67q36 35 64 67q54 -45 76 -79q-13 -18 -32 -37
t-32 -28zM300 351q-22 16 -42 36.5t-30 33.5l-9 13q40 49 81 83q58 -47 83 -83q-14 -21 -35 -41.5t-34 -30.5zM237 -213q-63 0 -108 16.5t-68.5 46t-33.5 61t-10 69.5q0 54 21 114t42 93l22 33l36 -18q-32 -78 -32 -128q0 -132 162 -132q90 0 182 34q-14 54 -36 122.5
t-37 110.5l-15 42l109 114h35l2.5 -22.5t3 -29t2.5 -20.5q3 -14 6 -19.5t14 -11t32 -5.5q84 0 128 50l65 77h27v-131v-28q-1 -53 6.5 -62.5t51.5 -9.5h9l16 -3v-147l-16 -3h-9q-67 0 -107.5 39t-51.5 105q-4 23 -6 61q-43 -61 -64 -78q-25 -19 -54 -19l-23 1q3 -45 3 -82
q0 -23 -40.5 -94.5t-53.5 -83.5q-24 -24 -86.5 -43t-123.5 -19z" />
    <glyph glyph-name="aTheh.medi_aReh.fina" unicode="&#xfe9c;&#xfeae;" horiz-adv-x="653" 
d="M532 655q-20 15 -38.5 34.5t-27.5 31.5l-8 12q37 44 74 76q54 -43 77 -76q-13 -20 -32.5 -39.5t-32.5 -29.5zM597 523q-30 22 -64 61q-13 -16 -30 -31t-27 -23l-10 -7q-20 15 -38.5 34t-27.5 30l-8 11q37 47 74 79l67 -67q35 36 64 67q54 -45 76 -79q-13 -18 -32 -37
t-31 -29zM137 -213q-21 0 -99.5 49.5t-93.5 65.5l19 44q72 -12 97 -12q63 0 117.5 44.5t90.5 107.5l-109 194l90 118h26l29 -96q8 -20 18 -25.5t43 -5.5q85 0 128 49l66 77h26v-144v-28q-1 -53 6.5 -62.5t52.5 -9.5h9l16 -3v-147l-16 -3h-9q-67 0 -108 39t-52 105
q-3 15 -7 73q-18 -27 -26 -37.5t-24 -28.5t-32 -25t-35 -7h-26q-2 -79 -6 -104q-5 -38 -29.5 -89t-69.5 -95t-92 -44z" />
    <glyph glyph-name="aYeh.medi_aNun.fina" unicode="&#xfef4;&#xfee6;" horiz-adv-x="859" 
d="M300 351q-22 16 -42.5 36.5t-29.5 33.5l-10 13q41 49 82 84q57 -48 83 -84q-15 -21 -35.5 -41.5t-33.5 -30.5zM237 -213q-63 0 -108 16.5t-68.5 46t-33.5 61t-10 69.5q0 54 21 114t42 93l22 33l36 -18q-32 -78 -32 -128q0 -132 162 -132q90 0 182 34q-14 54 -36 122.5
t-37 110.5l-15 42l109 114h35l2.5 -22.5t3 -29t2.5 -20.5q3 -14 6 -19.5t14 -11t32 -5.5q84 0 128 50l65 77h27v-131v-28q-1 -53 6.5 -62.5t51.5 -9.5h9l16 -3v-147l-16 -3h-9q-67 0 -107.5 39t-51.5 105q-4 23 -6 61q-43 -61 -64 -78q-25 -19 -54 -19l-23 1q3 -45 3 -82
q0 -23 -40.5 -94.5t-53.5 -83.5q-24 -24 -86.5 -43t-123.5 -19zM750 -206q-36 28 -62 60q-12 -16 -28 -31t-26 -22l-9 -7q-20 14 -38.5 32.5t-26.5 29.5l-8 12q37 44 73 75q39 -31 63 -61q34 37 62 61q52 -42 74 -75q-12 -19 -30.5 -37.5t-31.5 -27.5z" />
    <glyph glyph-name="aYeh.medi_aReh.fina" unicode="&#xfef4;&#xfeae;" horiz-adv-x="653" 
d="M137 -213q-21 0 -99.5 49.5t-93.5 65.5l19 44q72 -12 97 -12q63 0 117.5 44.5t90.5 107.5l-109 194l90 118h26l29 -96q8 -20 18 -25.5t43 -5.5q85 0 128 49l66 77h26v-144v-28q-1 -53 6.5 -62.5t52.5 -9.5h9l16 -3v-147l-16 -3h-9q-67 0 -108 39t-52 105q-3 15 -7 73
q-18 -27 -26 -37.5t-24 -28.5t-32 -25t-35 -7h-26q-2 -79 -6 -104q-5 -38 -29.5 -89t-69.5 -95t-92 -44zM543 -206q-38 30 -61 60q-12 -16 -28 -31t-26 -22l-10 -7q-20 14 -38 32.5t-26 29.5l-8 12q36 44 72 75q39 -31 64 -61q22 25 61 61q53 -42 74 -75
q-12 -19 -30.5 -37.5t-30.5 -27.5z" />
    <glyph glyph-name="aYehHamza.init_aYeh.fina" unicode="&#xfe8b;&#xfef2;" horiz-adv-x="841" 
d="M793 544q-9 -5 -62 -18t-64 -13q-6 0 -28.5 17.5t-42.5 35.5l-20 17l6 27q52 0 63 2v1q-18 10 -18 42q0 41 28 82.5t71 41.5q29 0 47 -27.5t21 -55.5l4 -27l-23 -6q-16 16 -37 16q-32 0 -74 -22q15 -34 63 -34q41 0 96 21l5 -7zM260 -250q-121 0 -175.5 56.5t-54.5 136.5
q0 54 22 116t44 97l21 36l36 -18q-33 -77 -33 -127q0 -133 162 -133q73 0 147 15t121 37q-40 34 -123 34h-29l-4 10l41 137l8 6h111q99 0 139 6l-57 207l88 94h35l50 -145l-2 -24l-29 -30q6 -40 5 -59q0 -24 -48.5 -100.5t-69.5 -85.5q-13 -7 -52 -12v-1q0 -21 -23 -88.5
t-30 -72.5q-22 -17 -54.5 -34.5t-102.5 -37.5t-143 -20zM367 -471q-37 28 -68 66q-14 -17 -31.5 -33.5t-27.5 -24.5l-11 -8q-22 16 -42 36.5t-29 32.5l-9 13q40 48 80 83q43 -35 70 -68q32 36 68 68q58 -47 82 -83q-14 -20 -34.5 -40.5t-34.5 -30.5z" />
    <glyph glyph-name="aYehHamza.init_aYehHamza.fina" unicode="&#xfe8b;&#xfe8a;" horiz-adv-x="841" 
d="M793 544q-9 -5 -62 -18t-64 -13q-6 0 -28.5 17.5t-42.5 35.5l-20 17l6 27q52 0 63 2v1q-18 10 -18 42q0 41 28 82.5t71 41.5q29 0 47 -27.5t21 -55.5l4 -27l-23 -6q-16 16 -37 16q-32 0 -74 -22q15 -34 63 -34q41 0 96 21l5 -7zM259 301q-9 -5 -62 -18t-64 -13
q-6 0 -28.5 17.5t-42.5 34.5l-20 18l6 27q52 0 63 2v1q-18 10 -18 42q0 41 28 82.5t71 41.5q29 0 47 -27.5t21 -54.5l4 -28l-23 -6q-16 16 -37 16q-32 0 -74 -22q15 -34 63 -34q41 0 96 21l5 -7zM260 -250q-121 0 -175.5 56.5t-54.5 136.5q0 54 22 116t44 97l21 36l36 -18
q-34 -77 -34 -127q0 -133 162 -133q73 0 147 15t122 37q-40 34 -124 34h-28l-4 10l40 137l9 6h111q100 0 138 6l-56 207l88 94h34l51 -145l-2 -24l-29 -30q5 -52 5 -59q0 -24 -48.5 -100.5t-69.5 -85.5q-13 -7 -52 -12v-1q0 -21 -23 -88.5t-30 -72.5q-22 -17 -54.5 -34.5
t-102.5 -37.5t-143 -20z" />
    <glyph glyph-name="aYehHamza.medi_aNun.fina" unicode="&#xfe8c;&#xfee6;" horiz-adv-x="859" 
d="M827 494q-9 -5 -62 -18t-64 -13q-6 0 -28.5 17.5t-42.5 35.5l-20 17l6 27q52 0 63 2v1q-18 10 -18 42q0 41 28 82.5t71 41.5q29 0 47 -27.5t21 -55.5l4 -27l-23 -6q-16 16 -37 16q-32 0 -74 -22q15 -34 63 -34q41 0 96 21l5 -7zM300 351q-22 16 -42.5 36.5t-29.5 33.5
l-10 13q41 49 82 84q57 -48 83 -84q-15 -21 -35.5 -41.5t-33.5 -30.5zM237 -213q-63 0 -108 16.5t-68.5 46t-33.5 61t-10 69.5q0 54 21 114t42 93l22 33l36 -18q-32 -78 -32 -128q0 -132 162 -132q90 0 182 34q-14 54 -36 122.5t-37 110.5l-15 42l109 114h35l2.5 -22.5
t3 -29t2.5 -20.5q3 -14 6 -19.5t14 -11t32 -5.5q84 0 128 50l65 77h27v-131v-28q-1 -53 6.5 -62.5t51.5 -9.5h9l16 -3v-147l-16 -3h-9q-67 0 -107.5 39t-51.5 105q-4 23 -6 61q-43 -61 -64 -78q-25 -19 -54 -19l-23 1q3 -45 3 -82q0 -23 -40.5 -94.5t-53.5 -83.5
q-24 -24 -86.5 -43t-123.5 -19z" />
    <glyph glyph-name="aYehHamza.medi_aReh.fina" unicode="&#xfe8c;&#xfeae;" horiz-adv-x="653" 
d="M620 514q-10 -5 -62 -18t-64 -13q-6 0 -28.5 17.5t-42.5 35.5l-20 17l6 27q52 0 63 2v1q-18 10 -18 42q0 41 28 82.5t71 41.5q29 0 47 -27.5t22 -55.5l3 -27l-23 -6q-16 16 -37 16q-32 0 -74 -22q15 -34 63 -34q41 0 96 21l5 -7zM137 -213q-21 0 -99.5 49.5t-93.5 65.5
l19 44q72 -12 97 -12q63 0 117.5 44.5t90.5 107.5l-109 194l90 118h26l29 -96q8 -20 18 -25.5t43 -5.5q85 0 128 49l66 77h26v-144v-28q-1 -53 6.5 -62.5t52.5 -9.5h9l16 -3v-147l-16 -3h-9q-67 0 -108 39t-52 105q-3 15 -7 73q-18 -27 -26 -37.5t-24 -28.5t-32 -25t-35 -7
h-26q-2 -79 -6 -104q-5 -38 -29.5 -89t-69.5 -95t-92 -44z" />
    <glyph glyph-name="f_b" unicode="fb" horiz-adv-x="902" 
d="M410 25v555l-119 57q-47 -31 -47 -103v-75h103v-78h-103v-303l68 -29v-49h-283v48l67 26v307h-81v60l81 19v37q0 86 71.5 149.5t182.5 63.5q49 0 109 -17l35 10h64v-277q66 43 134 43q90 0 142 -56t52 -167q0 -117 -83 -185.5t-193 -68.5q-125 0 -200 33zM587 67
q69 0 103.5 47t34.5 133q0 70 -37.5 107t-93.5 37q-14 0 -36 -4v-318q10 -2 29 -2z" />
    <glyph glyph-name="f_h" unicode="fh" horiz-adv-x="937" 
d="M344 0v48l66 26v506l-119 57q-47 -31 -47 -103v-75h103v-78h-103v-303l68 -29v-49h-283v48l67 26v307h-81v60l81 19v37q0 86 71.5 149.5t182.5 63.5q49 0 109 -17l35 10h64v-300q81 66 171 66q62 0 100.5 -42.5t38.5 -129.5v-222l60 -26v-49h-274v48l65 27v176
q0 116 -98 116q-26 0 -63 -10v-281l60 -27v-49h-274z" />
    <glyph glyph-name="f_idieresis" unicode="f&#xef;" horiz-adv-x="670" 
d="M546 598q0 26 16 42t42 16q24 0 40.5 -16.5t16.5 -41.5q0 -24 -16.5 -40.5t-40.5 -16.5q-25 0 -41.5 16.5t-16.5 40.5zM378 598q0 25 16 41.5t41 16.5t42 -16.5t17 -41.5q0 -24 -17 -40.5t-42 -16.5t-41 16.5t-16 40.5zM360 584h-20l-81 31q-15 -27 -15 -80v-76h211
l70 10h63v-391l69 -29v-49h-283v48l66 26v307h-196v-303l68 -29v-49h-283v48l67 26v307h-81v60l81 19v30q0 96 72 156.5t166 60.5q30 0 58 -11z" />
    <glyph glyph-name="f_igrave" unicode="f&#xec;" horiz-adv-x="671" 
d="M396 632l75 83l132 -160l-36 -41zM360 584h-20l-81 31q-15 -27 -15 -80v-76h211l70 10h63v-391l69 -29v-49h-283v48l66 26v307h-196v-303l68 -29v-49h-283v48l67 26v307h-81v60l81 19v30q0 96 72 156.5t166 60.5q30 0 58 -11z" />
    <glyph glyph-name="f_j" unicode="fj" horiz-adv-x="612" 
d="M29 0v48l67 26v307h-81v60l81 19v28q0 97 72 160t179 63q72 0 142 -29l-19 -121h-27l-152 76q-47 -31 -47 -102v-76h184l67 10h63v-443q0 -67 -46 -136t-127 -111l-43 38q68 73 68 187v377h-166v-303l68 -29v-49h-283z" />
    <glyph glyph-name="f_k" unicode="fk" horiz-adv-x="887" 
d="M344 0v48l67 28v504l-120 57q-47 -31 -47 -103v-75h103v-78h-103v-303l68 -29v-49h-283v48l67 26v307h-81v60l81 19v37q0 86 71.5 149.5t182.5 63.5q49 0 109 -17l35 10h65v-629l59 -25v-49h-274zM882 0h-194l-119 229v22l113 128l-70 33v47h249v-48l-56 -33l-110 -101
l124 -197l63 -31v-49z" />
    <glyph glyph-name="uniFE8BFEF0.fina" unicode="&#xfe8b;&#xfef0;" horiz-adv-x="841" 
d="M794 544q-10 -5 -62 -18t-64 -13q-6 0 -28.5 17.5t-42.5 35.5l-20 17l6 27q52 0 63 2v1q-18 10 -18 42q0 41 28 82.5t71 41.5q29 0 47 -27.5t22 -55.5l3 -27l-23 -6q-16 16 -37 16q-32 0 -74 -22q15 -34 63 -34q41 0 96 21l5 -7zM260 -250q-120 0 -174.5 56.5
t-54.5 136.5q0 54 21.5 116t43.5 97l22 36l36 -18q-34 -77 -34 -127q0 -133 162 -133q73 0 147 15t122 37q-41 34 -124 34h-29l-4 10l41 137l9 6h110q101 0 139 6l-56 207l87 94h35l51 -145l-2 -24l-30 -30q6 -38 6 -59q0 -24 -49 -100.5t-69 -85.5q-14 -7 -52 -12v-1
q0 -21 -23 -88.5t-30 -72.5q-24 -17 -55.5 -34.5t-102 -37.5t-143.5 -20z" />
    <glyph glyph-name="aAlifWavyhamza.fina" unicode="&#x672;" horiz-adv-x="313" 
d="M107 651q-20 0 -36 13t-22 24.5t-9 21.5l-46 -59l-20 9q4 20 29 72q2 4 30 27t35 23l15 -14q15 -14 32 -14l24 4q-19 11 -19 42q0 40 28 77.5t72 37.5q28 0 46 -26.5t22 -53.5l3 -27l-23 -6q-21 23 -47 23q-31 0 -63 -26q20 -32 63 -32q46 0 91 17l5 -7l-35 -84
q-23 -9 -85 -25.5t-90 -16.5zM329 150v-147l-16 -3q-119 0 -169.5 90.5t-51.5 276.5l-2 170l98 83h35v-434q0 -23 15.5 -28t74.5 -5z" />
    <glyph glyph-name="aAlifWavyhamzabelow.fina" unicode="&#x673;" horiz-adv-x="314" 
d="M278 0q-116 0 -162 84.5t-51 273.5l-8 282l98 81h34v-535q0 -23 15.5 -28t73.5 -5l16 -3v-147zM96 -295q-44 0 -68 58l-45 -58l-21 8q4 18 30 73q2 4 29.5 26.5t34.5 22.5l15 -13q15 -14 32 -14l25 3q-19 9 -19 43q0 40 28 77t71 37q29 0 47 -27t21 -53l4 -27l-24 -5
q-18 22 -47 22q-34 0 -62 -26q19 -31 62 -31q47 0 92 17l5 -7l-36 -85q-22 -9 -84.5 -25t-89.5 -16z" />
    <glyph glyph-name="aTehring.init" unicode="&#x67c;" horiz-adv-x="290" 
d="M306 623q-14 -20 -34.5 -40.5t-33.5 -30.5l-14 -11q-37 28 -68 66q-14 -17 -31.5 -33.5t-28.5 -24.5l-10 -8q-22 16 -42 36.5t-29 32.5l-9 13q40 48 80 83q43 -35 70 -68q32 36 68 68q58 -47 82 -83zM108 -108q-34 0 -59 24t-25 58q0 16 4 27q-10 -1 -28 -1l-16 3v147
l16 3q95 0 137 6q-8 41 -22.5 93t-24.5 83l-10 31l91 94h35l50 -145l-1 -24l-30 -30q6 -38 6 -59q-1 -17 -29 -66t-57 -87q45 -20 45 -75q0 -34 -23.5 -58t-58.5 -24zM108 -58q16 0 26 9t10 23q0 17 -9.5 27t-26.5 10q-15 0 -25.5 -10t-10.5 -27q0 -13 10.5 -22.5t25.5 -9.5
z" />
    <glyph glyph-name="aTehring.medi" unicode="&#x67c;" horiz-adv-x="316" 
d="M330 525q-14 -20 -34.5 -40.5t-33.5 -30.5l-14 -11q-38 27 -68 66q-14 -17 -31.5 -33.5t-28.5 -24.5l-10 -8q-22 16 -42 36.5t-30 32.5l-9 13q40 48 81 82q42 -35 70 -68q33 39 68 68q57 -47 82 -82zM171 -19q0 -35 -23.5 -58.5t-58.5 -23.5t-59.5 24t-24.5 58q0 9 2 19
h-7l-16 3v147l16 3q54 0 89 5l42 149l87 53l26 -7q-6 -114 -21 -190q33 -10 93 -10l16 -3v-147l-16 -3h-12q-95 0 -166 87l-24 -27q26 -8 41.5 -29t15.5 -50zM52 -19q0 -14 10.5 -23.5t26.5 -9.5t25.5 9.5t9.5 23.5q0 16 -9.5 26t-25.5 10t-26.5 -10t-10.5 -26z" />
    <glyph glyph-name="aTehring.fina" unicode="&#x67c;" horiz-adv-x="781" 
d="M533 445q-14 -20 -34.5 -40.5t-34.5 -30.5l-13 -11q-37 28 -68 66q-14 -17 -31.5 -33.5t-27.5 -24.5l-11 -8q-22 16 -42 36.5t-29 32.5l-9 13q40 48 80 83q43 -35 70 -68q32 36 68 68q58 -47 82 -83zM427 -49q0 -34 -23.5 -58t-58.5 -24q-34 0 -59 24t-25 58q0 28 16 49
q-255 7 -255 208q0 54 22 114t44 92l21 33l36 -18q-34 -78 -34 -128q0 -148 202 -148q124 0 242 8l41 146l87 57l27 -11q-6 -114 -21 -190q33 -10 92 -10l16 -3v-147l-16 -3q-72 0 -109.5 18t-69.5 69q-61 -63 -73 -68q-38 -13 -118 -16q16 -22 16 -52zM345 -81q16 0 26 9
t10 23q0 17 -9.5 27t-26.5 10q-16 0 -26.5 -10t-10.5 -27q0 -13 11 -22.5t26 -9.5z" />
    <glyph glyph-name="aTeh3dabove.init" unicode="&#x67d;" horiz-adv-x="290" 
d="M306 741q-37 -47 -74 -79l-67 67q-35 -35 -64 -67q-54 45 -76 79q13 18 32 37t31 28l13 10q30 -22 64 -61q13 16 30 31t27 22l10 8q20 -15 38.5 -34t27.5 -30zM166 684q20 -15 38.5 -34.5t27.5 -31.5l8 -12q-37 -44 -74 -76q-54 43 -77 76q13 20 32.5 39.5t32.5 28.5z
M0 0l-16 3v147l16 3q95 0 137 6q-8 41 -22.5 93t-24.5 83l-10 31l91 94h35l50 -145l-1 -24l-30 -30q6 -38 6 -59q-1 -25 -50 -101t-69 -85q-38 -16 -112 -16z" />
    <glyph glyph-name="aTeh3dabove.medi" unicode="&#x67d;" horiz-adv-x="316" 
d="M315 638q-37 -47 -74 -79l-67 67q-35 -36 -64 -67q-54 45 -76 79q13 18 32 37t32 29l12 9q30 -22 64 -61q13 16 30 31t27 23l10 7q20 -15 38.5 -34t26.5 -30zM175 581q20 -15 38.5 -34.5t26.5 -31.5l9 -12q-37 -44 -74 -76q-54 43 -77 76q13 20 32.5 39.5t31.5 29.5z
M316 0h-12q-95 0 -166 87q-56 -66 -74 -79q-17 -8 -64 -8l-16 3v147l16 3q54 0 89 5l42 149l87 53l26 -7q-6 -114 -21 -190q33 -10 93 -10l16 -3v-147z" />
    <glyph glyph-name="aTeh3dabove.fina" unicode="&#x67d;" horiz-adv-x="781" 
d="M514 550q-37 -47 -74 -79l-67 67q-35 -36 -64 -67q-54 45 -76 79q13 18 32 37t31 29l13 9q30 -22 64 -61q13 16 30 31t27 23l10 7q20 -15 38.5 -34t27.5 -30zM374 493q20 -15 38.5 -34.5t27.5 -31.5l8 -12q-37 -44 -74 -76q-54 43 -77 76q13 20 32.5 39.5t32.5 29.5z
M781 0q-72 0 -109.5 18t-69.5 69q-61 -63 -73 -68q-60 -19 -235 -19q-272 0 -272 208q0 54 22 114t44 92l21 33l36 -18q-34 -78 -34 -128q0 -148 202 -148q124 0 242 8l41 146l87 57l27 -11q-6 -114 -21 -190q33 -10 92 -10l16 -3v-147z" />
    <glyph glyph-name="aHahHamzaabove.init" unicode="&#x681;" horiz-adv-x="654" 
d="M450 489q-10 -5 -62 -18t-64 -13q-6 0 -28.5 17.5t-42.5 34.5l-20 18l6 27q52 0 63 2v1q-18 10 -18 42q0 41 28 82.5t71 41.5q29 0 47 -27.5t22 -54.5l3 -28l-23 -6q-16 16 -37 16q-32 0 -74 -22q15 -34 63 -34q41 0 96 21l5 -7zM328 77q-56 -32 -80 -44t-65.5 -22.5
t-94.5 -10.5h-88l-16 3v147l16 3h152q85 0 171 23q36 10 56 13q-68 20 -121 52q-108 65 -119 71l-83 -57l-27 29q4 6 10.5 17t26 38t37.5 47.5t40 37.5t39 17q8 0 16.5 -3t22 -10t25.5 -14t34 -21t40 -24q42 -26 90.5 -41.5t74.5 -19t45 -3.5h92l9 -31l-47 -102h-81
q-23 -4 -51.5 -19.5t-67.5 -40.5t-56 -35z" />
    <glyph glyph-name="aHahHamzaabove.medi" unicode="&#x681;" horiz-adv-x="677" 
d="M451 489q-9 -5 -62 -18t-64 -13q-6 0 -28.5 17.5t-42.5 34.5l-20 18l6 27q52 0 63 2v1q-18 10 -18 42q0 41 28 82.5t71 41.5q29 0 47 -27.5t21 -54.5l4 -28l-23 -6q-16 16 -37 16q-32 0 -74 -22q15 -34 63 -34q41 0 96 21l5 -7zM329 77q-56 -32 -80 -44t-66 -22.5
t-95 -10.5h-88l-16 3v147l16 3h153q83 0 175 24q25 8 52 12q-68 20 -121 52q-105 64 -120 71l-83 -57l-26 29q4 6 10.5 17t26 38t37.5 47.5t40 37.5t39 17q8 0 16.5 -3t22 -10t25 -14t34 -21t39.5 -24q106 -64 211 -64h85l9 -31l-51 -102h-2q13 -19 54 -19h51l16 -3v-147
l-16 -3h-68q-60 0 -82.5 49t-12.5 116q-15 -1 -33 -6.5t-39 -16.5t-35.5 -19t-40.5 -24t-37 -22z" />
    <glyph glyph-name="aHahHamzaabove.fina" unicode="&#x681;" horiz-adv-x="661" 
d="M421 491q-9 -5 -62 -18t-64 -13q-6 0 -28.5 17.5t-42.5 34.5l-20 18l6 27q52 0 63 2v1q-18 10 -18 42q0 41 28 82.5t71 41.5q29 0 47 -27.5t21 -54.5l4 -28l-23 -6q-16 16 -37 16q-32 0 -74 -22q15 -34 63 -34q41 0 96 21l5 -7zM648 -186q-39 -25 -141 -78.5t-118 -53.5
q-109 0 -195.5 39t-105.5 87q-14 32 -25.5 95.5t-8.5 84.5q10 75 71 140t116 88q27 11 106 18l1 7q-39 3 -80.5 10.5t-81 16.5t-52.5 11l-83 -75l-32 26q3 7 9 19t23.5 43t33 54.5t35 42.5t32.5 19t135.5 -24.5t216.5 -24.5h106l9 -25l-45 -105h-39v4q-2 -44 18 -62t72 -18
h36l16 -3v-147l-16 -3h-43q-61 0 -95 30t-37 78.5t12 108.5q-61 -22 -139.5 -63t-138.5 -83q-98 -72 -112 -139q90 -90 322 -90l208 9z" />
    <glyph glyph-name="aHah3uabove.init" unicode="&#x685;" horiz-adv-x="654" 
d="M389 576q-20 15 -38.5 34.5t-26.5 31.5l-9 12q37 44 74 76q54 -43 77 -76q-13 -20 -32.5 -39.5t-31.5 -28.5zM454 444q-30 22 -64 61q-13 -16 -30 -31t-27 -22l-10 -8q-20 15 -38.5 34t-26.5 30l-9 11q37 47 74 79l67 -67q36 35 64 67q54 -45 76 -79q-13 -18 -32 -37
t-32 -28zM328 77q-56 -32 -80 -44t-65.5 -22.5t-94.5 -10.5h-88l-16 3v147l16 3h152q85 0 171 23q36 10 56 13q-68 20 -121 52q-108 65 -119 71l-83 -57l-27 29q4 6 10.5 17t26 38t37.5 47.5t40 37.5t39 17q8 0 16.5 -3t22 -10t25.5 -14t34 -21t40 -24q42 -26 90.5 -41.5
t74.5 -19t45 -3.5h92l9 -31l-47 -102h-81q-23 -4 -51.5 -19.5t-67.5 -40.5t-56 -35z" />
    <glyph glyph-name="aHah3uabove.medi" unicode="&#x685;" horiz-adv-x="677" 
d="M390 576q-20 15 -38.5 34.5t-27.5 31.5l-8 12q37 44 74 76q54 -43 77 -76q-13 -20 -32.5 -39.5t-32.5 -28.5zM455 444q-30 22 -64 61q-13 -16 -30 -31t-27 -22l-10 -8q-20 15 -38.5 34t-27.5 30l-8 11q37 47 74 79l67 -67q35 35 64 67q54 -45 76 -79q-13 -18 -32 -37
t-31 -28zM329 77q-56 -32 -80 -44t-66 -22.5t-95 -10.5h-88l-16 3v147l16 3h153q83 0 175 24q25 8 52 12q-68 20 -121 52q-105 64 -120 71l-83 -57l-26 29q4 6 10.5 17t26 38t37.5 47.5t40 37.5t39 17q8 0 16.5 -3t22 -10t25 -14t34 -21t39.5 -24q106 -64 211 -64h85l9 -31
l-51 -102h-2q13 -19 54 -19h51l16 -3v-147l-16 -3h-68q-60 0 -82.5 49t-12.5 116q-15 -1 -33 -6.5t-39 -16.5t-35.5 -19t-40.5 -24t-37 -22z" />
    <glyph glyph-name="aHah3uabove.fina" unicode="&#x685;" horiz-adv-x="661" 
d="M329 600q-20 15 -38.5 34.5t-26.5 31.5l-9 12q37 44 74 76q54 -43 77 -76q-13 -20 -32.5 -39.5t-31.5 -28.5zM394 468q-30 22 -64 61q-13 -16 -30 -31t-27 -22l-10 -8q-20 15 -38.5 34t-26.5 30l-9 11q37 47 74 79l67 -67q36 35 64 67q54 -45 76 -79q-13 -18 -32 -37
t-32 -28zM648 -186q-39 -25 -141 -78.5t-118 -53.5q-109 0 -195.5 39t-105.5 87q-14 32 -25.5 95.5t-8.5 84.5q10 75 71 140t116 88q27 11 106 18l1 7q-39 3 -80.5 10.5t-81 16.5t-52.5 11l-83 -75l-32 26q3 7 9 19t23.5 43t33 54.5t35 42.5t32.5 19t135.5 -24.5
t216.5 -24.5h106l9 -25l-45 -105h-39v4q-2 -44 18 -62t72 -18h36l16 -3v-147l-16 -3h-43q-61 0 -95 30t-37 78.5t12 108.5q-61 -22 -139.5 -63t-138.5 -83q-98 -72 -112 -139q90 -90 322 -90l208 9z" />
    <glyph glyph-name="aDalring.fina" unicode="&#x689;" horiz-adv-x="502" 
d="M262 -38q0 -34 -23.5 -58t-58.5 -24q-34 0 -59 24t-25 58q0 24 11 43q-84 19 -84 113q0 40 14 85.5t24 64.5l44 -11q-5 -35 -5 -49q0 -15 5 -25.5t29 -20t68 -9.5q41 0 115 4l-106 268l89 99h35l95 -316q8 -27 19 -39t20.5 -14t32.5 -2l16 -3v-147l-16 -3h-14
q-53 0 -88 22.5t-63 87.5l-62 -98q-5 -3 -25 -4q12 -19 12 -46zM180 -70q16 0 26 9t10 23q0 17 -9.5 27t-26.5 10q-15 0 -25.5 -10t-10.5 -27q0 -13 10.5 -22.5t25.5 -9.5z" />
    <glyph glyph-name="aDal1below.fina" unicode="&#x68a;" horiz-adv-x="502" 
d="M502 0h-14q-53 0 -88 22.5t-63 87.5l-62 -98q-4 -3 -46.5 -7.5t-70.5 -4.5q-135 0 -135 118q0 40 14 85.5t24 64.5l44 -11q-5 -35 -5 -49q0 -15 5 -25.5t29 -20t68 -9.5q41 0 115 4l-106 268l89 99h35l95 -316q8 -27 19 -39t20.5 -14t32.5 -2l16 -3v-147zM226 -230
q-22 16 -42.5 37t-29.5 33l-10 13q41 49 82 84q57 -48 83 -84q-15 -21 -35.5 -41.5t-33.5 -31.5z" />
    <glyph glyph-name="aDal3dabove.fina" unicode="&#x68f;" horiz-adv-x="502" 
d="M419 808q-37 -47 -74 -79l-67 67q-35 -36 -64 -67q-54 45 -76 79q13 18 32 37t32 29l12 9q30 -22 64 -61q13 16 30 31t27 23l10 7q20 -15 38.5 -34t26.5 -30zM279 751q20 -15 38.5 -34.5t26.5 -31.5l9 -12q-37 -44 -74 -76q-54 43 -77 76q13 20 32.5 39.5t31.5 29.5z
M502 0h-14q-53 0 -88 22.5t-63 87.5l-62 -98q-4 -3 -46.5 -7.5t-70.5 -4.5q-135 0 -135 118q0 40 14 85.5t24 64.5l44 -11q-5 -35 -5 -49q0 -15 5 -25.5t29 -20t68 -9.5q41 0 115 4l-106 268l89 99h35l95 -316q8 -27 19 -39t20.5 -14t32.5 -2l16 -3v-147z" />
    <glyph glyph-name="aRehVabove.fina" unicode="&#x692;" horiz-adv-x="373" 
d="M224 478h-72l-8 6q-11 30 -37.5 62.5t-56.5 55.5l48 82l12 2q52 -52 82 -141q27 77 76 139l13 -1l40 -60q-78 -87 -97 -145zM96 -213q-21 0 -88.5 48.5t-85.5 67.5l20 44q42 -12 73 -12q129 0 205 160q-14 26 -74 167l81 94h26l17 -67q22 -87 40.5 -111.5t62.5 -24.5
l16 -3v-147l-16 -3h-12q-46 0 -89 47q-2 -31 -11.5 -70.5t-29 -84.5t-55 -75t-80.5 -30z" />
    <glyph glyph-name="aRehring.fina" unicode="&#x693;" horiz-adv-x="373" 
d="M331 -153q0 -35 -23 -58.5t-59 -23.5q-53 0 -77 49q-33 -27 -76 -27q-21 0 -88.5 48.5t-85.5 67.5l20 44q42 -12 73 -12q129 0 205 160q-14 26 -74 167l81 94h26l17 -67q22 -87 40.5 -111.5t62.5 -24.5l16 -3v-147l-16 -3h-12q-46 0 -89 47q-4 -59 -25 -118l2 1
q36 0 59 -23.5t23 -59.5zM212 -153q0 -14 11 -23.5t26 -9.5q16 0 26 9.5t10 23.5q0 17 -9.5 26.5t-26.5 9.5q-15 0 -26 -10t-11 -26z" />
    <glyph glyph-name="aReh1below.fina" unicode="&#x694;" horiz-adv-x="373" 
d="M96 -213q-21 0 -88.5 48.5t-85.5 67.5l20 44q42 -12 73 -12q129 0 205 160q-14 26 -74 167l81 94h26l17 -67q22 -87 40.5 -111.5t62.5 -24.5l16 -3v-147l-16 -3h-12q-46 0 -89 47q-2 -31 -11.5 -70.5t-29 -84.5t-55 -75t-80.5 -30zM120 -450q-22 16 -42.5 37t-29.5 33
l-10 13q41 49 82 84q57 -48 83 -84q-15 -21 -35.5 -41.5t-33.5 -31.5z" />
    <glyph glyph-name="aRehVbelow.fina" unicode="&#x695;" horiz-adv-x="373" 
d="M96 -213q-21 0 -88.5 48.5t-85.5 67.5l20 44q42 -12 73 -12q129 0 205 160q-14 26 -74 167l81 94h26l17 -67q22 -87 40.5 -111.5t62.5 -24.5l16 -3v-147l-16 -3h-12q-46 0 -89 47q-2 -31 -11.5 -70.5t-29 -84.5t-55 -75t-80.5 -30zM162 -466h-72l-8 6q-11 30 -37.5 62.5
t-56.5 55.5l48 82l12 2q51 -53 82 -141q25 76 76 139l13 -1l39 -59q-78 -92 -96 -146z" />
    <glyph glyph-name="aReh1above1below.fina" unicode="&#x696;" horiz-adv-x="373" 
d="M37 38q-22 16 -42.5 37t-30.5 33l-9 13q41 49 82 84q57 -48 83 -84q-15 -21 -35.5 -41.5t-34.5 -31.5zM96 -213q-21 0 -88.5 48.5t-85.5 67.5l20 44q42 -12 73 -12q129 0 205 160q-14 26 -74 167l81 94h26l17 -67q22 -87 40.5 -111.5t62.5 -24.5l16 -3v-147l-16 -3h-12
q-46 0 -89 47q-2 -31 -11.5 -70.5t-29 -84.5t-55 -75t-80.5 -30zM301 -327q-22 16 -42.5 36.5t-30.5 33.5l-9 13q41 49 82 84q57 -48 83 -84q-15 -21 -35.5 -41.5t-34.5 -30.5z" />
    <glyph glyph-name="aReh4above.fina" unicode="&#x699;" horiz-adv-x="373" 
d="M264 467q-2 1 -14 10.5t-29 25.5t-26 29q-29 -36 -68 -65q-2 1 -14.5 11t-30.5 28t-31 36q15 22 67 71q-49 43 -67 71q8 11 18.5 22.5t20 20.5t17.5 16t14 11l6 5q39 -29 68 -65q12 15 29 31t28 25l12 9q12 -9 23.5 -20t20.5 -20t15.5 -16.5t10.5 -12.5l5 -6
q-1 -2 -11.5 -14t-26.5 -29.5t-28 -27.5q14 -13 30 -30.5t25.5 -29t10.5 -11.5q-24 -36 -75 -75zM195 550l62 63l-62 63l-61 -63zM96 -213q-21 0 -88.5 48.5t-85.5 67.5l20 44q42 -12 73 -12q129 0 205 160q-14 26 -74 167l81 94h26l17 -67q22 -87 40.5 -111.5t62.5 -24.5
l16 -3v-147l-16 -3h-12q-46 0 -89 47q-2 -31 -11.5 -70.5t-29 -84.5t-55 -75t-80.5 -30z" />
    <glyph glyph-name="aSin1above1below.init" unicode="&#x69a;" horiz-adv-x="763" 
d="M437 434q-22 16 -42.5 37t-30.5 33l-9 13q41 49 82 84q57 -48 83 -84q-15 -21 -35.5 -41.5t-34.5 -31.5zM584 -16q-26 0 -86 26.5t-117 70.5q-23 -49 -50 -65t-70 -16q-22 0 -36 2t-32 10t-33 26t-29 47q-28 -46 -54.5 -65.5t-76.5 -19.5l-16 3v147l16 3q56 0 85 3
l40 100l69 44l26 -13q-5 -50 -15 -129q27 -5 79 -5q30 0 44 2l52 147l72 46l26 -13q-2 -27 -18 -159q76 -45 160 -63l-40 218l97 83h35q15 -209 15 -254q0 -25 -59.5 -100.5t-83.5 -75.5zM397 -235q-22 16 -42.5 36.5t-30.5 33.5l-9 13q41 49 82 84q57 -48 83 -84
q-15 -21 -35.5 -41.5t-34.5 -30.5z" />
    <glyph glyph-name="aSin1above1below.medi" unicode="&#x69a;" horiz-adv-x="790" 
d="M436 434q-22 16 -42.5 37t-29.5 33l-10 13q41 49 82 84q57 -48 83 -84q-15 -21 -35.5 -41.5t-33.5 -31.5zM790 0h-13q-48 0 -80 19.5t-58 72.5q-23 -55 -51 -73.5t-74 -18.5q-30 0 -48.5 4t-41.5 24t-41 58q-23 -52 -50.5 -69t-72.5 -17q-22 0 -36 2t-32 10t-33 26
t-29 47q-28 -46 -54.5 -65.5t-75.5 -19.5l-16 3v147l16 3q56 0 84 3l41 100l68 44l26 -13q-2 -28 -15 -129q28 -5 80 -5q30 0 44 2l51 147l72 46l27 -13q-2 -38 -21 -176q26 -6 81 -6q12 0 66 3l-17 149l97 77h35v-180q0 -32 9 -40.5t49 -8.5h13l16 -3v-147zM406 -235
q-22 16 -42.5 36.5t-29.5 33.5l-10 13q41 49 82 84q57 -48 83 -84q-15 -21 -35.5 -41.5t-33.5 -30.5z" />
    <glyph glyph-name="aSin1above1below.fina" unicode="&#x69a;" horiz-adv-x="1119" 
d="M765 443q-22 16 -42.5 37t-30.5 34l-9 12q41 49 82 84q57 -48 83 -84q-15 -21 -35.5 -41.5t-34.5 -30.5zM236 -213q-60 0 -103 16.5t-65.5 46t-32.5 61.5t-10 69q0 54 21.5 117t43.5 99l22 37l36 -18q-34 -91 -34 -141q0 -132 153 -132q52 0 102 12t76 29l-43 269l104 84
h35q3 -101 5 -180q20 -3 66 -3q29 0 44 2l51 147l72 46l27 -13q-2 -38 -21 -176q26 -6 81 -6q31 0 67 4l-17 148l97 77h35v-180q0 -32 8.5 -40.5t49.5 -8.5h13l16 -3v-147l-16 -3h-13q-48 0 -80.5 20t-58.5 74q-23 -57 -51 -75.5t-74 -18.5q-30 0 -48.5 4t-42 24t-40.5 58
q-23 -52 -50.5 -69t-72.5 -17q-32 0 -58 18q-41 -100 -74 -152q-27 -33 -95 -56t-125 -23zM734 -235q-22 16 -42.5 36.5t-29.5 33.5l-10 13q41 49 82 84q57 -48 83 -84q-15 -21 -35.5 -41.5t-33.5 -30.5z" />
    <glyph glyph-name="aKafswash.init" unicode="&#x6aa;" horiz-adv-x="755" 
d="M443 0h-443l-16 3v147l16 3h501q133 0 174 2q-14 26 -27.5 42t-40.5 33.5t-72 26t-109 8.5q-328 0 -343 24q-2 11 22 90t32 88q31 44 173 122.5t161 78.5l17 -17l-63 -148q-25 -9 -67.5 -25t-66.5 -25t-53.5 -21t-50.5 -23h255q71 0 125 -16.5t84 -41t49 -59t24.5 -64.5
t5.5 -63q0 -21 -32 -81.5t-42 -68.5q-17 -15 -213 -15z" />
    <glyph glyph-name="aKafswash.medi" unicode="&#x6aa;" horiz-adv-x="831" 
d="M657 15q-17 -15 -213 -15h-444l-16 3v147l16 3h502q134 0 174 2q-18 35 -38 55.5t-73.5 37.5t-137.5 17q-328 0 -343 24q-2 11 22 90t32 88q31 44 173.5 122.5t161.5 78.5l17 -17l-64 -148q-25 -9 -67.5 -25t-66.5 -25t-53.5 -21t-50.5 -23h255q82 0 141 -20.5t88.5 -56
t42.5 -70.5t15 -76q7 -24 21 -28.5t80 -4.5l16 -3v-147l-16 -3q-54 0 -83.5 22.5t-48.5 61.5q-33 -61 -42 -69z" />
    <glyph glyph-name="aKafswash.fina" unicode="&#x6aa;" horiz-adv-x="1027" 
d="M853 15q-17 -15 -213 -15h-309q-33 0 -70.5 3.5t-60.5 7.5t-25 6l-160 130l12 25q149 -19 266 -19h405q133 0 174 2q-14 26 -27.5 42t-40.5 33.5t-72 26t-109 8.5q-328 0 -343 24q-2 11 22 90t32 88q31 44 173 122.5t161 78.5l17 -17l-63 -148q-25 -9 -67.5 -25
t-66.5 -25t-53.5 -21t-50.5 -23h255q66 0 117.5 -14.5t82 -36t50.5 -52.5t27.5 -59.5t9.5 -60.5q7 -24 21 -28.5t80 -4.5l16 -3v-147l-16 -3q-54 0 -83.5 22.5t-48.5 61.5q-33 -61 -42 -69z" />
    <glyph glyph-name="aKafring.init" unicode="&#x6ab;" horiz-adv-x="470" 
d="M333 489q0 -14 10.5 -23.5t25.5 -9.5q16 0 26 9.5t10 23.5q0 17 -10 27t-26 10q-15 0 -25.5 -10.5t-10.5 -26.5zM329 26q-33 -26 -189 -26h-140l-16 3v147l16 3h152q129 0 190 6q-53 62 -186 135l-14 -18l-102 62q-8 5 21 89t41 90l336 195l19 -20l-30 -135l-6 -2
q30 -24 30 -66q0 -34 -23.5 -58t-58.5 -24q-34 0 -59 24t-25 58l1 2l-103 -48q236 -125 236 -243q0 -16 -38.5 -90t-51.5 -84z" />
    <glyph glyph-name="aKafring.medi" unicode="&#x6ab;" horiz-adv-x="474" 
d="M318 489q0 -14 10.5 -23.5t26.5 -9.5t26 9.5t10 23.5q0 17 -10 27t-26 10t-26.5 -10t-10.5 -27zM133 16q-32 -16 -89 -16h-44l-16 3v147l16 3h67q75 0 93 6q-9 55 -42 116q-9 15 -24.5 40.5t-25.5 42t-12 20.5q-5 8 24 79t44 79l289 176l18 -19l-29 -134h-1
q36 -23 36 -70q0 -34 -23.5 -58t-58.5 -24q-34 0 -59 23.5t-25 55.5l-91 -51q85 -125 88 -133q62 -88 99 -118.5t93 -30.5h14l16 -3v-147l-16 -3h-12q-79 0 -124 35.5t-113 133.5q-73 -146 -92 -153z" />
    <glyph glyph-name="aKafring.fina" unicode="&#x6ab;" horiz-adv-x="850" 
d="M695 489q0 -13 11 -23t26 -10q16 0 26 9.5t10 23.5q0 17 -9.5 27t-26.5 10q-16 0 -26.5 -10t-10.5 -27zM521 19q-27 -9 -67.5 -13.5t-68 -5t-96.5 -0.5q-70 0 -121 14.5t-78.5 35.5t-43.5 52.5t-20 56.5t-4 57q0 45 19.5 99.5t38.5 86.5l20 31l32 -19q-32 -78 -32 -129
q0 -132 208 -132q145 0 229 9q-9 54 -42 113q-10 17 -24.5 41t-24.5 41t-12 21q-5 8 23.5 79t43.5 79l289 176l18 -19l-29 -134h-1q36 -23 36 -70q0 -34 -23.5 -58t-58.5 -24q-34 0 -59 23.5t-25 55.5l-90 -51l88 -133q60 -87 97.5 -118t94.5 -31h12l16 -3v-147l-16 -3h-11
q-42 0 -72.5 9t-58 32t-47.5 47.5t-52 71.5q-72 -136 -88 -141z" />
    <glyph glyph-name="aLamVabove.init" unicode="&#x6b5;" horiz-adv-x="319" 
d="M203 761h-72l-7 6q-10 30 -37.5 62.5t-57.5 55.5l48 82l13 2q53 -54 81 -141q27 77 76 139l14 -1l39 -59q-80 -94 -97 -146zM0 0l-16 3v147l16 3q88 0 119 6l-10 350l-34 94l126 118l36 -18v-58l58 -116l-58 -60v-225q0 -36 -70 -125t-99 -109q-16 -10 -68 -10z" />
    <glyph glyph-name="aLamVabove.medi" unicode="&#x6b5;" horiz-adv-x="316" 
d="M198 761h-73l-7 7q-21 60 -94 117l48 83l12 2q51 -54 82 -141q25 76 76 139l13 -1l39 -60q-78 -92 -96 -146zM332 3l-16 -3q-58 0 -102.5 35t-63.5 101q-64 -116 -80 -126q-19 -10 -70 -10l-16 3v147l16 3q63 0 105 7l-17 480l99 81h35v-463q0 -74 14.5 -89.5t79.5 -15.5
l16 -3v-147z" />
    <glyph glyph-name="aLamVabove.fina" unicode="&#x6b5;" horiz-adv-x="623" 
d="M515 766h-73l-7 6q-11 30 -37.5 62.5t-56.5 55.5l48 83l12 2q52 -55 82 -142q25 78 76 140l13 -1l39 -60q-78 -92 -96 -146zM243 -213q-63 0 -108.5 16.5t-69 46t-33.5 61t-10 69.5q0 54 22 114t44 93l21 33l36 -18q-34 -78 -34 -128q0 -132 162 -132q63 0 150 25
l-21 674l98 80h35v-475q0 -64 15 -78.5t73 -14.5l16 -3v-147l-16 -3q-65 0 -99 55q-20 -61 -58 -137.5t-52 -89.5q-16 -14 -68 -27.5t-103 -13.5z" />
    <glyph glyph-name="aLam1above.init" unicode="&#x6b6;" horiz-adv-x="319" 
d="M170 757q-22 16 -42.5 36.5t-29.5 33.5l-10 13q41 49 82 84q57 -48 83 -84q-15 -21 -35.5 -41.5t-33.5 -30.5zM0 0l-16 3v147l16 3q88 0 119 6l-10 350l-34 94l126 118l36 -18v-58l58 -116l-58 -60v-225q0 -36 -70 -125t-99 -109q-16 -10 -68 -10z" />
    <glyph glyph-name="aLam1above.medi" unicode="&#x6b6;" horiz-adv-x="316" 
d="M154 756q-22 16 -42.5 37t-29.5 33l-10 13q41 49 82 84q57 -48 83 -84q-15 -21 -35.5 -41.5t-33.5 -31.5zM332 3l-16 -3q-58 0 -102.5 35t-63.5 101q-64 -116 -80 -126q-19 -10 -70 -10l-16 3v147l16 3q63 0 105 7l-17 480l99 81h35v-463q0 -74 14.5 -89.5t79.5 -15.5
l16 -3v-147z" />
    <glyph glyph-name="aLam1above.fina" unicode="&#x6b6;" horiz-adv-x="623" 
d="M472 756q-22 16 -42.5 37t-29.5 33l-10 13q41 49 82 84q57 -48 83 -84q-15 -21 -35.5 -41.5t-33.5 -31.5zM243 -213q-63 0 -108.5 16.5t-69 46t-33.5 61t-10 69.5q0 54 22 114t44 93l21 33l36 -18q-34 -78 -34 -128q0 -132 162 -132q63 0 150 25l-21 674l98 80h35v-475
q0 -64 15 -78.5t73 -14.5l16 -3v-147l-16 -3q-65 0 -99 55q-20 -61 -58 -137.5t-52 -89.5q-16 -14 -68 -27.5t-103 -13.5z" />
    <glyph glyph-name="aLam3uabove.init" unicode="&#x6b7;" horiz-adv-x="319" 
d="M160 886q-20 15 -38.5 34.5t-27.5 31.5l-8 12q37 44 74 76q54 -43 77 -76q-13 -20 -32.5 -39.5t-32.5 -28.5zM225 754q-30 22 -64 61q-13 -16 -30 -31t-27 -22l-10 -8q-20 15 -38.5 34t-27.5 30l-8 11q37 47 74 79l67 -67q35 35 64 67q54 -45 76 -79q-13 -18 -32 -37
t-31 -28zM0 0l-16 3v147l16 3q88 0 119 6l-10 350l-34 94l126 118l36 -18v-58l58 -116l-58 -60v-225q0 -36 -70 -125t-99 -109q-16 -10 -68 -10z" />
    <glyph glyph-name="aLam3uabove.medi" unicode="&#x6b7;" horiz-adv-x="316" 
d="M164 907q-20 15 -38.5 34.5t-27.5 31.5l-8 12q37 44 74 76q53 -43 76 -76q-13 -20 -32 -39.5t-32 -29.5zM305 851q-14 -19 -33 -38t-32 -29l-12 -9q-35 27 -64 61q-13 -15 -29.5 -30.5t-26.5 -23.5l-10 -7q-20 15 -38.5 34t-27.5 31l-8 11q37 46 74 79l66 -68
q5 5 18.5 19t25.5 27t20 22q54 -45 77 -79zM332 3l-16 -3q-58 0 -102.5 35t-63.5 101q-64 -116 -80 -126q-19 -10 -70 -10l-16 3v147l16 3q63 0 105 7l-17 480l99 81h35v-463q0 -74 14.5 -89.5t79.5 -15.5l16 -3v-147z" />
    <glyph glyph-name="aLam3uabove.fina" unicode="&#x6b7;" horiz-adv-x="623" 
d="M470 906q-20 15 -38.5 34.5t-27.5 31.5l-8 12q37 44 74 76q54 -43 77 -76q-13 -20 -32.5 -39.5t-32.5 -28.5zM535 774q-30 22 -64 61q-13 -16 -30 -31t-27 -22l-10 -8q-20 15 -38.5 34t-27.5 30l-8 11q37 47 74 79l67 -67q35 35 64 67q54 -45 76 -79q-13 -18 -32 -37
t-31 -28zM243 -213q-63 0 -108.5 16.5t-69 46t-33.5 61t-10 69.5q0 54 22 114t44 93l21 33l36 -18q-34 -78 -34 -128q0 -132 162 -132q63 0 150 25l-21 674l98 80h35v-475q0 -64 15 -78.5t73 -14.5l16 -3v-147l-16 -3q-65 0 -99 55q-20 -61 -58 -137.5t-52 -89.5
q-16 -14 -68 -27.5t-103 -13.5z" />
    <glyph glyph-name="aLam3dbelow.init" unicode="&#x6b8;" horiz-adv-x="319" 
d="M0 0l-16 3v147l16 3q88 0 119 6l-10 350l-34 94l126 118l36 -18v-58l58 -116l-58 -60v-225q0 -36 -70 -125t-99 -109q-16 -10 -68 -10zM280 -123q-37 -47 -74 -79l-67 67q-35 -35 -64 -67q-54 45 -76 79q13 18 32 37t31 28l13 10q30 -22 64 -61q13 16 30 31t27 22l10 8
q20 -15 38.5 -34t27.5 -30zM140 -334q-54 43 -77 76q13 20 32.5 39.5t32.5 28.5l12 10q20 -15 38.5 -34.5t27.5 -31.5l8 -12q-37 -44 -74 -76z" />
    <glyph glyph-name="aLam3dbelow.medi" unicode="&#x6b8;" horiz-adv-x="316" 
d="M332 3l-16 -3q-58 0 -102.5 35t-63.5 101q-64 -116 -80 -126q-19 -10 -70 -10l-16 3v147l16 3q63 0 105 7l-17 480l99 81h35v-463q0 -74 14.5 -89.5t79.5 -15.5l16 -3v-147zM299 -124q-37 -47 -74 -79l-67 67q-35 -36 -64 -67q-54 45 -76 79q13 18 32 37t32 29l12 9
q30 -22 64 -61q13 16 30 31t27 23l10 7q20 -15 38.5 -34t26.5 -30zM159 -181q20 -15 38.5 -34.5t26.5 -31.5l9 -12q-37 -44 -74 -76q-54 43 -77 76q13 20 32.5 39.5t31.5 29.5z" />
    <glyph glyph-name="aLam3dbelow.fina" unicode="&#x6b8;" horiz-adv-x="623" 
d="M243 -213q-63 0 -108.5 16.5t-69 46t-33.5 61t-10 69.5q0 54 22 114t44 93l21 33l36 -18q-34 -78 -34 -128q0 -132 162 -132q63 0 150 25l-21 674l98 80h35v-475q0 -64 15 -78.5t73 -14.5l16 -3v-147l-16 -3q-65 0 -99 55q-20 -61 -58 -137.5t-52 -89.5
q-16 -14 -68 -27.5t-103 -13.5zM426 -349q-37 -47 -74 -79l-67 67q-35 -35 -64 -67q-54 45 -76 79q13 18 32 37t31 28l13 10q30 -22 64 -61q13 16 30 31t27 22l10 8q20 -15 38.5 -34t27.5 -30zM286 -406q20 -15 38.5 -34.5t27.5 -31.5l8 -12q-37 -44 -74 -76q-54 43 -77 76
q13 20 32.5 39.5t32.5 28.5z" />
    <glyph glyph-name="aNunring.init" unicode="&#x6bc;" horiz-adv-x="290" 
d="M158 543q-22 16 -42.5 36.5t-29.5 33.5l-10 13q41 49 82 84q57 -48 83 -84q-15 -21 -35.5 -41.5t-33.5 -30.5zM108 -107q-35 0 -59.5 24t-24.5 58q0 17 4 26q-9 -1 -28 -1l-16 3v147l16 3q95 0 137 6q-8 41 -22.5 93t-24.5 83l-10 31l91 94h35l50 -145l-1 -24l-30 -30
q6 -38 6 -59q-1 -18 -29 -67t-57 -85q45 -22 45 -75q0 -35 -23.5 -58.5t-58.5 -23.5zM108 -58q16 0 26 9.5t10 23.5q0 16 -10 26t-26 10q-15 0 -26 -10t-11 -26q0 -14 11 -23.5t26 -9.5z" />
    <glyph glyph-name="aNunring.medi" unicode="&#x6bc;" horiz-adv-x="316" 
d="M185 467q-22 16 -42.5 37t-30.5 34l-9 12q41 49 82 84q57 -48 83 -84q-15 -21 -35.5 -41.5t-34.5 -30.5zM171 -19q0 -35 -23.5 -58.5t-58.5 -23.5t-59.5 24t-24.5 58q0 9 2 19h-7l-16 3v147l16 3q54 0 89 5l42 149l87 53l26 -7q-6 -114 -21 -190q33 -10 93 -10l16 -3
v-147l-16 -3h-12q-95 0 -166 87l-24 -27q26 -8 41.5 -29t15.5 -50zM89 -52q16 0 25.5 9.5t9.5 23.5q0 16 -9.5 26t-25.5 10t-26.5 -10t-10.5 -26q0 -14 10.5 -23.5t26.5 -9.5z" />
    <glyph glyph-name="aNunring.fina" unicode="&#x6bc;" horiz-adv-x="648" 
d="M297 326q-22 16 -42.5 37t-30.5 33l-9 13q41 49 82 84q57 -48 83 -84q-15 -21 -35.5 -41.5t-34.5 -31.5zM287 -332q-34 0 -59 24t-25 58q0 23 9 38q-54 4 -92.5 22.5t-58.5 46.5t-29 58t-9 65q0 54 21.5 114t42.5 93l21 33l36 -18q-31 -78 -31 -128q0 -132 161 -132
q85 0 177 32l-44 278l104 83h35l4 -77q7 -75 20.5 -90t77.5 -15l16 -3v-147l-16 -3q-68 0 -99 62q-22 -63 -52 -132t-43 -81q-27 -27 -102 -47q17 -20 17 -52q0 -34 -23.5 -58t-58.5 -24zM287 -282q16 0 26 9t10 23q0 17 -9.5 27t-26.5 10q-15 0 -25.5 -10t-10.5 -27
q0 -13 10.5 -22.5t25.5 -9.5z" />
    <glyph glyph-name="aHehGoalHamzaabove.fina" unicode="&#x6c2;" horiz-adv-x="464" 
d="M304 407q-10 -5 -62 -18t-64 -13q-6 0 -28.5 17.5t-42.5 34.5l-20 18l6 27q52 0 63 2v1q-18 10 -18 42q0 41 28 82.5t71 41.5q29 0 47 -27.5t22 -54.5l3 -28l-23 -6q-16 16 -37 16q-32 0 -74 -22q15 -34 63 -34q41 0 96 21l5 -7zM480 3l-16 -3q-73 0 -105.5 44.5
t-45.5 124.5q-67 -2 -154.5 -41t-140.5 -82l-15 16l67 158q58 43 117 67.5t90 24.5q49 0 67.5 -21t23.5 -62q4 -21 6.5 -29t11.5 -22t28 -19.5t50 -5.5l16 -3v-147z" />
    <glyph glyph-name="aWaw2habove.fina" unicode="&#x6ca;" horiz-adv-x="461" 
d="M388 572q-14 -20 -34.5 -40.5t-33.5 -31.5l-14 -10q-37 28 -68 66q-14 -17 -31.5 -33.5t-28.5 -24.5l-10 -8q-22 16 -42 36.5t-29 33.5l-9 12q40 48 80 83q43 -35 70 -68q32 36 68 68q58 -47 82 -83zM233 153h100l-1 2q-14 36 -48 76t-68 40q-32 0 -60.5 -28.5
t-45.5 -69.5q42 -20 123 -20zM204 -213q-21 0 -98 52t-92 69l20 44q83 -16 124 -16q56 0 108.5 17t84.5 47h-105q-42 0 -75 7t-46 14t-17 13q-10 11 -28.5 75.5t-17.5 79.5q4 42 26 92t64 91t92 41q60 0 104.5 -75t61.5 -185h51l16 -3v-147l-16 -3h-59q-18 -85 -70 -149
t-128 -64z" />
    <glyph glyph-name="aYehtail.fina" unicode="&#x6cd;" horiz-adv-x="746" 
d="M253 -250q-121 0 -175 56.5t-54 136.5q0 46 14 91l-15 -4l-8 11l36 106l39 11l21 34l34 -17l87 25l20 -26l-53 -98l-86 -22v-7q0 -133 162 -133q73 0 147 15t121 37q-40 34 -123 34h-47l-4 10l40 137l9 6h221l16 -3v-147l-16 -3l-33 -2q-2 -24 -24 -87.5t-28 -68.5
q-24 -17 -55.5 -34.5t-102 -37.5t-143.5 -20z" />
    <glyph glyph-name="aYehVabove.init" unicode="&#x6ce;" horiz-adv-x="290" 
d="M188 540h-72l-7 7q-21 59 -95 117l48 83l13 2q53 -56 81 -142q28 79 77 140l13 -1l39 -60q-80 -94 -97 -146zM0 0l-16 3v147l16 3q95 0 137 6q-8 41 -22.5 93t-24.5 83l-10 31l91 94h35l50 -145l-1 -24l-30 -30q6 -38 6 -59q-1 -25 -50 -101t-69 -85q-38 -16 -112 -16z
M266 -132q-12 -18 -30.5 -36.5t-31.5 -27.5l-12 -10q-24 18 -62 59q-12 -15 -28 -30t-26 -22l-9 -7q-20 15 -38.5 33.5t-26.5 29.5l-8 11q36 44 73 75q51 -43 64 -61q32 37 61 61q52 -43 74 -75z" />
    <glyph glyph-name="aYehVabove.medi" unicode="&#x6ce;" horiz-adv-x="321" 
d="M218 451h-72l-7 7q-10 30 -37.5 62.5t-57.5 55.5l48 82l13 2q52 -53 81 -141q27 77 76 139l14 -1l39 -60q-79 -90 -97 -146zM316 0h-12q-95 0 -166 87q-56 -66 -74 -79q-17 -8 -64 -8l-16 3v147l16 3q54 0 89 5l42 149l87 53l26 -7q-6 -114 -21 -190q33 -10 93 -10l16 -3
v-147zM301 -134q-13 -20 -33 -39.5t-34 -29.5l-13 -10q-35 27 -66 64q-13 -16 -30 -32t-27 -24l-10 -8q-21 16 -40.5 35.5t-28.5 31.5l-9 12q39 47 78 81q41 -34 67 -66q42 45 66 66q57 -46 80 -81z" />
    <glyph glyph-name="aYehVabove.fina" unicode="&#x6ce;" horiz-adv-x="639" 
d="M284 269h-73l-7 6q-11 30 -37.5 62.5t-56.5 55.5l48 83l12 2q52 -55 82 -142q25 78 76 140l13 -1l39 -60q-78 -92 -96 -146zM253 -250q-121 0 -175 56.5t-54 136.5q0 54 22 116t44 97l21 36l36 -18q-34 -77 -34 -127q0 -133 162 -133q73 0 147 15t121 37q-40 34 -123 34
h-47l-4 10l40 137l9 6h221l16 -3v-147l-16 -3l-33 -2q-2 -24 -24 -87.5t-28 -68.5q-24 -17 -55.5 -34.5t-102 -37.5t-143.5 -20z" />
    <glyph glyph-name="aAe.fina" unicode="&#x6d5;" horiz-adv-x="468" 
d="M484 3l-16 -3h-30q-64 0 -100 41t-52 117l-68 -113q-20 -9 -64 -9q-47 0 -81 21t-47 48q-7 16 0.5 76.5t18.5 75.5q74 91 205 153l-5 51l100 72h36v-280q0 -74 9 -87t66 -13h12l16 -3v-147zM188 189q41 0 81 5q-3 29 -11 119q-117 -48 -175 -98q39 -26 105 -26z" />
    <glyph glyph-name="uniFB51" unicode="&#x671;" horiz-adv-x="302" arabic-form="final" 
d="M180 764q57 0 91 6q-26 41 -60 41q-36 0 -84 -43q25 -4 53 -4zM262 692q-10 -6 -40 -13t-63 -7q-68 0 -116 17l-37 -44l-20 9q16 68 20 78q3 4 27 26t30 22q4 -1 11.5 -2.5t11.5 -2.5q80 127 140 127q34 0 60.5 -40t26.5 -75q0 -12 -21.5 -51t-29.5 -44zM302 0
q-113 0 -166.5 101t-53.5 279v158l97 82h35v-434q0 -23 15 -28t73 -5l16 -3v-147z" />
    <glyph glyph-name="uniFB53" unicode="&#x67b;" horiz-adv-x="781" arabic-form="final" 
d="M781 0q-72 0 -109.5 18t-69.5 69q-61 -63 -73 -68q-60 -19 -235 -19q-272 0 -272 208q0 54 22 114t44 92l21 33l36 -18q-34 -78 -34 -128q0 -148 202 -148q124 0 242 8l41 146l87 57l27 -11q-6 -114 -21 -190q33 -10 92 -10l16 -3v-147zM370 -367q-49 40 -83 81
q35 42 68 70q-40 35 -68 67q47 58 83 82q20 -14 40.5 -34.5t31.5 -34.5l10 -13q-28 -37 -66 -68q17 -14 33.5 -31t24.5 -28l8 -10q-16 -22 -36.5 -42.5t-33.5 -29.5z" />
    <glyph glyph-name="uniFB54" unicode="&#x67b;" horiz-adv-x="290" arabic-form="initial" 
d="M0 0l-16 3v147l16 3q95 0 137 6q-8 41 -22.5 93t-24.5 83l-10 31l91 94h35l50 -145l-1 -24l-30 -30q6 -38 6 -59q-1 -25 -50 -101t-69 -85q-38 -16 -112 -16zM125 -354q-48 40 -82 80q35 43 67 70q-37 33 -67 68q47 58 82 82q20 -14 40.5 -34.5t30.5 -33.5l11 -14
q-25 -34 -66 -68q17 -14 33.5 -31.5t24.5 -28.5l8 -10q-16 -22 -36.5 -42t-32.5 -29z" />
    <glyph glyph-name="uniFB55" unicode="&#x67b;" horiz-adv-x="317" arabic-form="medial" 
d="M316 0h-12q-95 0 -166 87q-56 -66 -74 -79q-17 -8 -64 -8l-16 3v147l16 3q54 0 89 5l42 149l87 53l26 -7q-6 -114 -21 -190q33 -10 93 -10l16 -3v-147zM154 -358q-49 40 -83 81q35 42 68 70q-45 40 -68 68q47 57 83 81q20 -14 40.5 -34t30.5 -34l10 -13q-23 -32 -65 -69
q17 -14 33 -31t24 -27l8 -11q-16 -22 -36 -42.5t-33 -29.5z" />
    <glyph glyph-name="uniFB57" unicode="&#x67e;" horiz-adv-x="781" arabic-form="final" 
d="M781 0q-72 0 -109.5 18t-69.5 69q-61 -63 -73 -68q-60 -19 -235 -19q-272 0 -272 208q0 54 22 114t44 92l21 33l36 -18q-34 -78 -34 -128q0 -148 202 -148q124 0 242 8l41 146l87 57l27 -11q-6 -114 -21 -190q33 -10 92 -10l16 -3v-147zM517 -149q-37 -47 -74 -79l-67 67
q-36 -35 -64 -67q-54 45 -76 79q13 18 32 37t32 28l12 10q30 -22 64 -61q13 16 30 31t27 22l10 8q20 -15 38.5 -34t26.5 -30zM377 -206q20 -15 38.5 -34.5t26.5 -31.5l9 -12q-37 -44 -74 -76q-54 43 -77 76q13 20 32.5 39.5t31.5 28.5z" />
    <glyph glyph-name="uniFB58" unicode="&#x67e;" horiz-adv-x="267" arabic-form="initial" 
d="M0 0l-16 3v147l16 3q95 0 137 6q-8 41 -22.5 93t-24.5 83l-10 31l91 94h35l50 -145l-1 -24l-30 -30q6 -38 6 -59q-1 -25 -50 -101t-69 -85q-38 -16 -112 -16zM258 -149q-37 -47 -74 -79l-67 67q-35 -35 -64 -67q-54 45 -76 79q13 18 32 37t31 28l13 10q30 -22 64 -61
q13 16 30 31t27 22l10 8q20 -15 38.5 -34t27.5 -30zM118 -206q20 -15 38.5 -34.5t27.5 -31.5l8 -12q-37 -44 -74 -76q-54 43 -77 76q13 20 32.5 39.5t32.5 28.5z" />
    <glyph glyph-name="uniFB59" unicode="&#x67e;" horiz-adv-x="316" arabic-form="medial" 
d="M316 0h-12q-95 0 -166 87q-56 -66 -74 -79q-17 -8 -64 -8l-16 3v147l16 3q54 0 89 5l42 149l87 53l26 -7q-6 -114 -21 -190q33 -10 93 -10l16 -3v-147zM292 -149q-37 -47 -74 -79l-67 67q-35 -35 -64 -67q-54 45 -76 79q13 18 32 37t31 28l13 10q30 -22 64 -61
q13 16 30 31t27 22l10 8q20 -15 38.5 -34t27.5 -30zM152 -206q20 -15 38.5 -34.5t27.5 -31.5l8 -12q-37 -44 -74 -76q-54 43 -77 76q13 20 32.5 39.5t32.5 28.5z" />
    <glyph glyph-name="uniFB5B" unicode="&#x680;" horiz-adv-x="781" arabic-form="final" 
d="M781 0q-72 0 -109.5 18t-69.5 69q-61 -63 -73 -68q-60 -19 -235 -19q-272 0 -272 208q0 54 22 114t44 92l21 33l36 -18q-34 -78 -34 -128q0 -148 202 -148q124 0 242 8l41 146l87 57l27 -11q-6 -114 -21 -190q33 -10 92 -10l16 -3v-147zM442 -364l-6 4q-6 5 -14 11.5
t-17 14.5t-17.5 17.5t-14.5 17.5q-29 -36 -68 -65q-4 3 -15 11.5t-29.5 27.5t-31.5 36q18 28 67 71q-47 41 -67 71q13 17 31.5 36t30.5 28.5t14 10.5q28 -20 68 -64q8 10 18 19.5t18.5 17.5t16 14t12.5 9l4 4q12 -9 23.5 -20t20.5 -20t15.5 -16.5t10.5 -13.5l5 -5l-5 -5
q-5 -6 -12 -14t-15 -17.5t-17.5 -19t-16.5 -15.5q9 -8 19 -18.5t18 -19t14 -16l10 -12.5l5 -5l-5 -5q-4 -6 -10.5 -13.5t-15.5 -16.5t-20.5 -20t-23.5 -20zM373 -281l62 63l-62 63l-61 -63z" />
    <glyph glyph-name="uniFB5C" unicode="&#x680;" horiz-adv-x="290" arabic-form="initial" 
d="M0 0l-16 3v147l16 3q95 0 137 6q-8 41 -22.5 93t-24.5 83l-10 31l91 94h35l50 -145l-1 -24l-30 -30q6 -38 6 -59q-1 -25 -50 -101t-69 -85q-38 -16 -112 -16zM183 -366q-4 3 -15 11.5t-28.5 24.5t-26.5 29q-29 -36 -68 -65l-6 4q-6 5 -14 12t-17.5 16t-20 20.5
t-18.5 22.5q18 28 67 71q-47 41 -67 71q13 17 31.5 36t30.5 28.5t14 10.5q36 -27 68 -64q13 15 30 31t27.5 24t12.5 9q18 -14 36.5 -32.5t27.5 -29.5t10 -13l-5 -5q-5 -6 -11.5 -14t-15 -17.5t-17.5 -19t-17 -15.5q14 -14 30.5 -31t25.5 -28t10 -12q-24 -36 -74 -75z
M113 -283l62 63l-62 63l-61 -63z" />
    <glyph glyph-name="uniFB5D" unicode="&#x680;" horiz-adv-x="316" arabic-form="medial" 
d="M316 0h-12q-95 0 -166 87q-56 -66 -74 -79q-17 -8 -64 -8l-16 3v147l16 3q54 0 89 5l42 149l87 53l26 -7q-6 -114 -21 -190q33 -10 93 -10l16 -3v-147zM229 -366l-6 4q-6 5 -14 11.5t-17 14.5t-18 17.5t-15 17.5q-29 -36 -68 -65l-5 4q-6 5 -14.5 12t-18 16t-20 20.5
t-18.5 22.5q21 29 68 71q-45 37 -68 71q13 17 31.5 35.5t31.5 29.5l13 10q36 -27 68 -64q13 15 30 31t27.5 24t12.5 9q19 -14 37 -32.5t27 -29.5t10 -13q-1 -1 -11 -13.5t-26.5 -30t-28.5 -27.5q9 -8 19 -18.5t18 -19.5t14.5 -16.5t10.5 -11.5l4 -5q-1 -2 -10 -13t-27 -29.5
t-37 -32.5zM159 -283l63 63l-63 63l-60 -63z" />
    <glyph glyph-name="uniFB5F" unicode="&#x67a;" horiz-adv-x="781" arabic-form="final" 
d="M384 367q-49 40 -83 81q35 42 68 70q-45 40 -68 68q47 57 83 81q20 -14 40 -34t30 -33l11 -14q-23 -32 -65 -69q16 -14 32.5 -31t24.5 -28l8 -10q-16 -22 -36.5 -42.5t-32.5 -29.5zM781 0q-72 0 -109.5 18t-69.5 69q-61 -63 -73 -68q-60 -19 -235 -19q-272 0 -272 208
q0 54 22 114t44 92l21 33l36 -18q-34 -78 -34 -128q0 -148 202 -148q124 0 242 8l41 146l87 57l27 -11q-6 -114 -21 -190q33 -10 92 -10l16 -3v-147z" />
    <glyph glyph-name="uniFB60" unicode="&#x67a;" horiz-adv-x="290" arabic-form="initial" 
d="M158 517q-49 40 -83 81q35 42 68 70q-40 35 -68 67q47 58 83 82q20 -14 40.5 -34.5t31.5 -34.5l10 -13q-28 -37 -66 -68q17 -14 33.5 -31t24.5 -28l8 -10q-16 -22 -36.5 -42.5t-33.5 -29.5zM0 0l-16 3v147l16 3q95 0 137 6q-8 41 -22.5 93t-24.5 83l-10 31l91 94h35
l50 -145l-1 -24l-30 -30q6 -38 6 -59q-1 -25 -50 -101t-69 -85q-38 -16 -112 -16z" />
    <glyph glyph-name="uniFB61" unicode="&#x67a;" horiz-adv-x="316" arabic-form="medial" 
d="M185 429q-48 40 -82 81q35 42 67 70q-41 36 -67 68q46 57 82 81q20 -14 40.5 -34t30.5 -33l11 -14q-28 -38 -66 -69q17 -14 33.5 -31t24.5 -28l8 -10q-16 -22 -36.5 -42.5t-32.5 -29.5zM316 0h-12q-95 0 -166 87q-56 -66 -74 -79q-17 -8 -64 -8l-16 3v147l16 3q54 0 89 5
l42 149l87 53l26 -7q-6 -114 -21 -190q33 -10 93 -10l16 -3v-147z" />
    <glyph glyph-name="uniFB63" unicode="&#x67f;" horiz-adv-x="781" arabic-form="final" 
d="M450 384l-9 7q-9 7 -19 15.5t-22 20.5t-19 22q-34 -40 -68 -65l-6 4q-6 5 -14 12.5t-17.5 16.5t-20 20t-18.5 22q18 28 67 71q-52 49 -67 72q8 11 18.5 22t20 20t17.5 16.5t14 11.5l6 5q34 -25 68 -65q12 15 29 31t28 25l12 9q19 -15 37 -33.5t28 -29.5l10 -12
q-2 -2 -12 -14.5t-26 -29.5t-28 -27q14 -14 30.5 -31.5t25.5 -28.5t10 -12l-5 -5q-4 -6 -10.5 -13.5t-15.5 -16.5t-20.5 -20t-23.5 -20zM381 467l62 63l-62 63l-61 -63zM781 0q-72 0 -109.5 18t-69.5 69q-61 -63 -73 -68q-60 -19 -235 -19q-272 0 -272 208q0 54 22 114
t44 92l21 33l36 -18q-34 -78 -34 -128q0 -148 202 -148q124 0 242 8l41 146l87 57l27 -11q-6 -114 -21 -190q33 -10 92 -10l16 -3v-147z" />
    <glyph glyph-name="uniFB64" unicode="&#x67f;" horiz-adv-x="290" arabic-form="initial" 
d="M224 543l-9 7q-9 7 -19 15.5t-22 20.5t-19 22q-34 -40 -68 -65q-4 2 -15 11.5t-29.5 28t-31.5 35.5q18 28 67 71q-52 49 -67 72q8 11 18.5 22t20 20t17.5 16.5t14 12.5l6 4q25 -18 68 -65q12 15 29 31t28 25l12 9q19 -14 37 -32.5t28 -30.5l10 -12q-2 -2 -12 -14.5
t-26 -29.5t-28 -27q9 -8 19 -18.5t18 -19.5t14 -16.5l10 -12.5l5 -5l-5 -6q-4 -5 -10.5 -12.5t-15.5 -16.5t-20.5 -20t-23.5 -20zM155 627l62 63l-62 62l-61 -62zM0 0l-16 3v147l16 3q95 0 137 6q-8 41 -22.5 93t-24.5 83l-10 31l91 94h35l50 -145l-1 -24l-30 -30
q6 -38 6 -59q-1 -25 -50 -101t-69 -85q-38 -16 -112 -16z" />
    <glyph glyph-name="uniFB65" unicode="&#x67f;" horiz-adv-x="316" arabic-form="medial" 
d="M242 445q-2 1 -14 10.5t-29.5 25.5t-26.5 29q-29 -36 -68 -65q-2 1 -13.5 10.5t-30.5 28.5t-32 36q21 29 68 71q-45 37 -68 71q8 11 18.5 22.5t20 20.5t18 16t13.5 11l6 5q39 -29 68 -65q8 10 18 20t18.5 17.5t16 13.5l12.5 10l5 4q18 -14 36.5 -32.5t27.5 -29.5t10 -13
q-1 -2 -11.5 -14.5t-26.5 -29.5t-28 -27q9 -8 19 -18.5t18 -19.5t14.5 -16.5t10.5 -12.5l4 -4q-1 -2 -10 -13t-27.5 -29.5t-36.5 -32.5zM172 528l63 63l-63 63l-60 -63zM316 0h-12q-95 0 -166 87q-56 -66 -74 -79q-17 -8 -64 -8l-16 3v147l16 3q54 0 89 5l42 149l87 53
l26 -7q-6 -114 -21 -190q33 -10 93 -10l16 -3v-147z" />
    <glyph glyph-name="uniFB67" unicode="&#x679;" horiz-adv-x="781" arabic-form="final" 
d="M404 533q58 0 92 6q-27 42 -60 42q-40 0 -96 -47q13 0 34.5 -0.5t29.5 -0.5zM383 441l-83 7l-90 73l3 18q34 -4 83 -4l4 6l-11 147l-12 39l59 55l15 -11v-20l26 -53l-22 -23v-25q0 -5 -5.5 -20t-10.5 -27l-5 -12l1 -1q66 81 116 81q34 0 60.5 -39.5t26.5 -75.5
q0 -12 -21.5 -51t-29.5 -44q-10 -6 -40.5 -13t-63.5 -7zM781 0q-72 0 -109.5 18t-69.5 69q-61 -63 -73 -68q-60 -19 -235 -19q-272 0 -272 208q0 54 22 114t44 92l21 33l36 -18q-34 -78 -34 -128q0 -148 202 -148q124 0 242 8l41 146l87 57l27 -11q-6 -114 -21 -190
q33 -10 92 -10l16 -3v-147z" />
    <glyph glyph-name="uniFB68" unicode="&#x679;" horiz-adv-x="290" arabic-form="initial" 
d="M177 651q63 0 92 5q-29 42 -61 42q-41 0 -95 -47h64zM155 558l-83 7l-89 74l3 17q18 -2 83 -4l4 6q-1 9 -3 34t-4 54.5t-4 58.5l-12 39l58 55l16 -11v-19l26 -54l-22 -23l-1 -25q0 -5 -5.5 -20t-10.5 -27l-5 -12l2 -1q64 81 115 81q34 0 61 -39.5t27 -74.5
q0 -12 -21.5 -51.5t-30.5 -44.5q-10 -6 -40.5 -13t-63.5 -7zM0 0l-16 3v147l16 3q101 0 141 6q-8 41 -22.5 93t-24.5 83l-10 31l87 94h35l51 -145l-2 -24l-29 -30q5 -47 5 -59q0 -24 -48.5 -100.5t-69.5 -85.5q-38 -16 -113 -16z" />
    <glyph glyph-name="uniFB69" unicode="&#x679;" horiz-adv-x="316" arabic-form="medial" 
d="M186 557q58 0 92 6q-27 42 -60 42q-41 0 -95 -47q23 -1 63 -1zM165 465l-83 7l-90 73l3 17q18 -2 83 -4l4 7q-6 81 -10 147l-13 39l59 54l15 -10v-20l26 -53l-22 -23v-26q0 -5 -5.5 -19.5t-10.5 -26.5l-5 -12l1 -1q66 81 116 81q34 0 60.5 -40t26.5 -75q0 -12 -21.5 -51
t-29.5 -44q-10 -6 -40.5 -13t-63.5 -7zM316 0h-12q-95 0 -166 87q-56 -66 -74 -79q-17 -8 -64 -8l-16 3v147l16 3q54 0 89 5l42 149l87 53l26 -7q-6 -114 -21 -190q33 -10 93 -10l16 -3v-147z" />
    <glyph glyph-name="uniFB6B" unicode="&#x6a4;" horiz-adv-x="813" arabic-form="final" 
d="M605 666q-20 15 -38.5 34.5t-26.5 31.5l-9 12q37 44 74 76q53 -43 76 -76q-13 -20 -32 -39.5t-31 -28.5zM746 610q-14 -19 -33 -38t-31 -28l-13 -10q-35 27 -64 61q-13 -15 -29.5 -30.5t-26.5 -22.5l-10 -8q-20 15 -38.5 34t-26.5 30l-9 12q37 46 74 79l66 -68
q40 40 64 68q54 -45 77 -79zM621 165l13 7q23 13 40 30q-5 48 -30 89.5t-62 41.5q-27 0 -56 -21t-50 -54q66 -66 145 -93zM826 3l-16 -3h-29q-88 0 -178 50q-123 -72 -312 -72q-272 0 -272 208q0 54 21.5 114t43.5 93l22 33l36 -19q-33 -78 -33 -128q0 -148 201 -148
q97 0 168 8q-32 28 -36 44q-5 21 -9 63t-2 50q9 55 66.5 123.5t121.5 68.5q62 0 101 -75t39 -161q0 -46 -46 -99h97l16 -3v-147z" />
    <glyph glyph-name="uniFB6C" unicode="&#x6a4;" horiz-adv-x="417" arabic-form="initial" 
d="M190 745q-20 15 -38.5 34.5t-27.5 31.5l-8 12q37 44 74 76q54 -43 77 -76q-13 -20 -32.5 -39.5t-32.5 -29.5zM255 613q-30 22 -64 61q-13 -16 -30 -31t-27 -23l-10 -7q-20 15 -38.5 34t-27.5 30l-8 11q37 47 74 79l67 -67q35 36 64 67q54 -45 76 -79q-13 -18 -32 -37
t-31 -29zM291 24q-14 -8 -59 -16t-107 -8h-125l-16 3v147l16 3h160q80 0 147 5q1 9 1 27q0 44 -11 91l-25 -60q-6 -5 -37.5 -11.5t-57.5 -6.5q-58 0 -93 31q-10 9 -26.5 65t-15.5 70q3 25 15.5 58t33.5 68.5t54.5 59.5t71.5 24q71 0 119.5 -102.5t48.5 -233.5q0 -39 -7 -61
q-10 -32 -45 -92t-42 -61zM187 326q51 0 91 10q-38 92 -93 92q-27 0 -53.5 -25.5t-40.5 -64.5q35 -12 96 -12z" />
    <glyph glyph-name="uniFB6D" unicode="&#x6a4;" horiz-adv-x="440" arabic-form="medial" 
d="M230 666q-20 15 -38.5 34.5t-27.5 31.5l-8 12q37 44 74 76q54 -43 77 -76q-13 -20 -32.5 -39.5t-32.5 -28.5zM295 534q-30 22 -64 61q-13 -16 -30 -31t-27 -22l-10 -8q-20 15 -38.5 34t-27.5 30l-8 11q37 47 74 79l67 -67q35 35 64 67q54 -45 76 -79q-13 -18 -32 -37
t-31 -28zM250 165l13 7q20 11 40 30q-5 48 -30.5 89.5t-62.5 41.5q-26 0 -55.5 -21.5t-49.5 -53.5q63 -65 145 -93zM216 59q-105 -59 -196 -59h-20l-16 3v147l16 3l92 -1q-19 23 -21 31q-5 21 -9 63t-2 50q9 55 66.5 123.5t121.5 68.5q61 0 100 -75t39 -161q0 -47 -45 -99
h97l16 -3v-147l-16 -3h-29q-95 0 -194 59z" />
    <glyph glyph-name="uniFB6F" unicode="&#x6a6;" horiz-adv-x="813" arabic-form="final" 
d="M674 534l-9 7q-9 7 -19.5 15.5t-22.5 20.5t-19 22q-34 -40 -68 -65l-6 4q-5 5 -13.5 12.5t-18 16.5t-20 20t-18.5 22q18 28 67 71q-52 49 -67 72q8 11 18.5 22t20 20t18 16.5t13.5 11.5l6 5q34 -25 68 -65q8 10 18 19.5t18.5 17.5t16 14l12.5 10l5 4q8 -7 16.5 -14.5
t16 -14.5t13.5 -13.5t11 -12.5t9 -10.5t6 -7.5l2 -2q-2 -3 -11.5 -14.5t-26 -29t-28.5 -27.5q15 -13 31 -31t25 -28.5t10 -12.5l-4 -5q-5 -6 -11.5 -13.5t-15 -16.5t-20.5 -20t-23 -20zM604 618l62 62l-62 63l-61 -63zM621 165l13 7q23 13 40 30q-5 48 -30 89.5t-62 41.5
q-27 0 -56 -21t-50 -54q66 -66 145 -93zM826 3l-16 -3h-29q-88 0 -178 50q-123 -72 -312 -72q-272 0 -272 208q0 54 21.5 114t43.5 93l22 33l36 -19q-33 -78 -33 -128q0 -148 201 -148q97 0 168 8q-32 28 -36 44q-5 21 -9 63t-2 50q9 55 66.5 123.5t121.5 68.5q62 0 101 -75
t39 -161q0 -46 -46 -99h97l16 -3v-147z" />
    <glyph glyph-name="uniFB70" unicode="&#x6a6;" horiz-adv-x="417" arabic-form="initial" 
d="M263 613q-2 1 -14.5 10.5t-29.5 25.5t-26 29q-29 -36 -68 -65q-2 1 -13.5 10.5t-30.5 28.5t-32 36q15 22 67 71q-49 43 -67 71q8 11 18.5 22.5t20 20.5t18 16t14.5 11l5 5q39 -29 68 -65q13 16 30 32t27.5 24t12.5 9q18 -14 36.5 -32.5t27.5 -29.5t10 -13l-5 -6
q-5 -5 -11.5 -13t-15 -17.5t-17.5 -19t-17 -15.5q9 -8 19 -18.5t18 -19.5t14.5 -16.5t10.5 -12.5l4 -4q-24 -36 -74 -75zM193 696l62 63l-62 63l-61 -63zM291 24q-14 -8 -59 -16t-107 -8h-125l-16 3v147l16 3h160q80 0 147 5q1 9 1 27q0 44 -11 91l-25 -60
q-6 -5 -37.5 -11.5t-57.5 -6.5q-58 0 -93 31q-10 9 -26.5 65t-15.5 70q3 25 15.5 58t33.5 68.5t54.5 59.5t71.5 24q71 0 119.5 -102.5t48.5 -233.5q0 -39 -7 -61q-10 -32 -45 -92t-42 -61zM187 326q51 0 91 10q-38 92 -93 92q-27 0 -53.5 -25.5t-40.5 -64.5q35 -12 96 -12z
" />
    <glyph glyph-name="uniFB71" unicode="&#x6a6;" horiz-adv-x="440" arabic-form="medial" 
d="M300 534l-9 7q-9 7 -19 15.5t-22 20.5t-19 22q-43 -47 -68 -65q-4 2 -15 11.5t-29.5 28t-31.5 35.5q18 28 67 71q-52 49 -67 72q8 11 18.5 22t20 20t17.5 16.5t14 11.5l6 5q27 -20 68 -65q12 15 29 31t28 25l12 9q9 -7 17.5 -14.5t15.5 -14.5l13.5 -13.5t11.5 -12.5
t8.5 -10.5t5.5 -7.5l2 -2q-1 -2 -11 -14.5t-26 -29.5t-28 -27q14 -13 30 -31t25 -29t10 -12q-1 -2 -10 -13t-27 -29.5t-37 -32.5zM231 618l62 62l-62 63l-61 -63zM250 165l13 7q20 11 40 30q-5 48 -30.5 89.5t-62.5 41.5q-26 0 -55.5 -21.5t-49.5 -53.5q63 -65 145 -93z
M216 59q-105 -59 -196 -59h-20l-16 3v147l16 3l92 -1q-19 23 -21 31q-5 21 -9 63t-2 50q9 55 66.5 123.5t121.5 68.5q61 0 100 -75t39 -161q0 -47 -45 -99h97l16 -3v-147l-16 -3h-29q-95 0 -194 59z" />
    <glyph glyph-name="uniFB73" unicode="&#x684;" horiz-adv-x="671" arabic-form="final" 
d="M648 -186q-39 -25 -141 -78.5t-118 -53.5q-109 0 -195.5 39t-105.5 87q-14 32 -25.5 95.5t-8.5 84.5q10 75 71 140t116 88q27 11 106 18l1 7q-39 3 -80.5 10.5t-81 16.5t-52.5 11l-83 -75l-32 26q3 7 9 19t23.5 43t33 54.5t35 42.5t32.5 19t135.5 -24.5t216.5 -24.5h106
l9 -25l-45 -105h-39v4q-2 -44 18 -62t72 -18h36l16 -3v-147l-16 -3h-43q-61 0 -95 30t-37 78.5t12 108.5q-61 -22 -139.5 -63t-138.5 -83q-98 -72 -112 -139q90 -90 322 -90l208 9zM379 -121q-16 12 -33 28.5t-26 27.5l-8 11q20 27 54 56q-14 12 -27.5 26t-20.5 22l-6 9
q13 18 30 34.5t27 24.5l10 7q40 -32 68 -66q-38 -46 -55 -57q31 -26 55 -56q-38 -47 -68 -67z" />
    <glyph glyph-name="uniFB74" unicode="&#x684;" horiz-adv-x="654" arabic-form="initial" 
d="M328 77q-56 -32 -80 -44t-65.5 -22.5t-94.5 -10.5h-88l-16 3v147l16 3h152q85 0 171 23q36 10 56 13q-68 20 -121 52q-108 65 -119 71l-83 -57l-27 29q4 6 10.5 17t26 38t37.5 47.5t40 37.5t39 17q8 0 16.5 -3t22 -10t25.5 -14t34 -21t40 -24q42 -26 90.5 -41.5t74.5 -19
t45 -3.5h92l9 -31l-47 -102h-81q-23 -4 -51.5 -19.5t-67.5 -40.5t-56 -35zM445 -263q-20 14 -40.5 34.5t-30.5 34.5l-11 13q30 41 66 68q-17 14 -33.5 31.5t-24.5 27.5l-8 11q16 22 36.5 42.5t32.5 29.5l13 9q48 -40 83 -81q-36 -42 -68 -70q41 -36 68 -68q-47 -57 -83 -82z
" />
    <glyph glyph-name="uniFB75" unicode="&#x684;" horiz-adv-x="677" arabic-form="medial" 
d="M329 77q-56 -32 -80 -44t-66 -22.5t-95 -10.5h-88l-16 3v147l16 3h153q83 0 175 24q25 8 52 12q-68 20 -121 52q-105 64 -120 71l-83 -57l-26 29q4 6 10.5 17t26 38t37.5 47.5t40 37.5t39 17q8 0 16.5 -3t22 -10t25 -14t34 -21t39.5 -24q106 -64 211 -64h85l9 -31
l-51 -102h-2q13 -19 54 -19h51l16 -3v-147l-16 -3h-68q-60 0 -82.5 49t-12.5 116q-15 -1 -33 -6.5t-39 -16.5t-35.5 -19t-40.5 -24t-37 -22zM415 -268q-20 14 -40.5 34.5t-30.5 33.5l-10 14q28 38 65 68q-17 14 -33 31.5t-24 28.5l-8 10q16 22 36 42t32 29l13 9
q49 -40 83 -80q-35 -43 -68 -70q41 -36 68 -68q-47 -58 -83 -82z" />
    <glyph glyph-name="uniFB77" unicode="&#x683;" horiz-adv-x="651" arabic-form="final" 
d="M648 -186q-39 -25 -141 -78.5t-118 -53.5q-109 0 -195.5 39t-105.5 87q-14 32 -25.5 95.5t-8.5 84.5q10 75 71 140t116 88q27 11 106 18l1 7q-39 3 -80.5 10.5t-81 16.5t-52.5 11l-83 -75l-32 26q3 7 9 19t23.5 43t33 54.5t35 42.5t32.5 19t135.5 -24.5t216.5 -24.5h106
l9 -25l-45 -105h-39v4q-2 -44 18 -62t72 -18h36l16 -3v-147l-16 -3h-43q-61 0 -95 30t-37 78.5t12 108.5q-61 -22 -139.5 -63t-138.5 -83q-98 -72 -112 -139q90 -90 322 -90l208 9zM489 -9q-12 -19 -30.5 -37.5t-30.5 -27.5l-13 -9q-29 20 -62 59q-12 -15 -28 -30t-26 -22
l-10 -7q-20 14 -38 32.5t-26 30.5l-8 11q36 44 72 75q39 -31 64 -61q24 28 62 61q52 -42 74 -75z" />
    <glyph glyph-name="uniFB78" unicode="&#x683;" horiz-adv-x="654" arabic-form="initial" 
d="M328 77q-56 -32 -80 -44t-65.5 -22.5t-94.5 -10.5h-88l-16 3v147l16 3h152q85 0 171 23q36 10 56 13q-68 20 -121 52q-108 65 -119 71l-83 -57l-27 29q4 6 10.5 17t26 38t37.5 47.5t40 37.5t39 17q8 0 16.5 -3t22 -10t25.5 -14t34 -21t40 -24q42 -26 90.5 -41.5t74.5 -19
t45 -3.5h92l9 -31l-47 -102h-81q-23 -4 -51.5 -19.5t-67.5 -40.5t-56 -35zM580 -76q-14 -20 -34.5 -40.5t-33.5 -31.5l-14 -10q-41 30 -68 66q-14 -17 -31.5 -33.5t-28.5 -24.5l-10 -8q-22 16 -42.5 36.5t-29.5 33.5l-9 12q40 48 81 82q42 -35 70 -67q36 41 68 67
q57 -46 82 -82z" />
    <glyph glyph-name="uniFB79" unicode="&#x683;" horiz-adv-x="677" arabic-form="medial" 
d="M329 77q-56 -32 -80 -44t-66 -22.5t-95 -10.5h-88l-16 3v147l16 3h153q83 0 175 24q25 8 52 12q-68 20 -121 52q-105 64 -120 71l-83 -57l-26 29q4 6 10.5 17t26 38t37.5 47.5t40 37.5t39 17q8 0 16.5 -3t22 -10t25 -14t34 -21t39.5 -24q106 -64 211 -64h85l9 -31
l-51 -102h-2q13 -19 54 -19h51l16 -3v-147l-16 -3h-68q-60 0 -82.5 49t-12.5 116q-15 -1 -33 -6.5t-39 -16.5t-35.5 -19t-40.5 -24t-37 -22zM535 -96q-14 -20 -34.5 -40.5t-34.5 -31.5l-13 -10q-36 27 -68 66q-14 -17 -31.5 -33.5t-27.5 -24.5l-11 -8q-22 16 -42 36.5
t-29 33.5l-10 12q40 49 81 83q42 -35 70 -68q40 45 68 68q57 -47 82 -83z" />
    <glyph glyph-name="uniFB7B" unicode="&#x686;" horiz-adv-x="651" arabic-form="final" 
d="M648 -186q-39 -25 -141 -78.5t-118 -53.5q-109 0 -195.5 39t-105.5 87q-14 32 -25.5 95.5t-8.5 84.5q10 75 71 140t116 88q27 11 106 18l1 7q-39 3 -80.5 10.5t-81 16.5t-52.5 11l-83 -75l-32 26q3 7 9 19t23.5 43t33 54.5t35 42.5t32.5 19t135.5 -24.5t216.5 -24.5h106
l9 -25l-45 -105h-39v4q-2 -44 18 -62t72 -18h36l16 -3v-147l-16 -3h-43q-61 0 -95 30t-37 78.5t12 108.5q-61 -22 -139.5 -63t-138.5 -83q-98 -72 -112 -139q90 -90 322 -90l208 9zM425 -24q-40 39 -55 55q-25 -23 -53 -55q-45 37 -63 65q11 15 27 30t26 23l10 8
q27 -19 53 -50q11 13 24.5 25.5t21.5 18.5l9 6q16 -12 31.5 -27.5t22.5 -24.5l7 -9q-31 -39 -61 -65zM370 -133q-44 35 -63 63q11 16 27 32t26 24l10 8q16 -12 31.5 -28t22.5 -26l7 -10q-30 -37 -61 -63z" />
    <glyph glyph-name="uniFB7C" unicode="&#x686;" horiz-adv-x="654" arabic-form="initial" 
d="M328 77q-56 -32 -80 -44t-65.5 -22.5t-94.5 -10.5h-88l-16 3v147l16 3h152q85 0 171 23q36 10 56 13q-68 20 -121 52q-108 65 -119 71l-83 -57l-27 29q4 6 10.5 17t26 38t37.5 47.5t40 37.5t39 17q8 0 16.5 -3t22 -10t25.5 -14t34 -21t40 -24q42 -26 90.5 -41.5t74.5 -19
t45 -3.5h92l9 -31l-47 -102h-81q-23 -4 -51.5 -19.5t-67.5 -40.5t-56 -35zM582 -19q-37 -47 -74 -79l-67 67q-35 -35 -64 -67q-54 45 -76 79q13 18 32 37t31 28l13 10q30 -22 64 -61q13 16 30 31t27 22l10 8q20 -15 38.5 -34t27.5 -30zM442 -230q-54 43 -77 76
q13 20 32.5 39.5t32.5 28.5l12 10q20 -15 38.5 -34.5t27.5 -31.5l8 -12q-37 -44 -74 -76z" />
    <glyph glyph-name="uniFB7D" unicode="&#x686;" horiz-adv-x="677" arabic-form="medial" 
d="M329 77q-56 -32 -80 -44t-66 -22.5t-95 -10.5h-88l-16 3v147l16 3h153q83 0 175 24q25 8 52 12q-68 20 -121 52q-105 64 -120 71l-83 -57l-26 29q4 6 10.5 17t26 38t37.5 47.5t40 37.5t39 17q8 0 16.5 -3t22 -10t25 -14t34 -21t39.5 -24q106 -64 211 -64h85l9 -31
l-51 -102h-2q13 -19 54 -19h51l16 -3v-147l-16 -3h-68q-60 0 -82.5 49t-12.5 116q-15 -1 -33 -6.5t-39 -16.5t-35.5 -19t-40.5 -24t-37 -22zM534 -45q-37 -47 -74 -79l-67 67q-35 -35 -64 -67q-54 45 -76 79q13 18 32 37t31 28l13 10q30 -22 64 -61q13 16 30 31t27 22l10 8
q20 -15 38.5 -34t27.5 -30zM394 -256q-54 43 -77 76q13 20 32.5 39.5t32.5 28.5l12 10q20 -15 38.5 -34.5t27.5 -31.5l8 -12q-37 -44 -74 -76z" />
    <glyph glyph-name="uniFB7F" unicode="&#x687;" horiz-adv-x="651" arabic-form="final" 
d="M648 -186q-39 -25 -141 -78.5t-118 -53.5q-109 0 -195.5 39t-105.5 87q-14 32 -25.5 95.5t-8.5 84.5q10 75 71 140t116 88q27 11 106 18l1 7q-39 3 -80.5 10.5t-81 16.5t-52.5 11l-83 -75l-32 26q3 7 9 19t23.5 43t33 54.5t35 42.5t32.5 19t135.5 -24.5t216.5 -24.5h106
l9 -25l-45 -105h-39v4q-2 -44 18 -62t72 -18h36l16 -3v-147l-16 -3h-43q-61 0 -95 30t-37 78.5t12 108.5q-61 -22 -139.5 -63t-138.5 -83q-98 -72 -112 -139q90 -90 322 -90l208 9zM423 -121l-5 3q-4 4 -10 9t-13 11t-14.5 13.5t-11.5 13.5q-22 -27 -53 -50q-2 1 -11 8.5
t-24 22t-25 27.5q13 19 53 56q-37 31 -53 55q6 8 14.5 17t16 16t14 12.5t11.5 9.5l4 4q21 -16 53 -51q10 12 23 24t22 20l9 7q7 -5 13.5 -11t12 -11.5t10.5 -11t9 -10t7 -8t5 -5.5l1 -2q-1 -1 -9 -11t-20.5 -23t-21.5 -21q11 -11 23.5 -24.5t20 -22t7.5 -9.5q-1 -2 -8 -10
t-21 -22.5t-29 -25.5zM369 -56l49 49l-49 49l-47 -49z" />
    <glyph glyph-name="uniFB80" unicode="&#x687;" horiz-adv-x="654" arabic-form="initial" 
d="M328 77q-56 -32 -80 -44t-65.5 -22.5t-94.5 -10.5h-88l-16 3v147l16 3h152q85 0 171 23q36 10 56 13q-68 20 -121 52q-108 65 -119 71l-83 -57l-27 29q4 6 10.5 17t26 38t37.5 47.5t40 37.5t39 17q8 0 16.5 -3t22 -10t25.5 -14t34 -21t40 -24q42 -26 90.5 -41.5t74.5 -19
t45 -3.5h92l9 -31l-47 -102h-81q-23 -4 -51.5 -19.5t-67.5 -40.5t-56 -35zM509 -234l-9 7q-8 7 -18 15t-21.5 20t-18.5 22q-28 -35 -66 -64q-4 3 -14.5 11.5t-29 27t-30.5 35.5q17 28 65 70q-46 40 -65 71q12 17 30.5 35.5t30 28t13.5 10.5q23 -17 66 -64q6 7 12.5 14
t12.5 13t12.5 12t11.5 10.5t9 7.5t6 5l3 2q18 -14 35.5 -32.5t27.5 -30.5l9 -11l-5 -5q-4 -6 -11 -14t-15 -17.5t-17 -19t-16 -15.5q9 -8 18.5 -18t17 -18.5t14 -16t10.5 -12.5l4 -5l-4 -5q-4 -5 -10.5 -13t-15 -17t-20 -19.5t-22.5 -19.5zM442 -152l60 62l-60 63l-60 -63z
" />
    <glyph glyph-name="uniFB81" unicode="&#x687;" horiz-adv-x="677" arabic-form="medial" 
d="M329 77q-56 -32 -80 -44t-66 -22.5t-95 -10.5h-88l-16 3v147l16 3h153q83 0 175 24q25 8 52 12q-68 20 -121 52q-105 64 -120 71l-83 -57l-26 29q4 6 10.5 17t26 38t37.5 47.5t40 37.5t39 17q8 0 16.5 -3t22 -10t25 -14t34 -21t39.5 -24q106 -64 211 -64h85l9 -31
l-51 -102h-2q13 -19 54 -19h51l16 -3v-147l-16 -3h-68q-60 0 -82.5 49t-12.5 116q-15 -1 -33 -6.5t-39 -16.5t-35.5 -19t-40.5 -24t-37 -22zM463 -258l-9 7q-8 7 -18 15.5t-21.5 20t-18.5 21.5q-34 -39 -66 -64l-6 4q-5 5 -13 12t-17.5 16t-19.5 20t-18 22q21 32 65 70
q-49 46 -65 71q13 17 31 35.5t29.5 28t13.5 10.5q30 -22 66 -64q6 7 12.5 14t12.5 13t12.5 12t11.5 10.5t9 7.5t6 5l3 2q18 -14 36 -32.5t26.5 -29t9.5 -12.5q-1 -2 -11 -14t-25.5 -29t-27.5 -27q14 -13 30 -30.5t24.5 -28t9.5 -12.5q-1 -2 -9.5 -12.5t-26.5 -29t-36 -32.5z
M396 -176l60 63l-60 62l-59 -62z" />
    <glyph glyph-name="uniFB83" unicode="&#x68d;" horiz-adv-x="502" arabic-form="final" 
d="M502 0h-14q-53 0 -88 22.5t-63 87.5l-62 -98q-4 -3 -46.5 -7.5t-70.5 -4.5q-135 0 -135 118q0 40 14 85.5t24 64.5l44 -11q-5 -35 -5 -49q0 -15 5 -25.5t29 -20t68 -9.5q41 0 115 4l-106 268l89 99h35l95 -316q8 -27 19 -39t20.5 -14t32.5 -2l16 -3v-147zM390 -148
q-14 -20 -34.5 -40.5t-33.5 -31.5l-14 -10q-36 27 -68 66q-14 -17 -31.5 -33.5t-28.5 -24.5l-10 -8q-22 16 -42 36.5t-30 33.5l-9 12q40 49 81 83q42 -35 70 -68q40 45 68 68q57 -47 82 -83z" />
    <glyph glyph-name="uniFB85" unicode="&#x68c;" horiz-adv-x="502" arabic-form="final" 
d="M440 681q-14 -20 -34.5 -40.5t-33.5 -30.5l-14 -11q-37 28 -68 66q-14 -17 -31.5 -33.5t-28.5 -24.5l-10 -8q-22 16 -42 36.5t-29 32.5l-9 13q40 48 80 83q43 -35 70 -68q32 36 68 68q58 -47 82 -83zM502 0h-14q-53 0 -88 22.5t-63 87.5l-62 -98q-4 -3 -46.5 -7.5
t-70.5 -4.5q-135 0 -135 118q0 40 14 85.5t24 64.5l44 -11q-5 -35 -5 -49q0 -15 5 -25.5t29 -20t68 -9.5q41 0 115 4l-106 268l89 99h35l95 -316q8 -27 19 -39t20.5 -14t32.5 -2l16 -3v-147z" />
    <glyph glyph-name="uniFB87" unicode="&#x68e;" horiz-adv-x="502" arabic-form="final" 
d="M290 734q-20 15 -38.5 34.5t-27.5 31.5l-8 12q37 44 74 76q54 -43 77 -76q-13 -20 -32.5 -39.5t-32.5 -28.5zM355 602q-30 22 -64 61q-13 -16 -30 -31t-27 -22l-10 -8q-20 15 -38.5 34t-27.5 30l-8 11q37 47 74 79l67 -67q35 35 64 67q54 -45 76 -79q-13 -18 -32 -37
t-31 -28zM502 0h-14q-53 0 -88 22.5t-63 87.5l-62 -98q-4 -3 -46.5 -7.5t-70.5 -4.5q-135 0 -135 118q0 40 14 85.5t24 64.5l44 -11q-5 -35 -5 -49q0 -15 5 -25.5t29 -20t68 -9.5q41 0 115 4l-106 268l89 99h35l95 -316q8 -27 19 -39t20.5 -14t32.5 -2l16 -3v-147z" />
    <glyph glyph-name="uniFB89" unicode="&#x688;" horiz-adv-x="502" arabic-form="final" 
d="M302 709q58 0 92 6q-27 42 -60 42q-41 0 -95 -47q23 -1 63 -1zM281 617l-83 7l-90 73l3 17q18 -2 83 -4l4 7q-6 81 -10 147l-13 39l59 54l15 -10v-20l26 -53l-22 -23v-26q0 -5 -5.5 -19.5t-10.5 -26.5l-5 -12l1 -1q66 81 116 81q34 0 60.5 -40t26.5 -75q0 -12 -21.5 -51
t-29.5 -44q-10 -6 -40.5 -13t-63.5 -7zM502 0h-14q-53 0 -88 22.5t-63 87.5l-62 -98q-4 -3 -46.5 -7.5t-70.5 -4.5q-135 0 -135 118q0 40 14 85.5t24 64.5l44 -11q-5 -35 -5 -49q0 -15 5 -25.5t29 -20t68 -9.5q41 0 115 4l-106 268l89 99h35l95 -316q8 -27 19 -39t20.5 -14
t32.5 -2l16 -3v-147z" />
    <glyph glyph-name="uniFB8B" unicode="&#x698;" horiz-adv-x="373" arabic-form="final" 
d="M198 600q-20 15 -38.5 34.5t-27.5 31.5l-8 12q37 44 74 76q54 -43 77 -76q-13 -20 -32.5 -39.5t-32.5 -28.5zM263 468q-30 22 -64 61q-13 -16 -30 -31t-27 -22l-10 -8q-20 15 -38.5 34t-27.5 30l-8 11q37 47 74 79l67 -67q35 35 64 67q54 -45 76 -79q-13 -18 -32 -37
t-31 -28zM96 -213q-21 0 -88.5 48.5t-85.5 67.5l20 44q42 -12 73 -12q129 0 205 160q-14 26 -74 167l81 94h26l17 -67q22 -87 40.5 -111.5t62.5 -24.5l16 -3v-147l-16 -3h-12q-46 0 -89 47q-2 -31 -11.5 -70.5t-29 -84.5t-55 -75t-80.5 -30z" />
    <glyph glyph-name="uniFB8D" unicode="&#x691;" horiz-adv-x="373" arabic-form="final" 
d="M215 553q58 0 92 6q-27 42 -60 42q-41 0 -95 -47q23 -1 63 -1zM194 461l-83 7l-90 73l3 17q18 -2 83 -4l4 7q-6 81 -10 147l-13 39l59 54l15 -10v-20l26 -53l-22 -23v-26q0 -5 -5 -19.5t-11 -26.5l-5 -12l1 -1q66 81 116 81q34 0 60.5 -40t26.5 -75q0 -12 -21.5 -51
t-29.5 -44q-10 -6 -40.5 -13t-63.5 -7zM96 -213q-21 0 -88.5 48.5t-85.5 67.5l20 44q42 -12 73 -12q129 0 205 160q-14 26 -74 167l81 94h26l17 -67q22 -87 40.5 -111.5t62.5 -24.5l16 -3v-147l-16 -3h-12q-46 0 -89 47q-2 -31 -11.5 -70.5t-29 -84.5t-55 -75t-80.5 -30z
" />
    <glyph glyph-name="uniFB8F" unicode="&#x6a9;" horiz-adv-x="850" arabic-form="final" 
d="M521 19q-27 -9 -67.5 -13.5t-68 -5t-96.5 -0.5q-70 0 -121 14.5t-78.5 35.5t-43.5 52.5t-20 56.5t-4 57q0 45 19.5 99.5t38.5 86.5l20 31l32 -19q-32 -78 -32 -129q0 -132 208 -132q145 0 229 9q-9 54 -42 113q-10 17 -24.5 41t-24.5 41t-12 21q-5 8 23.5 79t43.5 79
l289 176l18 -19l-29 -134l-221 -124l88 -133q60 -87 97.5 -118t94.5 -31h12l16 -3v-147l-16 -3h-11q-42 0 -72.5 9t-58 32t-47.5 47.5t-52 71.5q-72 -136 -88 -141z" />
    <glyph glyph-name="uniFB90" unicode="&#x6a9;" horiz-adv-x="470" arabic-form="initial" 
d="M140 0h-140l-16 3v147l16 3h152q129 0 190 6q-53 62 -186 135l-14 -18l-102 62q-8 5 21 89t41 90l336 195l19 -20l-30 -135l-244 -114q236 -125 236 -243q0 -16 -38.5 -90t-51.5 -84q-33 -26 -189 -26z" />
    <glyph glyph-name="uniFB91" unicode="&#x6a9;" horiz-adv-x="474" arabic-form="medial" 
d="M133 16q-32 -16 -89 -16h-44l-16 3v147l16 3h67q75 0 93 6q-9 55 -42 116q-9 15 -24.5 40.5t-25.5 42t-12 20.5q-5 8 24 79t44 79l289 176l18 -19l-29 -134l-222 -124q85 -125 88 -133q62 -88 99 -118.5t93 -30.5h14l16 -3v-147l-16 -3h-12q-79 0 -124 35.5t-113 133.5
q-73 -146 -92 -153z" />
    <glyph glyph-name="uniFB93" unicode="&#x6af;" horiz-adv-x="850" arabic-form="final" 
d="M461 586l6 56l314 183l7 -9l-5 -54l-315 -185zM521 19q-27 -9 -67.5 -13.5t-68 -5t-96.5 -0.5q-70 0 -121 14.5t-78.5 35.5t-43.5 52.5t-20 56.5t-4 57q0 45 19.5 99.5t38.5 86.5l20 31l32 -19q-32 -78 -32 -129q0 -132 208 -132q145 0 229 9q-9 54 -42 113
q-10 17 -24.5 41t-24.5 41t-12 21q-5 8 23.5 79t43.5 79l289 176l18 -19l-29 -134l-221 -124l88 -133q60 -87 97.5 -118t94.5 -31h12l16 -3v-147l-16 -3h-11q-42 0 -72.5 9t-58 32t-47.5 47.5t-52 71.5q-72 -136 -88 -141z" />
    <glyph glyph-name="uniFB94" unicode="&#x6af;" horiz-adv-x="472" arabic-form="initial" 
d="M71 570l6 56l346 199l7 -9l-5 -54l-347 -200zM140 0h-140l-16 3v147l16 3h152q129 0 190 6q-53 62 -186 135l-14 -18l-102 62q-8 5 21 89t41 90l336 195l19 -20l-30 -135l-244 -114q236 -125 236 -243q0 -16 -38.5 -90t-51.5 -84q-33 -26 -189 -26z" />
    <glyph glyph-name="uniFB95" unicode="&#x6af;" horiz-adv-x="474" arabic-form="medial" 
d="M83 586l6 56l314 183l7 -9l-5 -54l-315 -185zM133 16q-32 -16 -89 -16h-44l-16 3v147l16 3h67q75 0 93 6q-9 55 -42 116q-9 15 -24.5 40.5t-25.5 42t-12 20.5q-5 8 24 79t44 79l289 176l18 -19l-29 -134l-222 -124q85 -125 88 -133q62 -88 99 -118.5t93 -30.5h14l16 -3
v-147l-16 -3h-12q-79 0 -124 35.5t-113 133.5q-73 -146 -92 -153z" />
    <glyph glyph-name="uniFB97" unicode="&#x6b3;" horiz-adv-x="850" arabic-form="final" 
d="M461 585l5 56l315 183l6 -8l-5 -55l-315 -184zM521 19q-27 -9 -67.5 -13.5t-68 -5t-96.5 -0.5q-70 0 -121 14.5t-78.5 35.5t-43.5 52.5t-20 56.5t-4 57q0 45 19.5 99.5t38.5 86.5l20 31l32 -19q-32 -78 -32 -129q0 -132 208 -132q145 0 229 9q-9 54 -42 113
q-10 17 -24.5 41t-24.5 41t-12 21q-5 8 23.5 79t43.5 79l289 176l18 -19l-29 -134l-221 -124l88 -133q60 -87 97.5 -118t94.5 -31h12l16 -3v-147l-16 -3h-11q-42 0 -72.5 9t-58 32t-47.5 47.5t-52 71.5q-72 -136 -88 -141zM357 -338q-48 40 -82 81q35 42 67 70
q-41 36 -67 68q47 57 82 82q20 -14 40.5 -34.5t30.5 -34.5l11 -13q-27 -38 -66 -68q17 -14 33.5 -31.5t24.5 -27.5l8 -11q-16 -22 -36.5 -42.5t-32.5 -29.5z" />
    <glyph glyph-name="uniFB98" unicode="&#x6b3;" horiz-adv-x="470" arabic-form="initial" 
d="M70 571l6 56l345 198l7 -9l-5 -54l-347 -200zM140 0h-140l-16 3v147l16 3h152q129 0 190 6q-53 62 -186 135l-14 -18l-102 62q-8 5 21 89t41 90l336 195l19 -20l-30 -135l-244 -114q236 -125 236 -243q0 -16 -38.5 -90t-51.5 -84q-33 -26 -189 -26zM217 -339
q-49 40 -83 81q35 42 68 70q-41 36 -68 68q47 57 83 82q20 -14 40.5 -34.5t30.5 -33.5l11 -14q-30 -41 -66 -68q17 -14 33.5 -31.5t24.5 -28.5l8 -10q-16 -22 -36.5 -42t-32.5 -30z" />
    <glyph glyph-name="uniFB99" unicode="&#x6b3;" horiz-adv-x="474" arabic-form="medial" 
d="M83 585l6 56l315 183l6 -8l-5 -55l-315 -184zM133 16q-32 -16 -89 -16h-44l-16 3v147l16 3h67q75 0 93 6q-9 55 -42 116q-9 15 -24.5 40.5t-25.5 42t-12 20.5q-5 8 24 79t44 79l289 176l18 -19l-29 -134l-222 -124q85 -125 88 -133q62 -88 99 -118.5t93 -30.5h14l16 -3
v-147l-16 -3h-12q-79 0 -124 35.5t-113 133.5q-73 -146 -92 -153zM240 -303q-49 40 -83 81q35 42 68 70q-45 40 -68 68q47 57 83 82q20 -14 40.5 -34.5t31.5 -33.5l10 -14q-24 -32 -66 -69q17 -14 33.5 -31t24.5 -28l8 -10q-16 -22 -36.5 -42.5t-33.5 -29.5z" />
    <glyph glyph-name="uniFB9B" unicode="&#x6b1;" horiz-adv-x="850" arabic-form="final" 
d="M778 901q-14 -20 -34.5 -40.5t-33.5 -30.5l-14 -11q-37 28 -68 66q-14 -17 -31.5 -33.5t-28.5 -24.5l-10 -8q-22 16 -42 36.5t-29 32.5l-9 13q40 48 80 83q43 -35 70 -68q32 36 68 68q58 -47 82 -83zM461 586l6 56l314 183l7 -9l-5 -54l-315 -185zM521 19
q-27 -9 -67.5 -13.5t-68 -5t-96.5 -0.5q-70 0 -121 14.5t-78.5 35.5t-43.5 52.5t-20 56.5t-4 57q0 45 19.5 99.5t38.5 86.5l20 31l32 -19q-32 -78 -32 -129q0 -132 208 -132q145 0 229 9q-9 54 -42 113q-10 17 -24.5 41t-24.5 41t-12 21q-5 8 23.5 79t43.5 79l289 176
l18 -19l-29 -134l-221 -124l88 -133q60 -87 97.5 -118t94.5 -31h12l16 -3v-147l-16 -3h-11q-42 0 -72.5 9t-58 32t-47.5 47.5t-52 71.5q-72 -136 -88 -141z" />
    <glyph glyph-name="uniFB9C" unicode="&#x6b1;" horiz-adv-x="470" arabic-form="initial" 
d="M401 901q-14 -20 -34.5 -40.5t-34.5 -30.5l-13 -11q-37 28 -68 66q-14 -17 -31.5 -33.5t-27.5 -24.5l-11 -8q-22 16 -42 36.5t-29 32.5l-9 13q40 48 80 83q43 -35 70 -68q32 36 68 68q58 -47 82 -83zM76 562l-7 8l6 56l346 199l7 -9l-5 -54zM140 0h-140l-16 3v147l16 3
h152q129 0 190 6q-53 62 -186 135l-14 -18l-102 62q-8 5 21 89t41 90l336 195l19 -20l-30 -135l-244 -114q236 -125 236 -243q0 -16 -38.5 -90t-51.5 -84q-33 -26 -189 -26z" />
    <glyph glyph-name="uniFB9D" unicode="&#x6b1;" horiz-adv-x="474" arabic-form="medial" 
d="M388 896q-14 -20 -34.5 -40.5t-33.5 -31.5l-14 -10q-41 30 -68 66q-14 -17 -31.5 -33.5t-28.5 -24.5l-10 -8q-22 16 -42 36.5t-30 33.5l-9 12q40 48 81 82q42 -35 70 -67q36 41 68 67q58 -46 82 -82zM83 585l6 56l315 183l6 -8l-5 -55l-315 -184zM133 16q-32 -16 -89 -16
h-44l-16 3v147l16 3h67q75 0 93 6q-9 55 -42 116q-9 15 -24.5 40.5t-25.5 42t-12 20.5q-5 8 24 79t44 79l289 176l18 -19l-29 -134l-222 -124q85 -125 88 -133q62 -88 99 -118.5t93 -30.5h14l16 -3v-147l-16 -3h-12q-79 0 -124 35.5t-113 133.5q-73 -146 -92 -153z" />
    <glyph glyph-name="uniFB9F" unicode="&#x6ba;" horiz-adv-x="648" arabic-form="final" 
d="M244 -213q-63 0 -108.5 16.5t-69 46t-33.5 61t-10 69.5q0 54 21.5 114t42.5 93l21 33l36 -18q-31 -78 -31 -128q0 -132 161 -132q85 0 177 32l-44 278l104 83h35l4 -77q7 -75 20.5 -90t77.5 -15l16 -3v-147l-16 -3q-68 0 -99 62q-22 -63 -52 -132t-43 -81
q-25 -24 -87 -43t-123 -19z" />
    <glyph glyph-name="uniFBA1" unicode="&#x6bb;" horiz-adv-x="648" arabic-form="final" 
d="M262 408q58 0 92 6q-27 42 -60 42q-41 0 -95 -47q23 -1 63 -1zM241 316l-83 7l-90 73l3 17q18 -2 83 -4l4 7q-6 81 -10 147l-13 39l59 54l15 -10v-20l26 -53l-22 -23v-26q0 -5 -5.5 -19.5t-10.5 -26.5l-5 -12l1 -1q66 81 116 81q34 0 60.5 -40t26.5 -75q0 -12 -21.5 -51
t-29.5 -44q-10 -6 -40.5 -13t-63.5 -7zM244 -213q-63 0 -108.5 16.5t-69 46t-33.5 61t-10 69.5q0 54 21.5 114t42.5 93l21 33l36 -18q-31 -78 -31 -128q0 -132 161 -132q85 0 177 32l-44 278l104 83h35l4 -77q7 -75 20.5 -90t77.5 -15l16 -3v-147l-16 -3q-68 0 -99 62
q-22 -63 -52 -132t-43 -81q-25 -24 -87 -43t-123 -19z" />
    <glyph glyph-name="uniFBA2" unicode="&#x6bb;" horiz-adv-x="290" arabic-form="initial" 
d="M177 651q63 0 92 5q-29 42 -61 42q-41 0 -95 -47h64zM155 558l-83 7l-89 74l3 17q18 -2 83 -4l4 6q-1 9 -3 34t-4 54.5t-4 58.5l-12 39l58 55l16 -11v-19l26 -54l-22 -23l-1 -25q0 -5 -5.5 -20t-10.5 -27l-5 -12l2 -1q64 81 115 81q34 0 61 -39.5t27 -74.5
q0 -12 -21.5 -51.5t-30.5 -44.5q-10 -6 -40.5 -13t-63.5 -7zM0 0l-16 3v147l16 3q101 0 141 6q-8 41 -22.5 93t-24.5 83l-10 31l87 94h35l51 -145l-2 -24l-29 -30q5 -47 5 -59q0 -24 -48.5 -100.5t-69.5 -85.5q-38 -16 -113 -16z" />
    <glyph glyph-name="uniFBA3" unicode="&#x6bb;" horiz-adv-x="316" arabic-form="medial" 
d="M186 557q58 0 92 6q-27 42 -60 42q-41 0 -95 -47q23 -1 63 -1zM165 465l-83 7l-90 73l3 17q18 -2 83 -4l4 7q-6 81 -10 147l-13 39l59 54l15 -10v-20l26 -53l-22 -23v-26q0 -5 -5.5 -19.5t-10.5 -26.5l-5 -12l1 -1q66 81 116 81q34 0 60.5 -40t26.5 -75q0 -12 -21.5 -51
t-29.5 -44q-10 -6 -40.5 -13t-63.5 -7zM316 0h-12q-95 0 -166 87q-56 -66 -74 -79q-17 -8 -64 -8l-16 3v147l16 3q54 0 89 5l42 149l87 53l26 -7q-6 -114 -21 -190q33 -10 93 -10l16 -3v-147z" />
    <glyph glyph-name="uniFBA5" unicode="&#x6c0;" horiz-adv-x="468" arabic-form="final" 
d="M315 572q-9 -5 -62 -18t-64 -13q-6 0 -28.5 17.5t-42.5 35.5l-20 17l6 27q52 0 63 2v1q-18 10 -18 42q0 41 28 82.5t71 41.5q29 0 47 -27.5t21 -55.5l4 -27l-23 -6q-16 16 -37 16q-32 0 -74 -22q15 -34 63 -34q41 0 96 21l5 -7zM484 3l-16 -3h-30q-64 0 -100 41t-52 117
l-68 -113q-20 -9 -64 -9q-47 0 -81 21t-47 48q-7 16 0.5 76.5t18.5 75.5q74 91 205 153l-5 51l100 72h36v-280q0 -74 9 -87t66 -13h12l16 -3v-147zM188 189q41 0 81 5q-3 29 -11 119q-117 -48 -175 -98q39 -26 105 -26z" />
    <glyph glyph-name="uniFBA7" unicode="&#x6c1;" horiz-adv-x="464" arabic-form="final" 
d="M480 3l-16 -3q-73 0 -105.5 44.5t-45.5 124.5q-67 -2 -154.5 -41t-140.5 -82l-15 16l67 158q58 43 117 67.5t90 24.5q49 0 67.5 -21t23.5 -62q4 -21 6.5 -29t11.5 -22t28 -19.5t50 -5.5l16 -3v-147z" />
    <glyph glyph-name="uniFBA8" unicode="&#x6c1;" horiz-adv-x="290" arabic-form="initial" 
d="M0 0l-16 3v147l16 3q95 0 137 6q-8 41 -22.5 93t-24.5 83l-10 31l91 94h35l50 -145l-1 -24l-30 -30q6 -38 6 -59q-1 -25 -50 -101t-69 -85q-38 -16 -112 -16zM132 -283q-10 4 -26 10.5t-43 24.5t-29 33q-3 31 18.5 77.5t68.5 87.5l37 -28q-41 -62 -41 -79q53 -30 60 -35
v-20z" />
    <glyph glyph-name="uniFBA9" unicode="&#x6c1;" horiz-adv-x="448" arabic-form="medial" 
d="M260 -296h-3q-78 77 -118.5 148.5t-40.5 157.5q0 20 3 34q-35 -37 -38 -39q-8 -5 -63 -5l-16 3v147l16 3q108 0 152 12q3 5 12 20.5t13 24.5l79 33l8 -13q-75 -137 -75 -191q0 -38 17.5 -74t61.5 -87l2 1q-10 29 -10 73q0 46 8 78q5 16 47.5 65t50.5 51q35 7 82 7l16 -3
v-147l-16 -3h-45q-46 0 -73 -3q-9 -23 -9 -54q0 -48 52 -118q2 -11 -113 -121zM102 -378q-94 39 -99 68q-3 31 19 77.5t68 87.5l37 -28q-41 -61 -41 -79q7 -4 21.5 -12.5t25 -14.5t14.5 -8v-20z" />
    <glyph glyph-name="uniFBAB" unicode="&#x6be;" horiz-adv-x="611" arabic-form="final" 
d="M252 153h13q123 3 177 40q-12 36 -31 61.5t-38 25.5q-24 0 -62 -35t-59 -92zM431 -82q27 0 71 8q-34 90 -169 91q-26 0 -84 -9q53 -90 182 -90zM498 -215q-6 -5 -32 -10t-52 -5q-79 0 -138 61.5t-79 168.5l-46 7l-137 125l9 27q97 -5 176 -6q27 125 91.5 210t120.5 85
q33 0 59 -36.5t38 -80t12 -76.5q0 -23 -50 -102h141l16 -3v-147l-16 -3l-39 -2q-3 -40 -33 -121.5t-41 -91.5z" />
    <glyph glyph-name="uniFBAC" unicode="&#x6be;" horiz-adv-x="537" arabic-form="initial" 
d="M224 163l14 6q26 14 37 32q-10 53 -32.5 83.5t-46.5 30.5q-23 0 -50.5 -21.5t-48.5 -54.5q42 -38 127 -76zM433 92l-3 11q-25 75 -83 126q-2 -48 -51 -97q74 -28 137 -40zM503 110q1 -27 -38.5 -91t-57.5 -64q-28 0 -95.5 25.5t-129.5 63.5q-76 -44 -145 -44h-37l-16 3
v147l16 3l66 -1q-14 79 -9 100q18 67 68 112q-26 16 -28 16l57 130l35 8q178 -125 245 -213t69 -195z" />
    <glyph glyph-name="uniFBAD" unicode="&#x6be;" horiz-adv-x="485" arabic-form="medial" 
d="M374 -215q-6 -5 -32 -10t-52 -5q-79 0 -138 62t-80 169q-21 -1 -72 -1l-16 3v147l16 3h74q28 125 92.5 210t120.5 85q32 0 58.5 -36.5t38.5 -80t12 -76.5q0 -9 -15.5 -40.5t-35.5 -61.5h140l16 -3v-147l-16 -3l-37 -2q-3 -40 -33 -121.5t-41 -91.5zM127 153h14
q124 3 176 40q-14 35 -37.5 61t-42.5 26q-24 0 -57 -34.5t-53 -92.5zM306 -82q29 0 71 8q-32 90 -169 91q-25 0 -83 -9q51 -90 181 -90z" />
    <glyph glyph-name="uniFBAF" unicode="&#x6d2;" horiz-adv-x="616" arabic-form="final" 
d="M411 -258h-152q-53 0 -96 8.5t-66.5 18.5t-40.5 25t-21.5 21.5t-8.5 14.5q-3 7 -9 69t-4 68q6 22 28.5 51.5t59 60.5t94 52.5t122.5 21.5h299l16 -3v-147l-16 -3h-315q-145 0 -233 -84q65 -21 249 -21h292v-30z" />
    <glyph glyph-name="uniFBB1" unicode="&#x6d3;" horiz-adv-x="609" arabic-form="final" 
d="M247 227q-9 -5 -62 -18t-64 -13q-6 0 -28.5 17.5t-42.5 34.5l-20 18l6 27q52 0 63 2v1q-18 10 -18 42q0 41 28 82.5t71 41.5q29 0 47 -27.5t21 -54.5l4 -28l-23 -6q-16 16 -37 16q-32 0 -74 -22q15 -34 63 -34q41 0 96 21l5 -7zM411 -258h-152q-53 0 -96 8.5t-66.5 18.5
t-40.5 25t-21.5 21.5t-8.5 14.5q-3 7 -9 69t-4 68q6 22 28.5 51.5t59 60.5t94 52.5t122.5 21.5h299l16 -3v-147l-16 -3h-315q-145 0 -233 -84q65 -21 249 -21h292v-30z" />
    <glyph glyph-name="uniFBDA" unicode="&#x6c6;" horiz-adv-x="461" arabic-form="final" 
d="M267 497h-72l-8 6q-11 30 -37.5 62.5t-56.5 55.5l48 82l12 2q51 -51 82 -141q25 76 76 139l13 -1l39 -59q-78 -92 -96 -146zM333 153l-1 2q-14 36 -48 76t-68 40q-32 0 -60.5 -28.5t-45.5 -69.5q42 -20 123 -20h100zM204 -213q-21 0 -98 52t-92 69l20 44q83 -16 124 -16
q56 0 108.5 17t84.5 47h-105q-42 0 -75 7t-46 14t-17 13q-10 11 -28.5 75.5t-17.5 79.5q4 42 26 92t64 91t92 41q60 0 104.5 -75t61.5 -185h51l16 -3v-147l-16 -3h-59q-18 -85 -70 -149t-128 -64z" />
    <glyph glyph-name="uniFBE5" unicode="&#x6d0;" horiz-adv-x="639" arabic-form="final" 
d="M253 -250q-121 0 -175 56.5t-54 136.5q0 54 22 116t44 97l21 36l36 -18q-34 -77 -34 -127q0 -133 162 -133q73 0 147 15t121 37q-40 34 -123 34h-47l-4 10l40 137l9 6h221l16 -3v-147l-16 -3l-33 -2q-2 -24 -24 -87.5t-28 -68.5q-24 -17 -55.5 -34.5t-102 -37.5
t-143.5 -20zM327 -612q-49 40 -83 80q35 43 68 70q-41 36 -68 68q47 58 83 82q20 -14 40.5 -34.5t30.5 -33.5l11 -14q-24 -31 -66 -68q17 -14 33.5 -31.5t24.5 -28.5l8 -10q-16 -22 -36.5 -42t-32.5 -29z" />
    <glyph glyph-name="uniFBE6" unicode="&#x6d0;" horiz-adv-x="290" arabic-form="initial" 
d="M0 0l-16 3v147l16 3q95 0 137 6q-8 41 -22.5 93t-24.5 83l-10 31l91 94h35l50 -145l-1 -24l-30 -30q6 -38 6 -59q-1 -25 -50 -101t-69 -85q-38 -16 -112 -16zM127 -353q-49 39 -83 80q35 43 68 70q-41 36 -68 68q47 58 83 82q20 -14 40.5 -34.5t30.5 -34.5l10 -13
q-28 -38 -65 -68q17 -14 33 -31.5t24 -27.5l8 -11q-16 -22 -36 -42t-32 -29z" />
    <glyph glyph-name="uniFBE7" unicode="&#x6d0;" horiz-adv-x="317" arabic-form="medial" 
d="M316 0h-12q-95 0 -166 87q-56 -66 -74 -79q-17 -8 -64 -8l-16 3v147l16 3q54 0 89 5l42 149l87 53l26 -7q-6 -114 -21 -190q33 -10 93 -10l16 -3v-147zM153 -357q-48 40 -82 81q35 42 67 70q-41 36 -67 67q46 58 82 82q20 -14 40.5 -34.5t30.5 -34.5l11 -13
q-28 -37 -66 -68q17 -14 33.5 -31t24.5 -28l8 -10q-16 -22 -36.5 -42.5t-32.5 -29.5z" />
    <glyph glyph-name="uniFBE8" unicode="&#x649;" horiz-adv-x="290" arabic-form="initial" 
d="M0 0l-16 3v147l16 3q95 0 137 6q-8 41 -22.5 93t-24.5 83l-10 31l91 94h35l50 -145l-1 -24l-30 -30q6 -38 6 -59q-1 -25 -50 -101t-69 -85q-38 -16 -112 -16z" />
    <glyph glyph-name="uniFBE9" unicode="&#x649;" horiz-adv-x="316" arabic-form="medial" 
d="M316 0h-12q-95 0 -166 87q-56 -66 -74 -79q-17 -8 -64 -8l-16 3v147l16 3q54 0 89 5l42 149l87 53l26 -7q-6 -114 -21 -190q33 -10 93 -10l16 -3v-147z" />
    <glyph glyph-name="uniFBFD" unicode="&#x6cc;" horiz-adv-x="639" arabic-form="final" 
d="M253 -250q-121 0 -175 56.5t-54 136.5q0 54 22 116t44 97l21 36l36 -18q-34 -77 -34 -127q0 -133 162 -133q73 0 147 15t121 37q-40 34 -123 34h-47l-4 10l40 137l9 6h221l16 -3v-147l-16 -3l-33 -2q-2 -24 -24 -87.5t-28 -68.5q-24 -17 -55.5 -34.5t-102 -37.5
t-143.5 -20z" />
    <glyph glyph-name="uniFBFE" unicode="&#x6cc;" horiz-adv-x="290" arabic-form="initial" 
d="M0 0l-16 3v147l16 3q95 0 137 6q-8 41 -22.5 93t-24.5 83l-10 31l91 94h35l50 -145l-1 -24l-30 -30q6 -38 6 -59q-1 -25 -50 -101t-69 -85q-38 -16 -112 -16zM266 -132q-12 -19 -30.5 -37.5t-31.5 -27.5l-12 -9q-36 28 -62 60q-12 -16 -28 -31t-26 -22l-9 -7
q-20 14 -38.5 32.5t-26.5 29.5l-8 12q37 44 73 75q39 -31 63 -61q34 37 62 61q52 -42 74 -75z" />
    <glyph glyph-name="uniFBFF" unicode="&#x6cc;" horiz-adv-x="316" arabic-form="medial" 
d="M316 0h-12q-95 0 -166 87q-56 -66 -74 -79q-17 -8 -64 -8l-16 3v147l16 3q54 0 89 5l42 149l87 53l26 -7q-6 -114 -21 -190q33 -10 93 -10l16 -3v-147zM287 -132q-12 -18 -30.5 -36.5t-30.5 -27.5l-13 -10q-32 24 -62 59q-12 -15 -28 -30t-25 -22l-10 -7q-20 15 -38 33.5
t-26 29.5l-9 11q36 44 73 75q51 -43 63 -61q39 42 62 61q52 -43 74 -75z" />
    <glyph glyph-name="uniFC5E" unicode="&#xfc5e;" arabic-form="isolated" 
d="M191 813l1 2l3 16q0 15 -7.5 26t-20.5 11q-29 0 -48 -27q24 -17 72 -28zM266 785l-38 -54q-22 2 -39 7q-29 -32 -66 -51.5t-70 -19.5q-35 0 -49 18.5t-14 41.5q0 28 18 71l-65 -19l-12 31q15 13 49 35t41 22q14 0 26.5 -15.5t12.5 -30.5q0 -4 -3 -20.5t-3 -25.5
q0 -33 33 -33q29 0 55 13q-41 21 -48 41q-3 11 -3.5 36t3.5 36q10 21 34.5 43.5t51.5 22.5q30 0 45.5 -25t15.5 -57q0 -24 -9 -46q4 0 16 -1.5t18 -1.5v-18zM83 455q-12 -12 -44 -12t-49.5 25t-17.5 56q0 21 7 43t14 34l7 12l25 -6q-6 -28 -6 -46q0 -26 31 -26q1 0 22 3
l22 68l43 25l10 -7l-5 -79h-1q44 -10 63 -8l-19 81l60 33l10 -8q1 -15 1 -96q0 -12 -28 -52t-41 -40q-50 0 -85 29q-18 -29 -19 -29z" />
    <glyph glyph-name="uniFC5F" unicode="&#xfc5f;" arabic-form="isolated" 
d="M83 470q-12 -12 -43 -12q-33 0 -50.5 25t-17.5 56q0 21 7 43t15 34l7 12l25 -6q-6 -27 -6 -46q0 -25 30 -25q13 0 22 3l23 68l43 24l10 -7l-6 -78v-1q35 -8 62 -8l-18 81l59 33l11 -7q1 -15 1 -96q0 -12 -28 -52.5t-41 -40.5q-50 0 -86 30q-13 -24 -19 -30zM229 420
l-13 -62l-197 -56l-8 7l12 62l198 58zM213 285l-13 -62l-197 -56l-8 7l12 62l198 58z" />
    <glyph glyph-name="uniFC60" unicode="&#xfc60;" arabic-form="isolated" 
d="M240 787l-13 -62l-197 -56l-8 7l12 62l198 58zM83 455q-12 -12 -44 -12t-49.5 25t-17.5 56q0 21 7 43t14 34l7 12l25 -6q-6 -28 -6 -46q0 -26 31 -26q1 0 22 3l22 68l43 25l10 -7l-5 -79h-1q44 -10 63 -8l-19 81l60 33l10 -8q1 -15 1 -96q0 -12 -28 -52t-41 -40
q-50 0 -85 29q-18 -29 -19 -29z" />
    <glyph glyph-name="uniFC61" unicode="&#xfc61;" arabic-form="isolated" 
d="M175 787l1 2l4 16q0 15 -7.5 26t-20.5 11q-26 0 -47 -27q27 -20 70 -28zM250 760l-38 -55q-22 1 -50 10q-61 -48 -121 -57l-80 48l2 18q115 7 148 13q-27 17 -33 34q-2 10 -2 36t3 35q10 21 35 43.5t52 22.5q29 0 44 -27t15 -59q0 -22 -9 -42q2 0 15 -1.5t19 -1.5v-17z
M83 455q-12 -12 -44 -12t-49.5 25t-17.5 56q0 21 7 43t14 34l7 12l25 -6q-6 -28 -6 -46q0 -26 31 -26q1 0 22 3l22 68l43 25l10 -7l-5 -79h-1q44 -10 63 -8l-19 81l60 33l10 -8q1 -15 1 -96q0 -12 -28 -52t-41 -40q-50 0 -85 29q-18 -29 -19 -29z" />
    <glyph glyph-name="uniFC62" unicode="&#xfc62;" arabic-form="isolated" 
d="M83 462q-16 -12 -43 -12q-33 0 -50.5 25.5t-17.5 56.5q0 20 7 42.5t15 34.5l7 12l25 -6q-6 -28 -6 -46q0 -26 30 -26q13 0 22 3l23 68l43 25l10 -7l-6 -79q43 -10 62 -8l-18 81l59 33l11 -8q1 -15 1 -96q0 -12 -28 -52t-41 -40q-49 0 -86 29q-15 -26 -19 -30zM229 421
l-13 -62l-197 -56l-8 7l12 62l198 58z" />
    <glyph glyph-name="uniFC63" unicode="&#xfc63;" arabic-form="isolated" 
d="M90 847l59 22l14 -5l-13 -174l-44 -15h-16v172zM83 455q-12 -12 -44 -12t-49.5 25t-17.5 56q0 21 7 43t14 34l7 12l25 -6q-6 -28 -6 -46q0 -26 31 -26q1 0 22 3l22 68l43 25l10 -7l-5 -79h-1q44 -10 63 -8l-19 81l60 33l10 -8q1 -15 1 -96q0 -12 -28 -52t-41 -40
q-50 0 -85 29q-18 -29 -19 -29z" />
    <glyph glyph-name="uniFDF2" unicode="&#xfdf2;" horiz-adv-x="1062" arabic-form="isolated" 
d="M773 0q-59 0 -100.5 37.5t-57.5 109.5q-69 -127 -87 -137q-17 -10 -69 -10q-65 0 -100.5 40.5t-51.5 115.5l-69 -111q-20 -9 -63 -9q-47 0 -81 21t-47 48q-8 17 -0.5 77t18.5 75q74 91 205 153l-4 51l99 72h36v-280v-43t3 -27t5 -18.5t12.5 -7t19 -4.5h29.5q63 0 106 7
l-14 480l98 81h35v-488q0 -58 10.5 -69t67.5 -11q66 0 91 5l-9 352l-33 93l126 118l36 -18v-58l58 -116l-58 -60v-211q0 -44 -61 -137t-89 -111q-16 -10 -61 -10zM208 189q33 0 81 6q-1 8 -10 111q-108 -44 -171 -94q39 -23 100 -23z" />
    <glyph glyph-name="uniFDFC" unicode="&#xfdfc;" horiz-adv-x="1124" arabic-form="isolated" 
d="M273 -213q-63 0 -108 16.5t-68.5 46t-33.5 61t-10 69.5q0 34 9 71t21.5 66t25.5 53t22 37l9 13l36 -18q-34 -78 -34 -128q0 -132 162 -132q70 0 154 26l-10 195q-76 -46 -130 -46q-46 0 -75 35t-29 94q0 37 19.5 88t37.5 75l37 -16q-22 -40 -22 -81q0 -29 12.5 -39
t34.5 -10q46 0 108 36l-17 339l103 83h27v-341l82 70l-1 188l97 83h27v-164q91 72 136 72q36 0 52.5 -41.5t14.5 -83.5l-1 -41l-27 -7q-33 33 -58 33q-35 0 -117 -68v-235q0 -22 18 -27.5t77 -5.5q76 0 110 4l-51 191l98 93h34l46 -126l-2 -24l-29 -29q5 -38 5 -47
q-1 -25 -50 -107.5t-69 -91.5q-38 -16 -91 -16h-1h-1q-108 1 -158 78t-58 236q-27 -25 -83 -73v-161q0 -44 -44 -135t-66 -111q-16 -14 -68.5 -30.5t-102.5 -16.5zM1007 -130q-14 -20 -34 -39.5t-33 -29.5l-13 -10q-41 31 -66 64q-13 -16 -30 -32t-27 -24l-11 -8
q-21 16 -40.5 35.5t-28.5 31.5l-9 12q39 47 78 80q41 -34 68 -65q45 48 66 65q56 -45 80 -80z" />
    <glyph glyph-name="uniFE82" unicode="&#x622;" horiz-adv-x="313" arabic-form="final" 
d="M284 701q-54 -18 -139 -18q-51 0 -95 11l-34 -56l-27 11q13 61 23 82q3 6 34 40.5t37 34.5t38.5 -1.5t52.5 -1.5q90 0 154 9l7 -13zM313 0q-119 0 -169.5 90.5t-51.5 276.5l-2 170l98 83h35v-434q0 -23 15.5 -28t74.5 -5l16 -3v-147z" />
    <glyph glyph-name="uniFE84" unicode="&#x623;" horiz-adv-x="272" arabic-form="final" 
d="M212 679q-10 -5 -62 -18t-64 -13q-6 0 -28.5 17.5t-42.5 34.5l-20 18l7 27q51 0 62 2v1q-18 10 -18 42q0 41 28.5 82.5t71.5 41.5q28 0 46 -27.5t22 -54.5l3 -28l-23 -6q-16 16 -37 16q-32 0 -74 -22q16 -34 64 -34q40 0 95 21l5 -7zM288 150v-147l-16 -3
q-117 0 -168 90.5t-52 276.5l-1 170l98 83h35v-434q0 -23 15 -28t73 -5z" />
    <glyph glyph-name="uniFE86" unicode="&#x624;" horiz-adv-x="461" arabic-form="final" 
d="M307 499q-9 -5 -62 -18t-64 -13q-6 0 -28.5 17.5t-42.5 34.5l-20 18l6 27q52 0 63 2v1q-18 10 -18 42q0 41 28 82.5t71 41.5q29 0 47 -27.5t21 -54.5l4 -28l-23 -6q-16 16 -37 16q-32 0 -74 -22q15 -34 63 -34q41 0 96 21l5 -7zM233 153h100l-1 2q-14 36 -48 76t-68 40
q-32 0 -60.5 -28.5t-45.5 -69.5q42 -20 123 -20zM204 -213q-21 0 -98 52t-92 69l20 44q83 -16 124 -16q56 0 108.5 17t84.5 47h-105q-42 0 -75 7t-46 14t-17 13q-10 11 -28.5 75.5t-17.5 79.5q4 42 26 92t64 91t92 41q60 0 104.5 -75t61.5 -185h51l16 -3v-147l-16 -3h-59
q-18 -85 -70 -149t-128 -64z" />
    <glyph glyph-name="uniFE88" unicode="&#x625;" horiz-adv-x="278" arabic-form="final" 
d="M278 0q-116 0 -162 84.5t-51 273.5l-8 282l98 81h34v-535q0 -23 15.5 -28t73.5 -5l16 -3v-147zM228 -258q-10 -5 -62 -18t-64 -13q-6 0 -28.5 17.5t-42.5 35.5l-20 17l6 27q52 0 63 2v1q-18 10 -18 42q0 41 28 82.5t71 41.5q29 0 47 -27.5t22 -55.5l3 -27l-23 -6
q-16 16 -37 16q-32 0 -74 -22q15 -34 63 -34q41 0 96 21l5 -7z" />
    <glyph glyph-name="uniFE8A" unicode="&#x626;" horiz-adv-x="638" arabic-form="final" 
d="M227 287q-9 -5 -62 -18t-64 -13q-6 0 -28.5 17.5t-42.5 34.5l-20 18l6 27q52 0 63 2v1q-18 10 -18 42q0 41 28 82.5t71 41.5q29 0 47 -27.5t21 -54.5l4 -28l-23 -6q-16 16 -37 16q-32 0 -74 -22q15 -34 63 -34q41 0 96 21l5 -7zM253 -250q-121 0 -175 56.5t-54 136.5
q0 54 22 116t44 97l21 36l36 -18q-34 -77 -34 -127q0 -133 162 -133q73 0 147 15t121 37q-40 34 -123 34h-47l-4 10l40 137l9 6h221l16 -3v-147l-16 -3l-33 -2q-2 -24 -24 -87.5t-28 -68.5q-24 -17 -55.5 -34.5t-102 -37.5t-143.5 -20z" />
    <glyph glyph-name="uniFE8B" unicode="&#x626;" horiz-adv-x="290" arabic-form="initial" 
d="M239 537q-9 -5 -62 -18t-64 -13q-6 0 -28.5 17.5t-42.5 34.5l-20 18l6 27q52 0 63 2v1q-18 10 -18 42q0 41 28 82.5t71 41.5q29 0 47 -27.5t21 -54.5l4 -28l-23 -6q-16 16 -37 16q-32 0 -74 -22q15 -34 63 -34q41 0 96 21l5 -7zM0 0l-16 3v147l16 3q95 0 137 6
q-8 41 -22.5 93t-24.5 83l-10 31l91 94h35l50 -145l-1 -24l-30 -30q6 -38 6 -59q-1 -25 -50 -101t-69 -85q-38 -16 -112 -16z" />
    <glyph glyph-name="uniFE8C" unicode="&#x626;" horiz-adv-x="316" arabic-form="medial" 
d="M259 457q-9 -5 -62 -18t-64 -13q-6 0 -28.5 17.5t-42.5 34.5l-20 18l6 27q52 0 63 2v1q-18 10 -18 42q0 41 28 82.5t71 41.5q29 0 47 -27.5t21 -54.5l4 -28l-23 -6q-16 16 -37 16q-32 0 -74 -22q15 -34 63 -34q41 0 96 21l5 -7zM316 0h-12q-95 0 -166 87q-56 -66 -74 -79
q-17 -8 -64 -8l-16 3v147l16 3q54 0 89 5l42 149l87 53l26 -7q-6 -114 -21 -190q33 -10 93 -10l16 -3v-147z" />
    <glyph glyph-name="uniFE8E" unicode="&#x627;" horiz-adv-x="278" arabic-form="final" 
d="M278 0q-116 0 -162 84.5t-51 273.5l-8 282l98 81h34v-535q0 -23 15.5 -28t73.5 -5l16 -3v-147z" />
    <glyph glyph-name="uniFE90" unicode="&#x628;" horiz-adv-x="781" arabic-form="final" 
d="M781 0q-72 0 -109.5 18t-69.5 69q-61 -63 -73 -68q-60 -19 -235 -19q-272 0 -272 208q0 54 22 114t44 92l21 33l36 -18q-34 -78 -34 -128q0 -148 202 -148q124 0 242 8l41 146l87 57l27 -11q-6 -114 -21 -190q33 -10 92 -10l16 -3v-147zM342 -243q-22 16 -42.5 36.5
t-29.5 33.5l-10 13q41 49 82 84q57 -48 83 -84q-15 -21 -35.5 -41.5t-33.5 -30.5z" />
    <glyph glyph-name="uniFE91" unicode="&#x628;" horiz-adv-x="290" arabic-form="initial" 
d="M0 0l-16 3v147l16 3q95 0 137 6q-8 41 -22.5 93t-24.5 83l-10 31l91 94h35l50 -145l-1 -24l-30 -30q6 -38 6 -59q-1 -25 -50 -101t-69 -85q-38 -16 -112 -16zM119 -208q-22 16 -42.5 37t-30.5 33l-9 13q41 49 82 84q57 -48 83 -84q-15 -21 -35.5 -41.5t-34.5 -31.5z" />
    <glyph glyph-name="uniFE92" unicode="&#x628;" horiz-adv-x="316" arabic-form="medial" 
d="M316 0h-12q-95 0 -166 87q-56 -66 -74 -79q-17 -8 -64 -8l-16 3v147l16 3q54 0 89 5l42 149l87 53l26 -7q-6 -114 -21 -190q33 -10 93 -10l16 -3v-147zM155 -208q-22 16 -42.5 37t-30.5 33l-9 13q41 49 82 84q57 -48 83 -84q-15 -21 -35.5 -41.5t-34.5 -31.5z" />
    <glyph glyph-name="uniFE94" unicode="&#x629;" horiz-adv-x="468" arabic-form="final" 
d="M381 640q-14 -20 -34.5 -40.5t-34.5 -31.5l-13 -10q-37 28 -68 66q-14 -17 -31.5 -33.5t-27.5 -24.5l-11 -8q-22 16 -42 36.5t-29 33.5l-9 12q40 48 80 83q43 -35 70 -68q32 36 68 68q58 -47 82 -83zM484 3l-16 -3h-30q-64 0 -100 41t-52 117l-68 -113q-20 -9 -64 -9
q-47 0 -81 21t-47 48q-7 16 0.5 76.5t18.5 75.5q74 91 205 153l-5 51l100 72h36v-280q0 -74 9 -87t66 -13h12l16 -3v-147zM188 189q41 0 81 5q-3 29 -11 119q-117 -48 -175 -98q39 -26 105 -26z" />
    <glyph glyph-name="uniFE96" unicode="&#x62a;" horiz-adv-x="781" arabic-form="final" 
d="M533 445q-14 -20 -34.5 -40.5t-34.5 -30.5l-13 -11q-37 28 -68 66q-14 -17 -31.5 -33.5t-27.5 -24.5l-11 -8q-22 16 -42 36.5t-29 32.5l-9 13q40 48 80 83q43 -35 70 -68q32 36 68 68q58 -47 82 -83zM781 0q-72 0 -109.5 18t-69.5 69q-61 -63 -73 -68q-60 -19 -235 -19
q-272 0 -272 208q0 54 22 114t44 92l21 33l36 -18q-34 -78 -34 -128q0 -148 202 -148q124 0 242 8l41 146l87 57l27 -11q-6 -114 -21 -190q33 -10 92 -10l16 -3v-147z" />
    <glyph glyph-name="uniFE97" unicode="&#x62a;" horiz-adv-x="290" arabic-form="initial" 
d="M306 623q-14 -20 -34.5 -40.5t-33.5 -30.5l-14 -11q-37 28 -68 66q-14 -17 -31.5 -33.5t-28.5 -24.5l-10 -8q-22 16 -42 36.5t-29 32.5l-9 13q40 48 80 83q43 -35 70 -68q32 36 68 68q58 -47 82 -83zM0 0l-16 3v147l16 3q95 0 137 6q-8 41 -22.5 93t-24.5 83l-10 31
l91 94h35l50 -145l-1 -24l-30 -30q6 -38 6 -59q-1 -25 -50 -101t-69 -85q-38 -16 -112 -16z" />
    <glyph glyph-name="uniFE98" unicode="&#x62a;" horiz-adv-x="316" arabic-form="medial" 
d="M330 525q-14 -20 -34.5 -40.5t-33.5 -30.5l-14 -11q-38 27 -68 66q-14 -17 -31.5 -33.5t-28.5 -24.5l-10 -8q-22 16 -42 36.5t-30 32.5l-9 13q40 48 81 82q42 -35 70 -68q33 39 68 68q57 -47 82 -82zM316 0h-12q-95 0 -166 87q-56 -66 -74 -79q-17 -8 -64 -8l-16 3v147
l16 3q54 0 89 5l42 149l87 53l26 -7q-6 -114 -21 -190q33 -10 93 -10l16 -3v-147z" />
    <glyph glyph-name="uniFE9A" unicode="&#x62b;" horiz-adv-x="781" arabic-form="final" 
d="M384 490q-20 15 -38.5 34.5t-27.5 31.5l-8 12q37 44 74 76q53 -43 76 -76q-13 -20 -32 -39.5t-32 -28.5zM525 434q-14 -19 -33 -38t-32 -28l-12 -10q-35 27 -64 61q-13 -15 -29.5 -30.5t-26.5 -22.5l-10 -8q-20 15 -38.5 34t-27.5 30l-8 12q37 46 74 79l66 -68
q5 5 18.5 19t25.5 27t20 22q54 -45 77 -79zM781 0q-72 0 -109.5 18t-69.5 69q-61 -63 -73 -68q-60 -19 -235 -19q-272 0 -272 208q0 54 22 114t44 92l21 33l36 -18q-34 -78 -34 -128q0 -148 202 -148q124 0 242 8l41 146l87 57l27 -11q-6 -114 -21 -190q33 -10 92 -10l16 -3
v-147z" />
    <glyph glyph-name="uniFE9B" unicode="&#x62b;" horiz-adv-x="290" arabic-form="initial" 
d="M164 671q-20 15 -38.5 34.5t-27.5 31.5l-8 12q37 44 74 76q53 -43 77 -76q-13 -20 -32.5 -39.5t-32.5 -29.5zM305 614q-14 -18 -33 -37t-31 -29l-12 -9q-33 24 -65 61q-13 -16 -29.5 -31t-26.5 -23l-10 -7q-20 15 -38.5 34t-27.5 30l-8 11q37 47 74 79l66 -67
q46 46 65 67q53 -45 76 -79zM0 0l-16 3v147l16 3q95 0 137 6q-8 41 -22.5 93t-24.5 83l-10 31l91 94h35l50 -145l-1 -24l-30 -30q6 -38 6 -59q-1 -25 -50 -101t-69 -85q-38 -16 -112 -16z" />
    <glyph glyph-name="uniFE9C" unicode="&#x62b;" horiz-adv-x="316" arabic-form="medial" 
d="M175 564q-20 15 -38.5 34.5t-26.5 31.5l-9 12q37 44 74 76q54 -43 77 -76q-13 -20 -32.5 -39.5t-31.5 -28.5zM240 432q-30 22 -64 61q-13 -16 -30 -31t-27 -22l-10 -8q-20 15 -38.5 34t-26.5 30l-9 11q37 47 74 79l67 -67q35 35 64 67q54 -45 76 -79q-13 -18 -32 -37
t-32 -28zM316 0h-12q-95 0 -166 87q-56 -66 -74 -79q-17 -8 -64 -8l-16 3v147l16 3q54 0 89 5l42 149l87 53l26 -7q-6 -114 -21 -190q33 -10 93 -10l16 -3v-147z" />
    <glyph glyph-name="uniFE9E" unicode="&#x62c;" horiz-adv-x="651" arabic-form="final" 
d="M648 -186q-39 -25 -141 -78.5t-118 -53.5q-109 0 -195.5 39t-105.5 87q-14 32 -25.5 95.5t-8.5 84.5q10 75 71 140t116 88q27 11 106 18l1 7q-39 3 -80.5 10.5t-81 16.5t-52.5 11l-83 -75l-32 26q3 7 9 19t23.5 43t33 54.5t35 42.5t32.5 19t135.5 -24.5t216.5 -24.5h106
l9 -25l-45 -105h-39v4q-2 -44 18 -62t72 -18h36l16 -3v-147l-16 -3h-43q-61 0 -95 30t-37 78.5t12 108.5q-61 -22 -139.5 -63t-138.5 -83q-98 -72 -112 -139q90 -90 322 -90l208 9zM348 -83q-22 16 -42.5 36.5t-29.5 33.5l-10 13q41 49 82 84q57 -48 83 -84
q-15 -21 -35.5 -41.5t-33.5 -30.5z" />
    <glyph glyph-name="uniFE9F" unicode="&#x62c;" horiz-adv-x="654" arabic-form="initial" 
d="M328 77q-56 -32 -80 -44t-65.5 -22.5t-94.5 -10.5h-88l-16 3v147l16 3h152q85 0 171 23q36 10 56 13q-68 20 -121 52q-108 65 -119 71l-83 -57l-27 29q4 6 10.5 17t26 38t37.5 47.5t40 37.5t39 17q8 0 16.5 -3t22 -10t25.5 -14t34 -21t40 -24q42 -26 90.5 -41.5t74.5 -19
t45 -3.5h92l9 -31l-47 -102h-81q-23 -4 -51.5 -19.5t-67.5 -40.5t-56 -35zM414 -119q-22 16 -42.5 36.5t-29.5 33.5l-10 13q41 49 82 84q57 -48 83 -84q-15 -21 -35.5 -41.5t-33.5 -30.5z" />
    <glyph glyph-name="uniFEA0" unicode="&#x62c;" horiz-adv-x="677" arabic-form="medial" 
d="M329 77q-56 -32 -80 -44t-66 -22.5t-95 -10.5h-88l-16 3v147l16 3h153q83 0 175 24q25 8 52 12q-68 20 -121 52q-105 64 -120 71l-83 -57l-26 29q4 6 10.5 17t26 38t37.5 47.5t40 37.5t39 17q8 0 16.5 -3t22 -10t25 -14t34 -21t39.5 -24q106 -64 211 -64h85l9 -31
l-51 -102h-2q13 -19 54 -19h51l16 -3v-147l-16 -3h-68q-60 0 -82.5 49t-12.5 116q-15 -1 -33 -6.5t-39 -16.5t-35.5 -19t-40.5 -24t-37 -22zM392 -139q-22 16 -42.5 36.5t-29.5 33.5l-10 13q41 49 82 84q57 -48 83 -84q-15 -21 -35.5 -41.5t-33.5 -30.5z" />
    <glyph glyph-name="uniFEA2" unicode="&#x62d;" horiz-adv-x="661" arabic-form="final" 
d="M648 -186q-39 -25 -141 -78.5t-118 -53.5q-109 0 -195.5 39t-105.5 87q-14 32 -25.5 95.5t-8.5 84.5q10 75 71 140t116 88q27 11 106 18l1 7q-39 3 -80.5 10.5t-81 16.5t-52.5 11l-83 -75l-32 26q3 7 9 19t23.5 43t33 54.5t35 42.5t32.5 19t135.5 -24.5t216.5 -24.5h106
l9 -25l-45 -105h-39v4q-2 -44 18 -62t72 -18h36l16 -3v-147l-16 -3h-43q-61 0 -95 30t-37 78.5t12 108.5q-61 -22 -139.5 -63t-138.5 -83q-98 -72 -112 -139q90 -90 322 -90l208 9z" />
    <glyph glyph-name="uniFEA3" unicode="&#x62d;" horiz-adv-x="654" arabic-form="initial" 
d="M328 77q-56 -32 -80 -44t-65.5 -22.5t-94.5 -10.5h-88l-16 3v147l16 3h152q85 0 171 23q36 10 56 13q-68 20 -121 52q-108 65 -119 71l-83 -57l-27 29q4 6 10.5 17t26 38t37.5 47.5t40 37.5t39 17q8 0 16.5 -3t22 -10t25.5 -14t34 -21t40 -24q42 -26 90.5 -41.5t74.5 -19
t45 -3.5h92l9 -31l-47 -102h-81q-23 -4 -51.5 -19.5t-67.5 -40.5t-56 -35z" />
    <glyph glyph-name="uniFEA4" unicode="&#x62d;" horiz-adv-x="677" arabic-form="medial" 
d="M329 77q-56 -32 -80 -44t-66 -22.5t-95 -10.5h-88l-16 3v147l16 3h153q83 0 175 24q25 8 52 12q-68 20 -121 52q-105 64 -120 71l-83 -57l-26 29q4 6 10.5 17t26 38t37.5 47.5t40 37.5t39 17q8 0 16.5 -3t22 -10t25 -14t34 -21t39.5 -24q106 -64 211 -64h85l9 -31
l-51 -102h-2q13 -19 54 -19h51l16 -3v-147l-16 -3h-68q-60 0 -82.5 49t-12.5 116q-15 -1 -33 -6.5t-39 -16.5t-35.5 -19t-40.5 -24t-37 -22z" />
    <glyph glyph-name="uniFEA6" unicode="&#x62e;" horiz-adv-x="661" arabic-form="final" 
d="M348 469q-22 16 -42.5 36.5t-29.5 33.5l-10 13q41 49 82 84q57 -48 83 -84q-15 -21 -35.5 -41.5t-33.5 -30.5zM648 -186q-39 -25 -141 -78.5t-118 -53.5q-109 0 -195.5 39t-105.5 87q-14 32 -25.5 95.5t-8.5 84.5q10 75 71 140t116 88q27 11 106 18l1 7q-39 3 -80.5 10.5
t-81 16.5t-52.5 11l-83 -75l-32 26q3 7 9 19t23.5 43t33 54.5t35 42.5t32.5 19t135.5 -24.5t216.5 -24.5h106l9 -25l-45 -105h-39v4q-2 -44 18 -62t72 -18h36l16 -3v-147l-16 -3h-43q-61 0 -95 30t-37 78.5t12 108.5q-61 -22 -139.5 -63t-138.5 -83q-98 -72 -112 -139
q90 -90 322 -90l208 9z" />
    <glyph glyph-name="uniFEA7" unicode="&#x62e;" horiz-adv-x="652" arabic-form="initial" 
d="M380 461q-22 16 -42.5 36.5t-29.5 33.5l-10 13q41 49 82 84q57 -48 83 -84q-15 -21 -35.5 -41.5t-33.5 -30.5zM328 77q-56 -32 -80 -44t-65.5 -22.5t-94.5 -10.5h-88l-16 3v147l16 3h152q85 0 171 23q36 10 56 13q-68 20 -121 52q-108 65 -119 71l-83 -57l-27 29
q4 6 10.5 17t26 38t37.5 47.5t40 37.5t39 17q8 0 16.5 -3t22 -10t25.5 -14t34 -21t40 -24q42 -26 90.5 -41.5t74.5 -19t45 -3.5h92l9 -31l-47 -102h-81q-23 -4 -51.5 -19.5t-67.5 -40.5t-56 -35z" />
    <glyph glyph-name="uniFEA8" unicode="&#x62e;" horiz-adv-x="677" arabic-form="medial" 
d="M381 461q-22 16 -42.5 36.5t-30.5 33.5l-9 13q41 49 82 84q57 -48 83 -84q-15 -21 -35.5 -41.5t-34.5 -30.5zM329 77q-56 -32 -80 -44t-66 -22.5t-95 -10.5h-88l-16 3v147l16 3h153q83 0 175 24q25 8 52 12q-68 20 -121 52q-105 64 -120 71l-83 -57l-26 29q4 6 10.5 17
t26 38t37.5 47.5t40 37.5t39 17q8 0 16.5 -3t22 -10t25 -14t34 -21t39.5 -24q106 -64 211 -64h85l9 -31l-51 -102h-2q13 -19 54 -19h51l16 -3v-147l-16 -3h-68q-60 0 -82.5 49t-12.5 116q-15 -1 -33 -6.5t-39 -16.5t-35.5 -19t-40.5 -24t-37 -22z" />
    <glyph glyph-name="uniFEAA" unicode="&#x62f;" horiz-adv-x="502" arabic-form="final" 
d="M502 0h-14q-53 0 -88 22.5t-63 87.5l-62 -98q-4 -3 -46.5 -7.5t-70.5 -4.5q-135 0 -135 118q0 40 14 85.5t24 64.5l44 -11q-5 -35 -5 -49q0 -15 5 -25.5t29 -20t68 -9.5q41 0 115 4l-106 268l89 99h35l95 -316q8 -27 19 -39t20.5 -14t32.5 -2l16 -3v-147z" />
    <glyph glyph-name="uniFEAC" unicode="&#x630;" horiz-adv-x="502" arabic-form="final" 
d="M283 599q-22 16 -42 36.5t-29 32.5l-10 13q41 50 81 84q58 -48 83 -84q-14 -20 -35 -40.5t-35 -30.5zM502 0h-14q-53 0 -88 22.5t-63 87.5l-62 -98q-4 -3 -46.5 -7.5t-70.5 -4.5q-135 0 -135 118q0 40 14 85.5t24 64.5l44 -11q-5 -35 -5 -49q0 -15 5 -25.5t29 -20
t68 -9.5q41 0 115 4l-106 268l89 99h35l95 -316q8 -27 19 -39t20.5 -14t32.5 -2l16 -3v-147z" />
    <glyph glyph-name="uniFEAE" unicode="&#x631;" horiz-adv-x="373" arabic-form="final" 
d="M96 -213q-21 0 -88.5 48.5t-85.5 67.5l20 44q42 -12 73 -12q129 0 205 160q-14 26 -74 167l81 94h26l17 -67q22 -87 40.5 -111.5t62.5 -24.5l16 -3v-147l-16 -3h-12q-46 0 -89 47q-2 -31 -11.5 -70.5t-29 -84.5t-55 -75t-80.5 -30z" />
    <glyph glyph-name="uniFEB0" unicode="&#x632;" horiz-adv-x="373" arabic-form="final" 
d="M198 479q-22 16 -42.5 36.5t-29.5 33.5l-10 13q41 49 82 84q57 -48 83 -84q-15 -21 -35.5 -41.5t-33.5 -30.5zM96 -213q-21 0 -88.5 48.5t-85.5 67.5l20 44q42 -12 73 -12q129 0 205 160q-14 26 -74 167l81 94h26l17 -67q22 -87 40.5 -111.5t62.5 -24.5l16 -3v-147
l-16 -3h-12q-46 0 -89 47q-2 -31 -11.5 -70.5t-29 -84.5t-55 -75t-80.5 -30z" />
    <glyph glyph-name="uniFEB2" unicode="&#x633;" horiz-adv-x="1119" arabic-form="final" 
d="M236 -213q-60 0 -103 16.5t-65.5 46t-32.5 61.5t-10 69q0 54 21.5 117t43.5 99l22 37l36 -18q-34 -91 -34 -141q0 -132 153 -132q52 0 102 12t76 29l-43 269l104 84h35q3 -101 5 -180q20 -3 66 -3q29 0 44 2l51 147l72 46l27 -13q-2 -38 -21 -176q26 -6 81 -6q31 0 67 4
l-17 148l97 77h35v-180q0 -32 8.5 -40.5t49.5 -8.5h13l16 -3v-147l-16 -3h-13q-48 0 -80.5 20t-58.5 74q-23 -57 -51 -75.5t-74 -18.5q-30 0 -48.5 4t-42 24t-40.5 58q-23 -52 -50.5 -69t-72.5 -17q-32 0 -58 18q-41 -100 -74 -152q-27 -33 -95 -56t-125 -23z" />
    <glyph glyph-name="uniFEB3" unicode="&#x633;" horiz-adv-x="763" arabic-form="initial" 
d="M727 160q0 -25 -59.5 -100.5t-83.5 -75.5q-26 0 -86 26.5t-117 70.5q-23 -49 -50 -65t-70 -16q-22 0 -36 2t-32 10t-33 26t-29 47q-28 -46 -54.5 -65.5t-76.5 -19.5l-16 3v147l16 3q56 0 85 3l40 100l69 44l26 -13q-5 -50 -15 -129q27 -5 79 -5q30 0 44 2l52 147l72 46
l26 -13q-2 -27 -18 -159q76 -45 160 -63l-40 218l97 83h35q15 -209 15 -254z" />
    <glyph glyph-name="uniFEB4" unicode="&#x633;" horiz-adv-x="790" arabic-form="medial" 
d="M790 0h-13q-48 0 -80 19.5t-58 72.5q-23 -55 -51 -73.5t-74 -18.5q-30 0 -48.5 4t-41.5 24t-41 58q-23 -52 -50.5 -69t-72.5 -17q-22 0 -36 2t-32 10t-33 26t-29 47q-28 -46 -54.5 -65.5t-75.5 -19.5l-16 3v147l16 3q56 0 84 3l41 100l68 44l26 -13q-2 -28 -15 -129
q28 -5 80 -5q30 0 44 2l51 147l72 46l27 -13q-2 -38 -21 -176q26 -6 81 -6q12 0 66 3l-17 149l97 77h35v-180q0 -32 9 -40.5t49 -8.5h13l16 -3v-147z" />
    <glyph glyph-name="uniFEB6" unicode="&#x634;" horiz-adv-x="1118" arabic-form="final" 
d="M754 563q-20 15 -38.5 34.5t-27.5 31.5l-8 12q37 44 74 76q54 -43 77 -76q-13 -20 -32.5 -39.5t-32.5 -29.5zM819 431q-30 22 -64 61q-13 -16 -30 -31t-27 -23l-10 -7q-20 15 -38.5 34t-27.5 30l-8 11q37 47 74 79l67 -67q35 36 64 67q54 -45 76 -79q-13 -18 -32 -37
t-31 -29zM236 -213q-60 0 -103 16.5t-65.5 46t-32.5 61.5t-10 69q0 54 21.5 117t43.5 99l22 37l36 -18q-34 -91 -34 -141q0 -132 153 -132q52 0 102 12t76 29l-43 269l104 84h35q3 -101 5 -180q20 -3 66 -3q29 0 44 2l51 147l72 46l27 -13q-2 -38 -21 -176q26 -6 81 -6
q31 0 67 4l-17 148l97 77h35v-180q0 -32 8.5 -40.5t49.5 -8.5h13l16 -3v-147l-16 -3h-13q-48 0 -80.5 20t-58.5 74q-23 -57 -51 -75.5t-74 -18.5q-30 0 -48.5 4t-42 24t-40.5 58q-23 -52 -50.5 -69t-72.5 -17q-32 0 -58 18q-41 -100 -74 -152q-27 -33 -95 -56t-125 -23z" />
    <glyph glyph-name="uniFEB7" unicode="&#x634;" horiz-adv-x="763" arabic-form="initial" 
d="M425 563q-20 15 -38.5 34.5t-26.5 31.5l-9 12q37 44 74 76q54 -43 77 -76q-13 -20 -32.5 -39.5t-31.5 -29.5zM490 431q-30 22 -64 61q-13 -16 -30 -31t-27 -23l-10 -7q-20 15 -38.5 34t-26.5 30l-9 11q37 47 74 79l67 -67q36 36 64 67q54 -45 76 -79q-13 -18 -32 -37
t-32 -29zM584 -16q-26 0 -86 26.5t-117 70.5q-23 -49 -50 -65t-70 -16q-22 0 -36 2t-32 10t-33 26t-29 47q-28 -46 -54.5 -65.5t-76.5 -19.5l-16 3v147l16 3q56 0 85 3l40 100l69 44l26 -13q-5 -50 -15 -129q27 -5 79 -5q30 0 44 2l52 147l72 46l26 -13q-2 -27 -18 -159
q76 -45 160 -63l-40 218l97 83h35q15 -209 15 -254q0 -25 -59.5 -100.5t-83.5 -75.5z" />
    <glyph glyph-name="uniFEB8" unicode="&#x634;" horiz-adv-x="790" arabic-form="medial" 
d="M418 563q-20 15 -38.5 34.5t-27.5 31.5l-8 12q37 44 74 76q54 -43 77 -76q-13 -20 -32.5 -39.5t-32.5 -29.5zM483 431q-30 22 -64 61q-13 -16 -30 -31t-27 -23l-10 -7q-20 15 -38.5 34t-27.5 30l-8 11q37 47 74 79l67 -67q35 36 64 67q54 -45 76 -79q-13 -18 -32 -37
t-31 -29zM790 0h-13q-48 0 -80 19.5t-58 72.5q-23 -55 -51 -73.5t-74 -18.5q-30 0 -48.5 4t-41.5 24t-41 58q-23 -52 -50.5 -69t-72.5 -17q-22 0 -36 2t-32 10t-33 26t-29 47q-28 -46 -54.5 -65.5t-75.5 -19.5l-16 3v147l16 3q56 0 84 3l41 100l68 44l26 -13
q-2 -28 -15 -129q28 -5 80 -5q30 0 44 2l51 147l72 46l27 -13q-2 -38 -21 -176q26 -6 81 -6q12 0 66 3l-17 149l97 77h35v-180q0 -32 9 -40.5t49 -8.5h13l16 -3v-147z" />
    <glyph glyph-name="uniFEBA" unicode="&#x635;" horiz-adv-x="1138" arabic-form="final" 
d="M750 153h19q154 3 244 35q-27 45 -71 76.5t-90 31.5q-53 0 -115.5 -36.5t-120.5 -100.5q49 -6 100 -6h34zM236 -213q-60 0 -103.5 16.5t-65.5 46t-32 61t-10 69.5q0 54 21.5 117t43.5 99l21 37l36 -18q-33 -91 -33 -141q0 -132 152 -132q52 0 102.5 12t75.5 29l-42 269
l104 84h35q2 -86 4 -161q9 -4 17 -5q61 116 150 201t175 85q73 0 132.5 -78.5t59.5 -140.5q0 -30 -26 -84h85l16 -3v-147l-16 -3h-39q-28 0 -50 13t-51 48l-1 -1q-18 -20 -96.5 -40t-164.5 -20h-34q-116 0 -166 36q-6 -19 -35 -82t-45 -88q-27 -33 -95 -56t-125 -23z" />
    <glyph glyph-name="uniFEBB" unicode="&#x635;" horiz-adv-x="812" arabic-form="initial" 
d="M435 0h-34q-202 0 -267 92q-31 -50 -57.5 -71t-76.5 -21l-16 3v147l16 3q56 0 84 3l40 109l68 44l27 -13q-2 -18 -6 -58t-6 -55q21 -13 50 -19q61 118 151.5 205t177.5 87q73 0 132.5 -78.5t59.5 -140.5q0 -32 -29.5 -91.5t-53.5 -85.5q-18 -20 -96 -40t-164 -20z
M449 153h18q154 3 244 35q-27 45 -71 76.5t-89 31.5q-54 0 -117.5 -37.5t-122.5 -103.5q23 -2 104 -2h34z" />
    <glyph glyph-name="uniFEBC" unicode="&#x635;" horiz-adv-x="837" arabic-form="medial" 
d="M449 153h19q155 3 243 35q-26 45 -70 76.5t-90 31.5q-54 0 -117.5 -37.5t-122.5 -103.5q24 -2 104 -2h34zM696 60q-18 -20 -96.5 -40t-164.5 -20h-34q-202 0 -267 92q-31 -50 -57 -71t-77 -21l-16 3v147l16 3q56 0 84 3l40 109l69 44l26 -13q-7 -72 -12 -113
q23 -13 51 -19q61 118 151 205t177 87q73 0 132.5 -78.5t59.5 -140.5q0 -30 -26 -84h85l16 -3v-147l-16 -3h-39q-28 0 -50 13.5t-51 48.5z" />
    <glyph glyph-name="uniFEBE" unicode="&#x636;" horiz-adv-x="1138" arabic-form="final" 
d="M873 525q-22 16 -42.5 36.5t-30.5 33.5l-9 13q41 49 82 84q57 -48 83 -84q-15 -21 -35.5 -41.5t-34.5 -30.5zM716 153h53q154 3 244 35q-27 45 -71 76.5t-90 31.5q-53 0 -115.5 -36.5t-120.5 -100.5q49 -6 100 -6zM236 -213q-60 0 -103.5 16.5t-65.5 46t-32 61t-10 69.5
q0 54 21.5 117t43.5 99l21 37l36 -18q-33 -91 -33 -141q0 -132 152 -132q52 0 102.5 12t75.5 29l-42 269l104 84h35q2 -86 4 -161q9 -4 17 -5q61 116 150 201t175 85q73 0 132.5 -78.5t59.5 -140.5q0 -30 -26 -84h85l16 -3v-147l-16 -3h-39q-28 0 -50 13t-51 48l-1 -1
q-18 -20 -96.5 -40t-164.5 -20h-34q-116 0 -166 36q-6 -19 -35 -82t-45 -88q-27 -33 -95 -56t-125 -23z" />
    <glyph glyph-name="uniFEBF" unicode="&#x636;" horiz-adv-x="812" arabic-form="initial" 
d="M563 526q-22 16 -42.5 36.5t-30.5 33.5l-9 12q41 50 82 84q57 -48 82 -84q-14 -20 -34.5 -40.5t-34.5 -31.5zM435 0h-34q-202 0 -267 92q-31 -50 -57.5 -71t-76.5 -21l-16 3v147l16 3q56 0 84 3l40 109l68 44l27 -13q-2 -18 -6 -58t-6 -55q21 -13 50 -19
q61 118 151.5 205t177.5 87q73 0 132.5 -78.5t59.5 -140.5q0 -32 -29.5 -91.5t-53.5 -85.5q-18 -20 -96 -40t-164 -20zM449 153h18q154 3 244 35q-27 45 -71 76.5t-89 31.5q-54 0 -117.5 -37.5t-122.5 -103.5q23 -2 104 -2h34z" />
    <glyph glyph-name="uniFEC0" unicode="&#x636;" horiz-adv-x="837" arabic-form="medial" 
d="M572 526q-22 16 -42 36.5t-30 33.5l-9 12q41 50 81 84q58 -48 83 -84q-14 -20 -35 -40.5t-34 -31.5zM311 155q24 -2 104 -2h53q155 3 243 35q-26 45 -70 76.5t-90 31.5q-54 0 -117.5 -37.5t-122.5 -103.5zM696 60q-18 -20 -96.5 -40t-164.5 -20h-34q-202 0 -267 92
q-31 -50 -57 -71t-77 -21l-16 3v147l16 3q56 0 84 3l40 109l69 44l26 -13q-7 -72 -12 -113q23 -13 51 -19q61 118 151 205t177 87q73 0 132.5 -78.5t59.5 -140.5q0 -30 -26 -84h85l16 -3v-147l-16 -3h-39q-28 0 -50 13.5t-51 48.5z" />
    <glyph glyph-name="uniFEC2" unicode="&#x637;" horiz-adv-x="740" arabic-form="final" 
d="M353 153h20q153 3 239 35q-25 44 -71 76t-98 32q-49 0 -115 -36.5t-115 -104.5q39 -2 104 -2h36zM600 60q-18 -20 -96.5 -40t-164.5 -20h-36q-25 0 -56.5 3t-51 6t-20.5 4l-166 119l7 34q63 -6 152 -9l9 15t8 13q-1 23 -6.5 160.5t-7.5 185.5l-26 69l123 121l39 -22v-62
l54 -112l-58 -58v-37q0 -32 -43 -124l5 -5q124 155 231 155q48 0 93 -40t69 -90.5t24 -88.5q0 -25 -28 -84h86l16 -3v-147l-16 -3h-37q-28 0 -50.5 13.5t-51.5 48.5z" />
    <glyph glyph-name="uniFEC3" unicode="&#x637;" horiz-adv-x="636" arabic-form="initial" 
d="M260 0h-260l-16 3v147l16 3h86l18 30q-1 19 -3.5 83.5t-5.5 145.5t-5 119l-26 69l123 121l39 -22v-62l54 -112l-58 -58v-37q0 -32 -43 -124l6 -6q123 156 231 156q48 0 93.5 -40t69.5 -90.5t24 -88.5q0 -24 -30.5 -88.5t-52.5 -88.5q-18 -20 -96 -40t-164 -20zM274 153
h19q152 3 240 35q-25 44 -71 76t-98 32q-50 0 -116 -37t-116 -106h142z" />
    <glyph glyph-name="uniFEC4" unicode="&#x637;" horiz-adv-x="661" arabic-form="medial" 
d="M274 153h19q152 3 240 35q-25 44 -71 76t-98 32q-50 0 -116 -37t-117 -106h143zM520 60q-18 -20 -96 -40t-164 -20h-260l-16 3v147l16 3h86l18 30q-1 19 -3.5 83.5t-5.5 145.5t-5 119l-26 69l123 121l39 -22v-62l54 -112l-58 -58v-37q0 -32 -43 -124l6 -6
q123 156 231 156q48 0 93.5 -40t69.5 -90.5t24 -88.5q0 -22 -29 -84h87l16 -3v-147l-16 -3h-38q-28 0 -50.5 13.5t-50.5 48.5z" />
    <glyph glyph-name="uniFEC6" unicode="&#x638;" horiz-adv-x="740" arabic-form="final" 
d="M487 549q-22 16 -42.5 36.5t-30.5 33.5l-9 13q41 49 82 84q57 -48 83 -84q-15 -21 -35.5 -41.5t-34.5 -30.5zM353 153h20q153 3 239 35q-25 44 -71 76t-98 32q-49 0 -115 -36.5t-115 -104.5q39 -2 104 -2h36zM600 60q-18 -20 -96.5 -40t-164.5 -20h-36q-25 0 -56.5 3
t-51 6t-20.5 4l-166 119l7 34q63 -6 152 -9l9 15t8 13q-1 23 -6.5 160.5t-7.5 185.5l-26 69l123 121l39 -22v-62l54 -112l-58 -58v-37q0 -32 -43 -124l5 -5q124 155 231 155q48 0 93 -40t69 -90.5t24 -88.5q0 -25 -28 -84h86l16 -3v-147l-16 -3h-37q-28 0 -50.5 13.5
t-51.5 48.5z" />
    <glyph glyph-name="uniFEC7" unicode="&#x638;" horiz-adv-x="636" arabic-form="initial" 
d="M260 0h-260l-16 3v147l16 3h86l18 30q-1 19 -3.5 83.5t-5.5 145.5t-5 119l-26 69l123 121l39 -22v-62l54 -112l-58 -58v-37q0 -32 -43 -124l6 -6q123 156 231 156q48 0 93.5 -40t69.5 -90.5t24 -88.5q0 -24 -30.5 -88.5t-52.5 -88.5q-18 -20 -96 -40t-164 -20zM406 550
q-22 16 -42.5 37t-29.5 33l-10 13q41 49 82 84q57 -48 83 -84q-15 -21 -35.5 -41.5t-33.5 -31.5zM274 153h19q152 3 240 35q-25 44 -71 76t-98 32q-50 0 -116 -37t-116 -106h142z" />
    <glyph glyph-name="uniFEC8" unicode="&#x638;" horiz-adv-x="661" arabic-form="medial" 
d="M406 550q-22 16 -42 37t-30 33l-9 13q40 49 81 83q57 -47 83 -83q-14 -21 -35 -41.5t-34 -31.5zM274 153h19q152 3 240 35q-25 44 -71 76t-98 32q-50 0 -116 -37t-117 -106h143zM520 60q-18 -20 -96 -40t-164 -20h-260l-16 3v147l16 3h86l18 30q-1 19 -3.5 83.5
t-5.5 145.5t-5 119l-26 69l123 121l39 -22v-62l54 -112l-58 -58v-37q0 -32 -43 -124l6 -6q123 156 231 156q48 0 93.5 -40t69.5 -90.5t24 -88.5q0 -22 -29 -84h87l16 -3v-147l-16 -3h-38q-28 0 -50.5 13.5t-50.5 48.5z" />
    <glyph glyph-name="uniFECA" unicode="&#x639;" horiz-adv-x="550" arabic-form="final" 
d="M294 190l4 1q46 17 89 45.5t64 57.5q-59 17 -157 17q-66 0 -134 -9l75 -66q39 -31 59 -46zM575 -186q-40 -26 -140.5 -79t-115.5 -53q-108 0 -184 45.5t-97 97.5q-13 29 -17.5 75.5t0.5 64.5q8 41 50 87t118 88q-13 14 -58.5 61t-64.5 69l-42 -59l-31 19q51 161 101 184
q25 11 88 23t125 12q69 0 126 -15.5t68 -33.5q8 -18 4.5 -65t-8.5 -60q-36 -77 -101 -122h161l16 -3v-147l-16 -3h-69q-116 0 -205 59q-65 -35 -91 -49.5t-66 -42t-53 -48.5q57 -77 286 -77l206 9z" />
    <glyph glyph-name="uniFECB" unicode="&#x639;" horiz-adv-x="511" arabic-form="initial" 
d="M442 58q-59 -22 -163.5 -40t-179.5 -18h-99l-16 3v147l16 3h95q-33 40 -33 82q0 23 14.5 76.5t29.5 72.5q12 26 66.5 63t105.5 37q25 0 50 -18t43 -44t32.5 -52t21.5 -44l7 -18l-26 -24l-88 58q-110 -7 -187 -71q65 -106 180 -106q43 0 94 17t83 36l16 -18z" />
    <glyph glyph-name="uniFECC" unicode="&#x639;" horiz-adv-x="606" arabic-form="medial" 
d="M335 174l13 5q89 39 142 105q-62 16 -154 16q-65 0 -132 -9q32 -32 49 -47q50 -48 82 -70zM622 3l-16 -3h-60q-154 0 -239 56q-115 -56 -254 -56h-53l-16 3v147l16 3h201l-98 106l-40 -48l-27 19q50 157 95 177q23 10 88.5 20.5t128.5 10.5q69 0 127.5 -15.5t69.5 -33.5
q8 -18 4 -64.5t-9 -60.5q-20 -46 -90 -111h156l16 -3v-147z" />
    <glyph glyph-name="uniFECE" unicode="&#x63a;" horiz-adv-x="550" arabic-form="final" 
d="M279 534q-22 16 -42.5 37t-30.5 33l-9 13q41 49 82 84q57 -48 83 -84q-15 -21 -35.5 -41.5t-34.5 -31.5zM294 190l4 1q46 17 89 45.5t64 57.5q-59 17 -157 17q-66 0 -134 -9l75 -66q39 -31 59 -46zM575 -186q-40 -26 -140.5 -79t-115.5 -53q-108 0 -184 45.5t-97 97.5
q-13 29 -17.5 75.5t0.5 64.5q8 41 50 87t118 88q-13 14 -58.5 61t-64.5 69l-42 -59l-31 19q51 161 101 184q25 11 88 23t125 12q69 0 126 -15.5t68 -33.5q8 -18 4.5 -65t-8.5 -60q-36 -77 -101 -122h161l16 -3v-147l-16 -3h-69q-116 0 -205 59q-65 -35 -91 -49.5t-66 -42
t-53 -48.5q57 -77 286 -77l206 9z" />
    <glyph glyph-name="uniFECF" unicode="&#x63a;" horiz-adv-x="511" arabic-form="initial" 
d="M273 549q-22 16 -42.5 36.5t-30.5 33.5l-9 13q41 49 82 84q57 -48 83 -84q-15 -21 -35.5 -41.5t-34.5 -30.5zM442 58q-59 -22 -163.5 -40t-179.5 -18h-99l-16 3v147l16 3h95q-33 40 -33 82q0 23 14.5 76.5t29.5 72.5q12 26 66.5 63t105.5 37q25 0 50 -18t43 -44t32.5 -52
t21.5 -44l7 -18l-26 -24l-88 58q-110 -7 -187 -71q65 -106 180 -106q43 0 94 17t83 36l16 -18z" />
    <glyph glyph-name="uniFED0" unicode="&#x63a;" horiz-adv-x="606" arabic-form="medial" 
d="M320 504q-22 16 -42.5 37t-29.5 33l-10 13q41 49 82 84q57 -48 83 -84q-15 -21 -35.5 -41.5t-33.5 -31.5zM335 174l13 5q89 39 142 105q-62 16 -154 16q-65 0 -132 -9q32 -32 49 -47q50 -48 82 -70zM307 56q-115 -56 -254 -56h-53l-16 3v147l16 3h201l-98 106l-40 -48
l-27 19q50 157 95 177q23 10 88.5 20.5t128.5 10.5q69 0 127.5 -15.5t69.5 -33.5q8 -18 4 -64.5t-9 -60.5q-20 -46 -90 -111h156l16 -3v-147l-16 -3h-60q-154 0 -239 56z" />
    <glyph glyph-name="uniFED2" unicode="&#x641;" horiz-adv-x="813" arabic-form="final" 
d="M609 558q-22 16 -42.5 37t-30.5 33l-9 13q41 49 82 84q57 -48 83 -84q-15 -21 -35.5 -41.5t-34.5 -31.5zM621 165l13 7q23 13 40 30q-5 48 -30 89.5t-62 41.5q-27 0 -56 -21t-50 -54q66 -66 145 -93zM826 3l-16 -3h-29q-88 0 -178 50q-123 -72 -312 -72q-272 0 -272 208
q0 54 21.5 114t43.5 93l22 33l36 -19q-33 -78 -33 -128q0 -148 201 -148q97 0 168 8q-32 28 -36 44q-5 21 -9 63t-2 50q9 55 66.5 123.5t121.5 68.5q62 0 101 -75t39 -161q0 -46 -46 -99h97l16 -3v-147z" />
    <glyph glyph-name="uniFED3" unicode="&#x641;" horiz-adv-x="417" arabic-form="initial" 
d="M190 636q-22 16 -42 36.5t-30 33.5l-9 12q40 50 81 84q58 -48 83 -84q-14 -21 -35 -41.5t-34 -30.5zM291 24q-14 -8 -59 -16t-107 -8h-125l-16 3v147l16 3h160q80 0 147 5q1 9 1 27q0 44 -11 91l-25 -60q-6 -5 -37.5 -11.5t-57.5 -6.5q-58 0 -93 31q-10 9 -26.5 65
t-15.5 70q3 25 15.5 58t33.5 68.5t54.5 59.5t71.5 24q71 0 119.5 -102.5t48.5 -233.5q0 -39 -7 -61q-10 -32 -45 -92t-42 -61zM187 326q51 0 91 10q-38 92 -93 92q-27 0 -53.5 -25.5t-40.5 -64.5q35 -12 96 -12z" />
    <glyph glyph-name="uniFED4" unicode="&#x641;" horiz-adv-x="440" arabic-form="medial" 
d="M230 559q-22 16 -42.5 36.5t-29.5 32.5l-10 13q41 50 82 84q57 -48 82 -84q-14 -20 -34.5 -40.5t-33.5 -30.5zM250 165l13 7q20 11 40 30q-5 48 -30.5 89.5t-62.5 41.5q-26 0 -55.5 -21.5t-49.5 -53.5q63 -65 145 -93zM455 3l-16 -3h-29q-95 0 -194 59q-105 -59 -196 -59
h-20l-16 3v147l16 3l92 -1q-19 23 -21 31q-5 21 -9 63t-2 50q9 55 66.5 123.5t121.5 68.5q61 0 100 -75t39 -161q0 -47 -45 -99h97l16 -3v-147z" />
    <glyph glyph-name="uniFED6" unicode="&#x642;" horiz-adv-x="662" arabic-form="final" 
d="M574 579q-14 -20 -34.5 -40.5t-33.5 -30.5l-14 -10q-31 23 -68 65q-14 -17 -31.5 -33t-28.5 -24l-10 -8q-22 16 -42 36t-29 32l-9 13q40 49 80 83q43 -35 71 -68q39 45 67 68q58 -47 82 -83zM531 153l-4 11q-20 49 -48.5 78t-59.5 29q-32 0 -60 -29t-45 -70
q35 -19 113 -19h104zM244 -215q-63 0 -108.5 16.5t-68.5 45.5t-33 60.5t-10 69.5q0 54 22 116.5t44 98.5l21 35l35 -19q-33 -77 -33 -128q0 -141 162 -141q75 0 155.5 13.5t121.5 33.5q0 -10 0 1q-1 5 -1 13h-131q-69 0 -112 38q-11 10 -27.5 73t-14.5 78q4 42 25 92
t63.5 91t92.5 41q64 0 108 -75t56 -185h51l16 -3v-147l-16 -3h-52q-8 -26 -35 -79t-37 -60q-34 -27 -125 -51.5t-169 -24.5z" />
    <glyph glyph-name="uniFED7" unicode="&#x642;" horiz-adv-x="417" arabic-form="initial" 
d="M355 716q-14 -20 -34.5 -40t-34.5 -30l-13 -11q-36 25 -68 65q-14 -17 -31.5 -33t-27.5 -24l-11 -8q-22 16 -42 36.5t-29 32.5l-9 12q39 49 80 83q42 -35 70 -68q40 45 68 68q58 -47 82 -83zM291 24q-14 -8 -59 -16t-107 -8h-125l-16 3v147l16 3h160q80 0 147 5q1 9 1 27
q0 44 -11 91l-25 -60q-6 -5 -37.5 -11.5t-57.5 -6.5q-58 0 -93 31q-10 9 -26.5 65t-15.5 70q3 25 15.5 58t33.5 68.5t54.5 59.5t71.5 24q71 0 119.5 -102.5t48.5 -233.5q0 -39 -7 -61q-10 -32 -45 -92t-42 -61zM187 326q51 0 91 10q-38 92 -93 92q-27 0 -53.5 -25.5
t-40.5 -64.5q35 -12 96 -12z" />
    <glyph glyph-name="uniFED8" unicode="&#x642;" horiz-adv-x="440" arabic-form="medial" 
d="M380 640q-14 -20 -34.5 -40.5t-33.5 -31.5l-14 -10q-37 28 -68 66q-14 -17 -31.5 -33.5t-28.5 -24.5l-10 -8q-22 16 -42 36.5t-29 33.5l-9 12q40 48 80 83q43 -35 70 -68q32 36 68 68q58 -47 82 -83zM250 165l13 7q20 11 40 30q-5 48 -30.5 89.5t-62.5 41.5
q-26 0 -55.5 -21.5t-49.5 -53.5q63 -65 145 -93zM216 59q-105 -59 -196 -59h-20l-16 3v147l16 3l92 -1q-19 23 -21 31q-5 21 -9 63t-2 50q9 55 66.5 123.5t121.5 68.5q61 0 100 -75t39 -161q0 -47 -45 -99h97l16 -3v-147l-16 -3h-29q-95 0 -194 59z" />
    <glyph glyph-name="uniFEDA" unicode="&#x643;" horiz-adv-x="748" arabic-form="final" 
d="M300 264l-89 57v14q103 0 172 10q-7 2 -34.5 7t-44.5 9.5t-32.5 15.5t-15.5 27q0 42 42.5 78.5t98.5 56.5l12 -11v-86q-68 -9 -104 -23q10 -2 33.5 -6t34.5 -7q56 -14 56 -57q0 -5 -12.5 -31t-21.5 -34q-14 -12 -95 -20zM764 3l-16 -3q-123 0 -182 129l-56 -100
q-19 -9 -77.5 -19t-139.5 -10q-272 0 -272 208q0 34 9 71.5t21.5 66t25.5 52t22 36.5l9 13l36 -18q-33 -78 -33 -128q0 -148 201 -148q106 0 237 16l-12 471l98 81h35v-462q0 -72 6 -85q8 -19 53 -21h19l16 -3v-147z" />
    <glyph glyph-name="uniFEDB" unicode="&#x643;" horiz-adv-x="470" arabic-form="initial" 
d="M140 0h-140l-16 3v147l16 3h152q129 0 190 6q-53 62 -186 135l-14 -18l-102 62q-8 5 21 89t41 90l336 195l19 -20l-30 -135l-244 -114q236 -125 236 -243q0 -16 -38.5 -90t-51.5 -84q-33 -26 -189 -26z" />
    <glyph glyph-name="uniFEDC" unicode="&#x643;" horiz-adv-x="474" arabic-form="medial" 
d="M133 16q-32 -16 -89 -16h-44l-16 3v147l16 3h67q75 0 93 6q-9 55 -42 116q-9 15 -24.5 40.5t-25.5 42t-12 20.5q-5 8 24 79t44 79l289 176l18 -19l-29 -134l-222 -124q85 -125 88 -133q62 -88 99 -118.5t93 -30.5h14l16 -3v-147l-16 -3h-12q-79 0 -124 35.5t-113 133.5
q-73 -146 -92 -153z" />
    <glyph glyph-name="uniFEDE" unicode="&#x644;" horiz-adv-x="623" arabic-form="final" 
d="M243 -213q-63 0 -108.5 16.5t-69 46t-33.5 61t-10 69.5q0 54 22 114t44 93l21 33l36 -18q-34 -78 -34 -128q0 -132 162 -132q63 0 150 25l-21 674l98 80h35v-475q0 -64 15 -78.5t73 -14.5l16 -3v-147l-16 -3q-65 0 -99 55q-20 -61 -58 -137.5t-52 -89.5
q-16 -14 -68 -27.5t-103 -13.5z" />
    <glyph glyph-name="uniFEDF" unicode="&#x644;" horiz-adv-x="319" arabic-form="initial" 
d="M0 0l-16 3v147l16 3q88 0 119 6l-10 350l-34 94l126 118l36 -18v-58l58 -116l-58 -60v-225q0 -36 -70 -125t-99 -109q-16 -10 -68 -10z" />
    <glyph glyph-name="uniFEE0" unicode="&#x644;" horiz-adv-x="316" arabic-form="medial" 
d="M332 3l-16 -3q-58 0 -102.5 35t-63.5 101q-64 -116 -80 -126q-19 -10 -70 -10l-16 3v147l16 3q63 0 105 7l-17 480l99 81h35v-463q0 -74 14.5 -89.5t79.5 -15.5l16 -3v-147z" />
    <glyph glyph-name="uniFEE2" unicode="&#x645;" horiz-adv-x="649" arabic-form="final" 
d="M447 143l-6 13l-8 17q-18 37 -28 54.5t-25.5 31t-33.5 13.5q-25 0 -55.5 -29.5t-48.5 -74.5q37 -25 205 -25zM195 -106q0 -23 -17.5 -71t-35.5 -85l-17 -37h-42q-1 13 -34 183.5t-33 205.5q0 43 51.5 127.5t80.5 101.5q47 29 131 61.5t111 32.5t48.5 -11.5t39.5 -38.5
t27.5 -46t27.5 -60q34 -77 47 -90.5t56 -13.5h13l16 -3v-147l-16 -3h-41q-48 0 -78 22.5t-56 69.5l-63 -103q-38 1 -95.5 9.5t-64.5 16.5q-9 7 -37.5 69.5t-28.5 73.5q4 40 23 85q-58 -31 -81 -54q5 -22 22.5 -93t31.5 -129.5t14 -72.5z" />
    <glyph glyph-name="uniFEE3" unicode="&#x645;" horiz-adv-x="474" arabic-form="initial" 
d="M350 -10q-51 0 -108 11.5t-87 25.5l-27 93q-25 -65 -51 -92.5t-77 -27.5l-16 3v147l16 3q44 0 60 9t29 39q23 53 38.5 84t38.5 64.5t49.5 48.5t58.5 15q50 0 90.5 -49t59 -106t18.5 -98q0 -30 -39.5 -100t-52.5 -70zM362 138l-2 8q-18 53 -50 89t-63 36q-59 0 -100 -104
q91 -25 215 -29z" />
    <glyph glyph-name="uniFEE4" unicode="&#x645;" horiz-adv-x="545" arabic-form="medial" 
d="M344 143l-6 13l-8 17q-18 37 -28 54.5t-25.5 31t-33.5 13.5q-25 0 -55.5 -29t-49.5 -75q38 -25 206 -25zM561 3l-16 -3h-40q-48 0 -78 22.5t-56 69.5l-63 -103q-38 1 -95.5 9.5t-64.5 16.5q-9 6 -36 66q-15 -44 -41.5 -62.5t-70.5 -18.5l-16 3v147l16 3q51 0 82 11
q13 87 73 168t132 81q22 0 41 -10t31.5 -21t27.5 -37.5t21.5 -40t21.5 -47.5q34 -77 47 -90.5t56 -13.5h12l16 -3v-147z" />
    <glyph glyph-name="uniFEE6" unicode="&#x646;" horiz-adv-x="648" arabic-form="final" 
d="M297 326q-22 16 -42 37t-29 33l-10 13q40 49 81 83q57 -48 83 -83q-14 -21 -35 -41.5t-35 -31.5zM244 -213q-63 0 -108.5 16.5t-69 46t-33.5 61t-10 69.5q0 54 21.5 114t42.5 93l21 33l36 -18q-31 -78 -31 -128q0 -132 161 -132q85 0 177 32l-44 278l104 83h35l4 -77
q7 -75 20.5 -90t77.5 -15l16 -3v-147l-16 -3q-68 0 -99 62q-22 -63 -52 -132t-43 -81q-25 -24 -87 -43t-123 -19z" />
    <glyph glyph-name="uniFEE7" unicode="&#x646;" horiz-adv-x="290" arabic-form="initial" 
d="M158 543q-22 16 -42.5 36.5t-29.5 33.5l-10 13q41 49 82 84q57 -48 83 -84q-15 -21 -35.5 -41.5t-33.5 -30.5zM0 0l-16 3v147l16 3q95 0 137 6q-8 41 -22.5 93t-24.5 83l-10 31l91 94h35l50 -145l-1 -24l-30 -30q6 -38 6 -59q-1 -25 -50 -101t-69 -85q-38 -16 -112 -16z
" />
    <glyph glyph-name="uniFEE8" unicode="&#x646;" horiz-adv-x="316" arabic-form="medial" 
d="M185 467q-22 16 -42.5 37t-30.5 34l-9 12q41 49 82 84q57 -48 83 -84q-15 -21 -35.5 -41.5t-34.5 -30.5zM316 0h-12q-95 0 -166 87q-56 -66 -74 -79q-17 -8 -64 -8l-16 3v147l16 3q54 0 89 5l42 149l87 53l26 -7q-6 -114 -21 -190q33 -10 93 -10l16 -3v-147z" />
    <glyph glyph-name="uniFEE9" unicode="&#x647;" horiz-adv-x="391" arabic-form="isolated" 
d="M172 0q-35 0 -62.5 8t-42.5 19t-26 24.5t-14 20.5t-4 12q-2 10 0.5 64.5t4.5 62.5q15 55 83 146q-3 2 -28 17l74 140h35q77 -72 127 -161.5t50 -165.5q0 -18 -24.5 -80.5t-32.5 -68.5q-49 -38 -140 -38zM190 153q62 0 112 13q-26 71 -121 142q-74 -58 -104 -128
q45 -27 113 -27z" />
    <glyph glyph-name="uniFEEA" unicode="&#x647;" horiz-adv-x="468" arabic-form="final" 
d="M484 3l-16 -3h-30q-64 0 -100 41t-52 117l-68 -113q-20 -9 -64 -9q-47 0 -81 21t-47 48q-7 16 0.5 76.5t18.5 75.5q74 91 205 153l-5 51l100 72h36v-280q0 -74 9 -87t66 -13h12l16 -3v-147zM188 189q41 0 81 5q-3 29 -11 119q-117 -48 -175 -98q39 -26 105 -26z" />
    <glyph glyph-name="uniFEEB" unicode="&#x647;" horiz-adv-x="537" arabic-form="initial" 
d="M224 163l14 6q26 14 37 32q-10 53 -32.5 83.5t-46.5 30.5q-23 0 -50.5 -21.5t-48.5 -54.5q42 -38 127 -76zM433 92l-3 11q-25 75 -83 126q-2 -48 -51 -97q74 -28 137 -40zM503 110q1 -27 -38.5 -91t-57.5 -64q-28 0 -95.5 25.5t-129.5 63.5q-76 -44 -145 -44h-37l-16 3
v147l16 3l66 -1q-14 79 -9 100q18 67 68 112q-26 16 -28 16l57 130l35 8q178 -125 245 -213t69 -195z" />
    <glyph glyph-name="uniFEEC" unicode="&#x647;" horiz-adv-x="485" arabic-form="medial" 
d="M127 153h14q124 3 176 40q-14 35 -37.5 61t-42.5 26q-24 0 -57 -34.5t-53 -92.5zM306 -82q29 0 71 8q-32 90 -169 91q-25 0 -83 -9q51 -90 181 -90zM374 -215q-6 -5 -32 -10t-52 -5q-79 0 -138 62t-80 169q-21 -1 -72 -1l-16 3v147l16 3h74q28 125 92.5 210t120.5 85
q32 0 58.5 -36.5t38.5 -80t12 -76.5q0 -9 -15.5 -40.5t-35.5 -61.5h140l16 -3v-147l-16 -3l-37 -2q-3 -40 -33 -121.5t-41 -91.5z" />
    <glyph glyph-name="uniFEEE" unicode="&#x648;" horiz-adv-x="461" arabic-form="final" 
d="M333 153l-1 2q-14 36 -48 76t-68 40q-32 0 -60.5 -28.5t-45.5 -69.5q42 -20 123 -20h100zM204 -213q-21 0 -98 52t-92 69l20 44q83 -16 124 -16q56 0 108.5 17t84.5 47h-105q-42 0 -75 7t-46 14t-17 13q-10 11 -28.5 75.5t-17.5 79.5q4 42 26 92t64 91t92 41
q60 0 104.5 -75t61.5 -185h51l16 -3v-147l-16 -3h-59q-18 -85 -70 -149t-128 -64z" />
    <glyph glyph-name="uniFEF0" unicode="&#x649;" horiz-adv-x="639" arabic-form="final" 
d="M253 -250q-121 0 -175 56.5t-54 136.5q0 54 22 116t44 97l21 36l36 -18q-34 -77 -34 -127q0 -133 162 -133q73 0 147 15t121 37q-40 34 -123 34h-47l-4 10l40 137l9 6h221l16 -3v-147l-16 -3l-33 -2q-2 -24 -24 -87.5t-28 -68.5q-24 -17 -55.5 -34.5t-102 -37.5
t-143.5 -20z" />
    <glyph glyph-name="uniFEF2" unicode="&#x64a;" horiz-adv-x="639" arabic-form="final" 
d="M253 -250q-121 0 -175 56.5t-54 136.5q0 54 22 116t44 97l21 36l36 -18q-34 -77 -34 -127q0 -133 162 -133q73 0 147 15t121 37q-40 34 -123 34h-47l-4 10l40 137l9 6h221l16 -3v-147l-16 -3l-33 -2q-2 -24 -24 -87.5t-28 -68.5q-24 -17 -55.5 -34.5t-102 -37.5
t-143.5 -20zM449 -389q-14 -20 -34.5 -40.5t-34.5 -30.5l-13 -11q-37 28 -68 66q-14 -17 -31.5 -33.5t-27.5 -24.5l-11 -8q-22 16 -42 36.5t-29 32.5l-9 13q40 48 80 83q43 -35 70 -68q32 36 68 68q58 -47 82 -83z" />
    <glyph glyph-name="uniFEF3" unicode="&#x64a;" horiz-adv-x="290" arabic-form="initial" 
d="M0 0l-16 3v147l16 3q95 0 137 6q-8 41 -22.5 93t-24.5 83l-10 31l91 94h35l50 -145l-1 -24l-30 -30q6 -38 6 -59q-1 -25 -50 -101t-69 -85q-38 -16 -112 -16zM266 -132q-12 -18 -30.5 -36.5t-31.5 -27.5l-12 -10q-24 18 -62 59q-12 -15 -28 -30t-26 -22l-9 -7
q-20 15 -38.5 33.5t-26.5 29.5l-8 11q36 44 73 75q51 -43 64 -61q32 37 61 61q52 -43 74 -75z" />
    <glyph glyph-name="uniFEF4" unicode="&#x64a;" horiz-adv-x="316" arabic-form="medial" 
d="M316 0h-12q-95 0 -166 87q-56 -66 -74 -79q-17 -8 -64 -8l-16 3v147l16 3q54 0 89 5l42 149l87 53l26 -7q-6 -114 -21 -190q33 -10 93 -10l16 -3v-147zM287 -132q-12 -18 -30.5 -36.5t-30.5 -27.5l-13 -10q-32 24 -62 59q-12 -15 -28 -30t-25 -22l-10 -7q-20 15 -38 33.5
t-26 29.5l-9 11q36 44 73 75q51 -43 63 -61q39 42 62 61q52 -43 74 -75z" />
    <glyph glyph-name=".notdef" horiz-adv-x="1200" 
d="M141 848h918q59 0 106 -50q20 -26 26 -45q9 -25 9 -52v-905q0 -76 -62 -122q-37 -26 -86 -26h-905q-77 0 -124 66q-23 39 -23 75v918q0 60 51 108q43 33 90 33zM14 694v-892q0 -64 39 -101q40 -38 91 -38h912q58 0 100 48q29 37 29 81v912q0 59 -50 101q-34 29 -89 29
h-892q-92 0 -130 -82q-10 -23 -10 -58zM291 654h75q20 0 49 -68q135 -277 137 -283h1v259q0 58 58 79q24 8 46 8h82l4 -1q39 0 79 -16q73 -36 104 -116q22 -61 22 -131v-11q0 -87 -35 -157q-39 -71 -107 -94q-28 -11 -89 -11h-62h-363q-4 3 -40 44h368q76 0 92 6q24 3 58 31
q29 26 35 46q18 49 18 138q0 105 -23 156q-25 45 -81 64q-20 6 -40 6h-18q-8 -16 -8 -37v-331q0 -31 -24 -45q-10 -4 -20 -4h-81q-20 0 -47 63q-137 279 -140 284v0v-347h-90v417q0 39 28 49q6 2 12 2zM210 -55q0 -4 -1 -8l-14 -80h-16l14 81q1 4 0 6q0 8 -4 13t-13 5
t-17.5 -5t-16 -14t-13.5 -22.5t-9 -31.5l-6 -32h-16l21 116h13l-5 -35v0q4 6 8.5 13t11 12t14.5 8.5t18 3.5q6 0 12 -2t10 -5.5t6.5 -9.5t2.5 -13zM315 -30l-52 -67q-8 -9 -14 -16.5t-13 -15.5l1 -1h65l-2 -13h-90l1 3l52 66q6 8 13.5 17t13.5 17h-1h-56l2 13h81zM410 -143
h-14l5 35v0q-8 -17 -21 -27t-29 -10q-7 0 -13.5 2.5t-11 7t-7.5 11.5t-3 15q0 19 7.5 34t19 26t26.5 17t31 6q19 0 30 -2zM399 -40q-13 0 -25 -5t-21 -14.5t-14.5 -21.5t-5.5 -27q0 -11 5.5 -17t15.5 -6q7 0 15 4t16 12.5t13.5 21t8.5 28.5l4 24q-4 1 -12 1zM509 -39
q-9 0 -17.5 -6t-16.5 -16t-14 -24t-9 -30l-5 -28h-16l20 116h14l-6 -41v0q3 7 7.5 14.5t11 13.5t14.5 10t17 4l4 -13h-4zM609 -143h-14l6 35h-1q-7 -17 -21 -27t-30 -10q-8 0 -14 2.5t-11 7.5t-8 12.5t-3 16.5q0 18 7 32.5t18.5 25t26.5 16.5t31 6q11 0 17 -1l12 66h16z
M603 -40h-8q-13 0 -24.5 -5t-21 -14t-15 -20.5t-5.5 -25.5q0 -13 6.5 -19.5t17.5 -6.5q7 0 15.5 4t15.5 12.5t13 21t9 28.5l5 24q-4 1 -8 1zM741 -51q0 -11 -6 -20t-17.5 -15.5t-27 -10.5t-32.5 -4q1 -14 9.5 -22t23.5 -8q18 0 32 12l-6 -19q-5 -3 -12 -5t-15 -2
q-11 0 -20 3t-15 9t-10 15.5t-4 21.5q0 15 6.5 28t17 22.5t22.5 15t24 5.5q14 0 22 -6.5t8 -19.5zM725 -53q0 7 -3.5 10.5t-11.5 3.5q-7 0 -16 -3.5t-16 -10.5t-13 -16t-6 -18q14 0 26 3t21 7.5t14 11t5 12.5zM825 -42q-7 4 -22 4q-10 0 -18 -6t-8 -15q0 -5 3 -9t10 -8
q15 -5 21 -12.5t6 -19.5q0 -8 -3 -14.5t-9.5 -11.5t-15.5 -8t-19 -3q-9 0 -15.5 1t-12.5 4v16q6 -4 13 -5.5t16 -1.5q13 0 21.5 6t8.5 16q0 6 -3 10.5t-11 7.5q-14 6 -20 13t-6 17q0 9 4 16t10 11.5t13.5 6.5t15.5 2t14.5 -1t9.5 -3zM848 -143h-16l20 116h17zM977.5 -40
q-5.5 -1 -9.5 -1q3 -2 4.5 -6.5t1.5 -9.5q0 -9 -3.5 -17t-10 -14t-16 -9.5t-20.5 -3.5q-9 0 -15 -3t-6 -7q0 -1 2.5 -3.5t5.5 -4.5l28 -10q12 -4 19 -11.5t7 -18.5q0 -9 -4.5 -17t-12 -13.5t-18.5 -9t-24 -3.5q-10 0 -18 2.5t-14 7.5t-9 12t-3 14q0 8 2.5 14.5t7.5 12
t11.5 9t13.5 5.5q-11 4 -12 12q1 6 7 11t12 7q-7 3 -11.5 10t-4.5 16q0 10 3.5 18t10.5 14t16 9t19 3q5 0 8.5 -0.5t6.5 -1.5q5 -1 14 -1q11 0 17 4l3 -13q-3 -2 -8.5 -3zM959 -59q0 9 -6.5 15t-17.5 6q-6 0 -12 -2.5t-10.5 -6.5t-7 -9.5t-2.5 -11.5q0 -9 6.5 -14.5
t17.5 -5.5q6 0 11.5 2.5t10 6t7.5 9t3 11.5zM949 -161q0 7 -5 12t-12 7l-21 7q-7 0 -13 -2.5t-11 -6.5t-7.5 -9.5t-2.5 -11.5q0 -4 2 -8.5t6 -8t9.5 -5.5t12.5 -2q10 0 17.5 3t13 7t8.5 9t3 9zM1098 -55q0 -4 -1 -8l-14 -80h-16l14 81q1 3 0 5q0 9 -4 14t-13 5t-17.5 -5
t-16 -14t-13.5 -22.5t-9 -31.5l-6 -32h-16l21 115h14l-6 -34v0q4 6 8.5 13t11 12t14.5 8.5t18 3.5q6 0 12 -2t10 -6t6.5 -9.5t2.5 -12.5zM872.5 13q2.5 -3 2.5 -7t-2.5 -7t-6.5 -3t-7 3t-3 7t3 7t7 3t6.5 -3z" />
    <glyph glyph-name=".null" 
 />
    <glyph glyph-name=".null" 
 />
    <glyph glyph-name="nonmarkingreturn" horiz-adv-x="333" 
 />
    <glyph glyph-name="space" unicode=" " horiz-adv-x="216" 
 />
    <glyph glyph-name="exclam" unicode="!" horiz-adv-x="292" 
d="M226 403q0 -5 -12 -37t-29 -74t-21 -53h-33q-32 277 -40 394l104 83h30q1 -37 1 -313zM157 -30q-24 18 -46.5 41t-32.5 37l-11 14q44 54 90 92q63 -52 92 -92q-16 -23 -39 -46t-38 -34z" />
    <glyph glyph-name="quotedbl" unicode="&#x22;" horiz-adv-x="391" 
d="M226 368v244h122l-24 -244h-98zM46 368v244h119l-22 -244h-97z" />
    <glyph glyph-name="numbersign" unicode="#" horiz-adv-x="621" 
d="M256 371l-29 -132h112l29 132h-112zM67 371v67h126l33 145h77l-32 -145h112l33 145h77l-32 -145h102v-67h-117l-29 -132h109v-68h-124l-38 -171h-78l38 171h-112l-38 -171h-79l38 171h-102v68h118l29 132h-111z" />
    <glyph glyph-name="dollar" unicode="$" horiz-adv-x="472" 
d="M148 389q0 -31 52 -53v111q-52 -13 -52 -58zM259 55q48 13 48 57q0 31 -48 57v-114zM367 344l-13 62q-42 38 -95 45v-137q31 -10 50 -17.5t45.5 -22.5t41.5 -31t26.5 -41.5t11.5 -55.5q0 -138 -175 -157v-76h-59v73q-85 1 -168 36v147h48l23 -85q43 -28 97 -34v143
q-34 12 -49 18.5t-43 21.5t-41 29t-24.5 37t-11.5 51q0 67 47 108.5t122 52.5v66h59v-63q96 -3 153 -34v-136h-45z" />
    <glyph glyph-name="percent" unicode="%" horiz-adv-x="665" 
d="M25 413q0 73 38 114t99 41q62 0 99 -38t37 -115q0 -70 -38 -109.5t-98 -39.5q-62 0 -99.5 37t-37.5 110zM231 0h-76l285 557h75zM165 325q37 0 37 87q0 96 -44 96q-20 0 -28.5 -22t-8.5 -72q0 -89 44 -89zM507 -9q-63 0 -100.5 36.5t-37.5 110.5q0 73 38 114t100 41
q61 0 98 -38t37 -115q0 -71 -37.5 -110t-97.5 -39zM510 50q36 0 36 87q0 95 -43 95q-38 0 -38 -93q0 -89 45 -89z" />
    <glyph glyph-name="ampersand" unicode="&#x26;" horiz-adv-x="702" 
d="M215 459q0 -52 58 -120q65 50 65 118q0 32 -16 52.5t-46 20.5q-29 0 -45 -19.5t-16 -51.5zM270 68q45 0 86 16q-72 53 -123 101q-34 31 -66 68q-11 -31 -11 -64q0 -51 28.5 -86t85.5 -35zM679 30v-30h-182q-37 16 -76 40q-80 -48 -194 -48q-97 0 -155.5 40.5t-58.5 107.5
q0 51 31 93t90 62q-51 74 -51 129q0 73 56 120.5t143 47.5q85 0 138 -35.5t53 -101.5q0 -53 -49 -92t-127 -51q24 -26 54 -51q37 -33 112 -91q37 55 47 128l-64 18v46h235v-49l-63 -14q-49 -108 -98 -169q83 -56 159 -100z" />
    <glyph glyph-name="quotesingle" unicode="'" horiz-adv-x="207" 
d="M46 368v244h119l-22 -244h-97z" />
    <glyph glyph-name="parenleft" unicode="(" horiz-adv-x="289" 
d="M217 -187q-37 31 -69.5 71t-63.5 95t-49.5 127.5t-18.5 151.5q0 80 22 154.5t57 128.5t64.5 88t58.5 58l47 -47q-58 -54 -110 -154t-52 -227q0 -90 30 -176.5t62 -136t68 -86.5z" />
    <glyph glyph-name="parenright" unicode=")" horiz-adv-x="289" 
d="M72 -187l-46 47q36 37 68 86.5t62 136t30 176.5q0 127 -52 227t-110 154l47 47q29 -25 58 -58.5t64.5 -87.5t57.5 -128.5t22 -154.5q0 -150 -59.5 -262.5t-141.5 -182.5z" />
    <glyph glyph-name="asterisk" unicode="*" horiz-adv-x="371" 
d="M340 432l-10 -51l-40 -38l-91 95l37 -125l-51 -16l-50 16l29 124l-82 -94l-37 37l-12 52l116 28l-117 32l12 53l40 35l85 -91l-34 123l50 12l52 -12l-41 -125l94 93l42 -36l7 -53l-124 -30z" />
    <glyph glyph-name="plus" unicode="+" horiz-adv-x="500" 
d="M460 245l-164 1l2 -174h-99l1 174l-164 -1v94l164 -1l-1 174h99l-2 -174l164 1v-94z" />
    <glyph glyph-name="comma" unicode="," horiz-adv-x="318" 
d="M253 46q0 -60 -48 -132.5t-123 -119.5l-36 38q29 28 50 69t21 77q0 46 -48 72q0 35 28.5 63t67.5 28q42 0 65 -26.5t23 -68.5z" />
    <glyph glyph-name="hyphen" unicode="-" horiz-adv-x="332" 
d="M282 191h-232v103h232v-103z" />
    <glyph glyph-name="period" unicode="." horiz-adv-x="252" 
d="M124 -30q-24 18 -46.5 41t-33.5 37l-10 14q44 54 90 92q63 -52 92 -92q-16 -23 -39 -46t-38 -34z" />
    <glyph glyph-name="slash" unicode="/" horiz-adv-x="289" 
d="M297 659l-209 -741h-98l211 741h96z" />
    <glyph glyph-name="zero" unicode="0" horiz-adv-x="560" 
d="M524 276q0 -122 -69 -202.5t-182 -80.5q-115 0 -178 72.5t-63 193.5q0 136 68 218t185 82q126 0 182.5 -77t56.5 -206zM284 59q40 0 53.5 50t13.5 162q0 106 -20 164t-58 58q-71 0 -71 -230q0 -109 18 -156.5t64 -47.5z" />
    <glyph glyph-name="one" unicode="1" horiz-adv-x="411" 
d="M29 0v48l104 33v364h-114v48l198 57h81v-470l99 -31v-49h-368z" />
    <glyph glyph-name="two" unicode="2" horiz-adv-x="485" 
d="M451 172l-11 -172h-411l-13 72q117 101 183 178.5t66 142.5q0 41 -17.5 68t-52.5 27q-64 0 -93 -106h-69v111q38 30 92 47t106 17q89 0 145 -40.5t56 -114.5t-80 -155.5t-202 -132.5l2 -8h207l48 77z" />
    <glyph glyph-name="three" unicode="3" horiz-adv-x="467" 
d="M30 145h65q32 -86 99 -86q38 0 59.5 23t21.5 57q0 51 -33.5 78t-117.5 28v56q61 4 95.5 35t34.5 74t-18.5 67t-50.5 24q-34 0 -52.5 -23.5t-29.5 -67.5h-68v91q71 57 174 57q91 0 150.5 -32.5t59.5 -94.5q0 -43 -38 -77t-98 -44v-5q73 -10 112 -52t39 -88
q0 -79 -66 -125.5t-162 -46.5q-89 0 -176 34v118z" />
    <glyph glyph-name="four" unicode="4" horiz-adv-x="490" 
d="M462 117h-58v-117h-163v117h-227l-13 79l267 355h136v-331h72zM97 220h144v195z" />
    <glyph glyph-name="five" unicode="5" horiz-adv-x="476" 
d="M28 132h65q26 -73 88 -73q41 0 65.5 28t24.5 76q0 94 -142 94q-37 0 -74 -6l26 301h351l-16 -122l-283 5l-4 -92q39 8 85 8q100 0 161.5 -45.5t61.5 -132.5q0 -51 -25 -88.5t-65.5 -56.5t-82 -27.5t-83.5 -8.5q-73 0 -153 32v108z" />
    <glyph glyph-name="six" unicode="6" horiz-adv-x="514" 
d="M256 -8q-109 0 -167.5 72t-58.5 180q0 132 74 222.5t192 90.5q92 0 162 -28v-103l-76 2q-23 64 -85 64q-84 0 -99 -179q51 40 112 40q82 0 130.5 -41.5t48.5 -117.5q0 -84 -63.5 -143t-169.5 -59zM261 58q27 0 44.5 30t17.5 85q0 92 -81 92q-26 0 -46 -7q2 -200 65 -200z
" />
    <glyph glyph-name="seven" unicode="7" horiz-adv-x="408" 
d="M40 0v27l261 402h-295l21 119h379l14 -38l-239 -510h-141z" />
    <glyph glyph-name="eight" unicode="8" horiz-adv-x="545" 
d="M263 -7q-226 0 -226 131q0 45 33.5 79.5t85.5 51.5q-100 65 -100 144q0 64 63.5 111t151.5 47q98 0 159 -33t61 -99q0 -44 -39.5 -74.5t-103.5 -37.5q40 -21 58 -31.5t46 -31t40 -42.5t12 -49q0 -69 -72 -117.5t-169 -48.5zM315 330q22 36 22 81q0 82 -62 82
q-22 0 -38 -16.5t-16 -41.5q0 -32 24 -56t70 -49zM259 58q32 0 52 17t20 46q0 9 -3.5 17t-12 16.5t-16.5 15t-22.5 15.5t-24.5 15t-29 16t-29 16q-15 -38 -15 -84q0 -44 21.5 -67t58.5 -23z" />
    <glyph glyph-name="nine" unicode="9" horiz-adv-x="514" 
d="M276 285q26 0 46 7q-2 200 -65 200q-27 0 -44.5 -30t-17.5 -85q0 -92 81 -92zM262 558q109 0 167.5 -72t58.5 -180q0 -132 -74 -222.5t-192 -90.5q-92 0 -162 28v103l76 -2q23 -64 85 -64q84 0 99 179q-51 -40 -112 -40q-82 0 -130.5 41.5t-48.5 117.5q0 84 63.5 143
t169.5 59z" />
    <glyph glyph-name="colon" unicode=":" horiz-adv-x="305" 
d="M156 348q-24 18 -46.5 41t-33.5 37l-10 14q44 54 90 92q63 -52 92 -92q-16 -23 -39 -46t-38 -34zM156 -29q-24 18 -46.5 41t-33.5 37l-10 14q44 54 90 92q63 -52 92 -92q-16 -23 -39 -46t-38 -35z" />
    <glyph glyph-name="semicolon" unicode=";" horiz-adv-x="318" 
d="M69 377q0 36 26 63t67 27q42 0 66 -26t24 -64q0 -33 -24.5 -58.5t-65.5 -25.5t-67 25t-26 59zM254 46q0 -60 -48 -132.5t-123 -119.5l-36 38q29 28 50 69t21 77q0 46 -48 72q0 35 28.5 63t67.5 28q42 0 65 -26.5t23 -68.5z" />
    <glyph glyph-name="less" unicode="&#x3c;" horiz-adv-x="495" 
d="M140 292l298 -146l-34 -68l-370 190v41l370 209l36 -67z" />
    <glyph glyph-name="equal" unicode="=" horiz-adv-x="500" 
d="M456 340h-406v94h406v-94zM456 154h-406v94h406v-94z" />
    <glyph glyph-name="greater" unicode="&#x3e;" horiz-adv-x="495" 
d="M57 147l298 146l-300 159l36 67l370 -209v-42l-370 -189z" />
    <glyph glyph-name="question" unicode="?" horiz-adv-x="412" 
d="M387 448q0 -97 -156 -160l-18 -75h-84l-19 109q108 51 108 134q0 38 -16 62.5t-43 24.5q-17 0 -36 -6l-34 -107h-67v126q73 36 169 36q86 0 141 -34t55 -110zM176 -8q-41 0 -67 25t-26 59q0 36 26 63t67 27q42 0 66 -26t24 -64q0 -33 -24.5 -58.5t-65.5 -25.5z" />
    <glyph glyph-name="at" unicode="@" horiz-adv-x="883" 
d="M462 5l24 144l-150 -157h-68q-13 45 -13 111q0 77 16 152.5t45 113.5q68 89 149 89q49 0 105 -28l24 29h49l-64 -382l10 -7q197 87 197 229q0 122 -84.5 202.5t-223.5 80.5q-153 0 -252 -101.5t-99 -261.5q0 -166 88 -259.5t258 -93.5q66 0 138.5 24.5t120.5 64.5h15
l-1 -54q-60 -46 -138.5 -75.5t-159.5 -29.5q-181 0 -299.5 109.5t-118.5 290.5q0 123 65 227.5t174.5 165t235.5 60.5q154 0 256 -94t102 -239q0 -61 -30.5 -116.5t-82.5 -96.5t-107 -71t-116 -51zM371 108l128 111l25 139q-78 48 -116 39q-55 -73 -55 -227q0 -30 3 -57z
" />
    <glyph glyph-name="A" unicode="A" horiz-adv-x="625" 
d="M272 415l-69 -187h142l-67 187h-6zM346 0v48l58 16l-39 109h-183l-38 -104l77 -20v-49h-225v48l57 17l219 527h113l193 -526l50 -17v-49h-282z" />
    <glyph glyph-name="B" unicode="B" horiz-adv-x="607" 
d="M22 534v49h297q102 0 168.5 -40.5t66.5 -109.5q0 -93 -112 -131v-2q142 -18 142 -134q0 -75 -63 -120.5t-177 -45.5h-322v48l76 27v429zM264 326h14q103 0 103 99q0 47 -28 71.5t-73 24.5h-16v-195zM264 66h18q132 0 132 97q0 35 -11 58t-33 32.5t-41.5 12.5t-48.5 3h-16
v-203z" />
    <glyph glyph-name="C" unicode="C" horiz-adv-x="594" 
d="M565 405h-83l-44 121q-23 5 -45 5q-87 0 -136.5 -63t-49.5 -175q0 -110 46 -174.5t143 -64.5q82 0 118 74h51v-94q-29 -17 -85.5 -29.5t-111.5 -12.5q-69 0 -128.5 15t-109.5 47t-79 88.5t-29 132.5q0 154 100 235.5t262 81.5q96 0 181 -33v-154z" />
    <glyph glyph-name="D" unicode="D" horiz-adv-x="692" 
d="M22 0v48l76 27v429l-76 30v49h311q58 -1 104.5 -9t91 -27t74.5 -49t48 -79t18 -113q0 -142 -94 -222t-241 -84h-312zM264 67h29q45 0 76 8t59 30t42 68.5t14 117.5q0 117 -42 172.5t-144 55.5h-34v-452z" />
    <glyph glyph-name="E" unicode="E" horiz-adv-x="556" 
d="M452 248l-188 12v-194h136l78 119l65 -10l-30 -175h-491v48l76 27v429l-76 30v49h493v-160h-78l-38 95h-135v-195l188 12v-87z" />
    <glyph glyph-name="F" unicode="F" horiz-adv-x="512" 
d="M22 0v48l76 27v429l-76 30v49h484v-160h-78l-38 95h-126v-204l188 12v-88l-188 12v-170l93 -31v-49h-335z" />
    <glyph glyph-name="G" unicode="G" horiz-adv-x="633" 
d="M490 405l-41 120q-29 6 -60 6q-78 0 -130 -64.5t-52 -173.5t46 -174t143 -65q22 0 34 2v158l-71 26v48h225v-254q-28 -16 -93.5 -29t-122.5 -13q-54 0 -103.5 10t-94 32.5t-77 55t-52 80t-19.5 105.5q0 148 101 232.5t261 84.5q49 0 104.5 -11t84.5 -22v-154h-83z" />
    <glyph glyph-name="H" unicode="H" horiz-adv-x="732" 
d="M399 0v48l76 27v192h-214v-191l71 -27v-49h-310v48l76 28v428l-76 30v49h310v-48l-71 -26v-182h214v178l-76 29v49h311v-48l-72 -27v-431l72 -28v-49h-311z" />
    <glyph glyph-name="I" unicode="I" horiz-adv-x="372" 
d="M29 0v48l76 27v429l-76 30v49h314v-48l-71 -26v-433l71 -27v-49h-314z" />
    <glyph glyph-name="J" unicode="J" horiz-adv-x="442" 
d="M174 -8q-99 0 -171 27v182h52l41 -130q22 -11 52 -11q8 0 15.5 3t17 12t15.5 30.5t6 52.5v347l-76 29v49h314v-48l-71 -26v-348q0 -74 -58.5 -121.5t-136.5 -47.5z" />
    <glyph glyph-name="K" unicode="K" horiz-adv-x="672" 
d="M456 0l-181 266v23l192 224l-69 22v48h242v-52l-83 -23l-146 -163l197 -273l65 -25v-47h-217zM22 0v48l76 27v429l-76 30v49h314v-48l-72 -26v-433l72 -27v-49h-314z" />
    <glyph glyph-name="L" unicode="L" horiz-adv-x="543" 
d="M22 0v48l76 27v429l-76 30v49h314v-48l-72 -26v-443h126l91 137l59 -17l-31 -186h-487z" />
    <glyph glyph-name="M" unicode="M" horiz-adv-x="875" 
d="M579 0v48l59 19l-33 357h-6l-160 -432h-67l-167 432h-6l-29 -358l66 -17v-49h-226v48l77 23l42 433l-81 30v49h261l139 -347h6l124 347h256v-49l-77 -30l46 -440l60 -15v-49h-284z" />
    <glyph glyph-name="N" unicode="N" horiz-adv-x="690" 
d="M15 0v48l72 31v422l-72 33v49h214l287 -362h6v276l-94 37v49h249v-48l-69 -28v-515h-107l-322 403h-5v-311l104 -35v-49h-263z" />
    <glyph glyph-name="O" unicode="O" horiz-adv-x="666" 
d="M644 314q0 -139 -86.5 -230.5t-231.5 -91.5q-137 0 -220.5 75.5t-83.5 207.5q0 144 89 230.5t231 86.5q140 0 221 -72.5t81 -205.5zM329 59q74 0 101.5 60.5t27.5 175.5t-29 173t-94 58q-70 0 -99 -56t-29 -174q0 -237 122 -237z" />
    <glyph glyph-name="P" unicode="P" horiz-adv-x="588" 
d="M22 0v48l76 27v429l-76 30v49h326q106 0 167.5 -46.5t61.5 -140.5q0 -84 -68.5 -134t-199.5 -50h-45v-136l72 -27v-49h-314zM264 278h15q62 0 89 27.5t27 88.5q0 62 -29 91t-89 31h-13v-238z" />
    <glyph glyph-name="Q" unicode="Q" horiz-adv-x="666" 
d="M644 314q0 -106 -51.5 -186.5t-143.5 -114.5l195 -102v-28h-228l-53 111q-24 -2 -37 -2q-137 0 -220.5 75.5t-83.5 207.5q0 144 89 230.5t231 86.5q140 0 221 -72.5t81 -205.5zM329 59q74 0 101.5 60.5t27.5 175.5t-29 173t-94 58q-70 0 -99 -56t-29 -174
q0 -237 122 -237z" />
    <glyph glyph-name="R" unicode="R" horiz-adv-x="642" 
d="M270 522h-6v-214q116 5 116 107q0 103 -110 107zM22 0v48l76 27v429l-76 30v49h326q97 0 156 -44t59 -124q0 -115 -114 -154l119 -187l72 -26v-48h-210l-125 242h-41v-166l72 -27v-49h-314z" />
    <glyph glyph-name="S" unicode="S" horiz-adv-x="499" 
d="M378 399l-25 95q-46 27 -98 27q-40 0 -66 -19t-26 -53q0 -22 18 -38.5t38.5 -24.5t60.5 -21q9 -3 13 -4q40 -13 66 -24.5t56 -32.5t45 -54t15 -77q0 -93 -69 -137t-186 -44q-97 0 -198 40v167h73l26 -102q59 -36 109 -36q46 0 74 18t28 56q0 15 -8.5 26.5t-27.5 21.5
t-35 17t-46 17.5t-46 16.5q-63 24 -100 62.5t-37 108.5q0 89 65 138t167 49q113 0 187 -38v-155h-73z" />
    <glyph glyph-name="T" unicode="T" horiz-adv-x="569" 
d="M125 0v48l76 27v443h-77l-51 -126h-68v191h556v-191h-67l-52 126h-74v-442l71 -27v-49h-314z" />
    <glyph glyph-name="U" unicode="U" horiz-adv-x="673" 
d="M335 -8q-261 0 -261 205v309l-69 28v49h308v-48l-60 -22v-307q0 -147 127 -147t127 168v271l-103 36v49h263v-48l-73 -33v-278q0 -62 -22 -108.5t-60 -72.5t-82 -38.5t-95 -12.5z" />
    <glyph glyph-name="V" unicode="V" horiz-adv-x="608" 
d="M249 0l-201 511l-55 23v49h282v-48l-50 -17l114 -320h7l110 308l-63 28v49h222v-48l-63 -30l-212 -505h-91z" />
    <glyph glyph-name="W" unicode="W" horiz-adv-x="894" 
d="M293 0h-100l-153 514l-47 20v49h292v-48l-74 -24l79 -305h6l129 377h100l142 -377h6l78 296l-78 32v49h231v-48l-55 -26l-176 -509h-108l-125 364h-6z" />
    <glyph glyph-name="X" unicode="X" horiz-adv-x="611" 
d="M322 0v48l38 14l-104 160l-84 -143l69 -30v-49h-233v48l55 23l148 220l-143 219l-56 24v49h272v-48l-44 -16l101 -153l94 141l-56 27v49h212v-48l-54 -26l-153 -209l148 -224l71 -27v-49h-281z" />
    <glyph glyph-name="Y" unicode="Y" horiz-adv-x="592" 
d="M138 0v48l76 27v147l-162 288l-57 24v49h282v-48l-59 -20l109 -219h6l103 210l-62 28v49h221v-48l-61 -29l-153 -280v-150l71 -27v-49h-314z" />
    <glyph glyph-name="Z" unicode="Z" horiz-adv-x="534" 
d="M18 0l-7 41l296 467h-161l-44 -116h-68v191h466l12 -34l-310 -473h177l74 112l62 -10l-21 -178h-476z" />
    <glyph glyph-name="bracketleft" unicode="[" horiz-adv-x="256" 
d="M233 -181h-161v860h161v-77h-67v-707h67v-76z" />
    <glyph glyph-name="backslash" unicode="\" horiz-adv-x="286" 
d="M192 -84l-191 739h96l189 -739h-94z" />
    <glyph glyph-name="bracketright" unicode="]" horiz-adv-x="256" 
d="M185 -181h-160v76h66v707h-66v77h160v-860z" />
    <glyph glyph-name="asciicircum" unicode="^" horiz-adv-x="451" 
d="M429 231h-101l-99 251l-109 -251h-98l167 352h88z" />
    <glyph glyph-name="underscore" unicode="_" horiz-adv-x="500" 
d="M496 -173h-496v93h496v-93z" />
    <glyph glyph-name="grave" unicode="`" horiz-adv-x="469" 
d="M126 631l75 84l133 -160l-36 -42z" />
    <glyph glyph-name="a" unicode="a" horiz-adv-x="499" 
d="M285 86v112h-30q-82 0 -82 -57q0 -29 24.5 -43.5t58.5 -14.5q14 0 29 3zM144 309h-102v121q37 16 98.5 27t110.5 11q86 0 134 -39t48 -113v-236l58 -29v-51h-182l-22 57q-24 -25 -64.5 -45t-84.5 -20q-54 0 -90.5 30t-36.5 86q0 67 66 107t166 40h42v50q0 46 -25 73.5
t-63 27.5q-6 0 -22 -2z" />
    <glyph glyph-name="b" unicode="b" horiz-adv-x="546" 
d="M56 25v582h-75v51l159 45h64v-277q65 42 134 42q90 0 142 -55.5t52 -166.5q0 -78 -41 -137.5t-102.5 -88t-131.5 -28.5q-126 0 -201 33zM233 67q69 0 103.5 47t34.5 133q0 70 -37.5 107t-93.5 37q-12 0 -36 -4v-318q10 -2 29 -2z" />
    <glyph glyph-name="c" unicode="c" horiz-adv-x="470" 
d="M347 284l-40 121h-8q-61 0 -95.5 -42.5t-34.5 -110.5q0 -74 42 -121t101 -47q62 0 126 30l15 -26q-25 -37 -84 -66.5t-123 -29.5q-104 0 -169.5 61t-65.5 164q0 111 73.5 181t176.5 70q105 0 187 -46v-138h-101z" />
    <glyph glyph-name="d" unicode="d" horiz-adv-x="556" 
d="M339 95v308q-27 5 -49 5q-50 0 -85 -40t-35 -122q0 -70 34.5 -113.5t86.5 -43.5q23 0 48 6zM487 80l59 -29v-51h-182l-17 57q-54 -65 -146 -65q-87 0 -138.5 61t-51.5 164q0 111 74 180.5t177 69.5q41 0 77 -15v155h-75v51l159 45h64v-623z" />
    <glyph glyph-name="e" unicode="e" horiz-adv-x="503" 
d="M493 224h-317q5 -67 47 -104t103 -37q73 0 137 29l18 -23q-31 -39 -96 -68t-131 -29q-108 0 -172.5 58t-64.5 167q0 116 75 183.5t180 67.5q102 0 161 -63t60 -181zM177 280l156 9q-3 112 -73 112q-72 0 -83 -121z" />
    <glyph glyph-name="f" unicode="f" horiz-adv-x="359" 
d="M29 0v48l67 26v307h-81v60l81 19v30q0 102 69.5 160t176.5 58q42 0 70 -7l-11 -121h-22l-109 53q-26 -39 -26 -98v-76h98v-78h-98v-303l68 -29v-49h-283z" />
    <glyph glyph-name="g" unicode="g" horiz-adv-x="534" 
d="M313 312q0 46 -19 69t-50 23q-65 0 -65 -81q0 -87 70 -87q64 0 64 76zM252 176q-30 0 -45 1l-16 -44l108 -8q104 -9 157 -45t53 -107q0 -74 -84.5 -134t-203.5 -60q-108 0 -164 36t-56 96q0 72 102 120l-48 9v63l87 86q-110 30 -110 126q0 70 63 111.5t151 41.5
q115 0 175 -49l80 48h27v-95h-70q12 -26 12 -55q0 -63 -65 -102t-153 -39zM255 -150q50 0 80 21t30 57q0 32 -22.5 48.5t-83.5 27.5l-104 18q-16 -35 -16 -77q0 -41 30.5 -68t85.5 -27z" />
    <glyph glyph-name="h" unicode="h" horiz-adv-x="605" 
d="M14 0v48l66 26v533h-75v51l159 45h64v-300q82 65 171 65q63 0 101 -42t38 -129v-222l60 -26v-49h-274v48l65 27v176q0 115 -98 115q-30 0 -63 -9v-281l60 -27v-49h-274z" />
    <glyph glyph-name="i" unicode="i" horiz-adv-x="312" 
d="M78 611q0 37 23.5 56.5t64.5 19.5q87 0 87 -76q0 -78 -87 -78q-41 0 -64.5 20t-23.5 58zM20 0v48l66 26v298h-75v51l160 45h63v-390l69 -29v-49h-283z" />
    <glyph glyph-name="j" unicode="j" horiz-adv-x="303" 
d="M78 611q0 37 23.5 56.5t64.5 19.5q87 0 87 -76q0 -78 -87 -78q-41 0 -64.5 20t-23.5 58zM234 27q0 -67 -45.5 -136.5t-126.5 -111.5l-43 38q67 74 67 187v368h-75v51l160 45h63v-441z" />
    <glyph glyph-name="k" unicode="k" horiz-adv-x="556" 
d="M15 0v48l66 28v531h-75v51l159 45h64v-629l59 -25v-49h-273zM553 0h-195l-118 229v22l113 128l-70 33v47h249v-48l-56 -33l-111 -101l125 -197l63 -31v-49z" />
    <glyph glyph-name="l" unicode="l" horiz-adv-x="307" 
d="M15 0v48l66 26v533h-75v51l159 45h64v-625l69 -29v-49h-283z" />
    <glyph glyph-name="m" unicode="m" horiz-adv-x="901" 
d="M619 0v48l63 26v177q0 116 -98 116q-26 0 -58 -8q7 -31 7 -62v-222l56 -26v-49h-264v48l59 25v178q0 116 -98 116q-20 0 -52 -7v-284l59 -27v-49h-274v48l67 26v298h-75v51l159 45h40l19 -61q81 61 166 61q84 0 119 -72q86 72 179 72q62 0 100 -42t38 -129v-222l62 -26
v-49h-274z" />
    <glyph glyph-name="n" unicode="n" horiz-adv-x="610" 
d="M19 0v48l67 26v298h-75v51l159 45h40l21 -67q84 67 173 67q63 0 101 -41.5t38 -129.5v-222l60 -26v-49h-274v48l65 27v176q0 116 -98 116q-24 0 -62 -9v-282l59 -27v-49h-274z" />
    <glyph glyph-name="o" unicode="o" horiz-adv-x="529" 
d="M509 225q0 -78 -39 -132.5t-94 -77.5t-117 -23q-242 0 -242 228q0 80 40 138.5t95 84t115 25.5q109 0 175.5 -57.5t66.5 -185.5zM266 57q83 0 83 156q0 194 -92 194q-47 0 -63.5 -43.5t-16.5 -122.5q0 -184 89 -184z" />
    <glyph glyph-name="p" unicode="p" horiz-adv-x="568" 
d="M261 382q-12 0 -36 -4v-310q22 -2 32 -2q135 0 135 174q0 70 -37.5 106t-93.5 36zM5 -208v48l72 29v503h-76v51l160 45h39l16 -48q66 48 143 48q90 0 142 -55.5t52 -166.5q0 -78 -41 -137.5t-103 -88t-132 -28.5q-18 0 -52 2v-125l64 -28v-49h-284z" />
    <glyph glyph-name="q" unicode="q" horiz-adv-x="549" 
d="M263 -208v48l76 31v178q-54 -57 -138 -57q-87 0 -138.5 59.5t-51.5 165.5q0 82 40 141t99 84.5t128 25.5q94 0 209 -24v-577l59 -26v-49h-283zM291 89q23 0 48 6v295q-27 12 -57 12q-49 0 -80.5 -37t-31.5 -118t33.5 -119.5t87.5 -38.5z" />
    <glyph glyph-name="r" unicode="r" horiz-adv-x="418" 
d="M27 0v48l59 23v301h-75v51l159 45h40l16 -50q76 50 134 50q26 0 46 -5l-16 -146h-22l-117 64h-17v-299l77 -33v-49h-284z" />
    <glyph glyph-name="s" unicode="s" horiz-adv-x="451" 
d="M209 -8q-77 0 -183 21v137h99l27 -88q35 -14 64 -14q32 0 52.5 14t20.5 42q0 24 -27 40t-66 28t-77.5 27.5t-65.5 46.5t-27 76q0 69 61 107.5t154 38.5q108 0 177 -31v-113h-93l-27 75q-25 10 -55 10q-73 0 -73 -46q0 -23 19.5 -38.5t48.5 -23.5t63 -20t63 -26t48.5 -43
t19.5 -70q0 -64 -63.5 -107t-159.5 -43z" />
    <glyph glyph-name="t" unicode="t" horiz-adv-x="401" 
d="M379 81l7 -53q-76 -36 -152 -36q-75 0 -118.5 34.5t-43.5 124.5v230h-66v54l70 24l47 123h98v-123h150v-78h-150v-226q1 -83 93 -83q27 0 65 9z" />
    <glyph glyph-name="u" unicode="u" horiz-adv-x="597" 
d="M402 0l-17 57q-81 -65 -171 -65q-62 0 -100 42t-38 129v209h-75v51l160 45h64v-257q0 -117 98 -117q27 0 54 7v271h-75v51l160 45h63v-388l59 -29v-51h-182z" />
    </font>
</defs>
</svg>
